<svg width="512" height="513" viewBox="0 0 512 513" fill="none" xmlns="http://www.w3.org/2000/svg">
<g clip-path="url(#clip0_707_10509)">
<path d="M256 512.988C397.385 512.988 512 398.373 512 256.988C512 115.603 397.385 0.988281 256 0.988281C114.615 0.988281 0 115.603 0 256.988C0 398.373 114.615 512.988 256 512.988Z" fill="#F0F0F0"/>
<path d="M256 0.988281C154.506 0.988281 66.8103 60.0533 25.4023 145.684H486.597C445.19 60.0533 357.493 0.988281 256 0.988281Z" fill="#FF9811"/>
<path d="M256 512.989C357.493 512.989 445.19 453.924 486.598 368.293H25.4023C66.8103 453.924 154.506 512.989 256 512.989Z" fill="#6DA544"/>
<path d="M256 346.031C305.177 346.031 345.043 306.165 345.043 256.988C345.043 207.811 305.177 167.945 256 167.945C206.823 167.945 166.957 207.811 166.957 256.988C166.957 306.165 206.823 346.031 256 346.031Z" fill="#0052B4"/>
<path d="M256 312.64C286.735 312.64 311.652 287.724 311.652 256.988C311.652 226.252 286.735 201.336 256 201.336C225.264 201.336 200.348 226.252 200.348 256.988C200.348 287.724 225.264 312.64 256 312.64Z" fill="#F0F0F0"/>
<path d="M256 188.314L273.169 227.252L315.473 222.651L290.337 256.988L315.473 291.325L273.169 286.724L256 325.662L238.831 286.724L196.527 291.324L221.663 256.988L196.527 222.651L238.831 227.252L256 188.314Z" fill="#0052B4"/>
</g>
<defs>
<clipPath id="clip0_707_10509">
<rect width="512" height="512" fill="white" transform="translate(0 0.988281)"/>
</clipPath>
</defs>
</svg>
