<svg width="512" height="512" viewBox="0 0 512 512" fill="none" xmlns="http://www.w3.org/2000/svg">
<g clip-path="url(#clip0_707_11296)">
<path d="M256 512C397.385 512 512 397.385 512 256C512 114.615 397.385 0 256 0C114.615 0 0 114.615 0 256C0 397.385 114.615 512 256 512Z" fill="#F0F0F0"/>
<path d="M345.043 256C345.043 278.261 305.177 333.913 256 333.913C206.823 333.913 166.957 278.261 166.957 256C166.957 206.822 206.823 166.957 256 166.957C305.177 166.957 345.043 206.822 345.043 256Z" fill="#D80027"/>
<path d="M345.043 256C345.043 305.178 305.177 345.043 256 345.043C206.823 345.043 166.957 305.178 166.957 256" fill="#0052B4"/>
<path d="M350.375 334.707L373.982 311.1L389.721 326.838L366.114 350.446L350.375 334.707Z" fill="black"/>
<path d="M311.018 374.055L334.625 350.447L350.364 366.186L326.756 389.793L311.018 374.055Z" fill="black"/>
<path d="M397.594 381.92L421.201 358.312L436.94 374.051L413.332 397.658L397.594 381.92Z" fill="black"/>
<path d="M358.237 421.273L381.845 397.666L397.583 413.405L373.976 437.012L358.237 421.273Z" fill="black"/>
<path d="M373.982 358.316L397.59 334.709L413.328 350.447L389.721 374.055L373.982 358.316Z" fill="black"/>
<path d="M334.637 397.662L358.244 374.055L373.983 389.793L350.375 413.401L334.637 397.662Z" fill="black"/>
<path d="M397.697 177.336L334.744 114.383L350.482 98.644L413.436 161.597L397.697 177.336Z" fill="black"/>
<path d="M334.732 161.604L311.125 137.996L326.863 122.258L350.47 145.866L334.732 161.604Z" fill="black"/>
<path d="M374.078 200.959L350.471 177.352L366.209 161.614L389.816 185.221L374.078 200.959Z" fill="black"/>
<path d="M381.942 114.379L358.335 90.7715L374.073 75.0329L397.681 98.6404L381.942 114.379Z" fill="black"/>
<path d="M421.311 153.74L397.703 130.133L413.442 114.394L437.049 138.002L421.311 153.74Z" fill="black"/>
<path d="M90.7549 358.271L153.708 421.225L137.97 436.963L75.0163 374.01L90.7549 358.271Z" fill="black"/>
<path d="M153.704 373.998L177.312 397.605L161.574 413.343L137.966 389.736L153.704 373.998Z" fill="black"/>
<path d="M114.355 334.66L137.963 358.268L122.224 374.006L98.617 350.399L114.355 334.66Z" fill="black"/>
<path d="M137.966 311.045L200.919 373.998L185.181 389.737L122.227 326.783L137.966 311.045Z" fill="black"/>
<path d="M153.701 90.7227L90.7478 153.676L75.0092 137.938L137.963 74.9841L153.701 90.7227Z" fill="black"/>
<path d="M177.309 114.328L114.355 177.282L98.6167 161.543L161.57 98.5896L177.309 114.328Z" fill="black"/>
<path d="M200.938 137.951L137.985 200.905L122.247 185.167L185.201 122.213L200.938 137.951Z" fill="black"/>
</g>
<defs>
<clipPath id="clip0_707_11296">
<rect width="512" height="512" fill="white"/>
</clipPath>
</defs>
</svg>
