<svg width="140" height="25" viewBox="0 0 140 25" fill="none" xmlns="http://www.w3.org/2000/svg">
<path d="M14.0215 0H19.1527V21.1217H13.9021L13.8425 8.29355L12.8878 9.84486L12.4105 10.6205L12.1749 11.0035C12.028 11.242 11.8812 11.4806 11.7343 11.7192L11.4708 12.1471L11.2851 12.4486L11.1713 12.6335L11.0713 12.7958C10.9799 12.9453 10.8897 13.0956 10.7995 13.2458H13.1265V18.1384L11.9483 18.0906C11.7 18.0845 11.4519 18.0789 11.2035 18.0751C8.60062 18.0751 7.42191 18.0421 7.42191 18.0421C7.32123 18.1959 5.96658 20.883 5.90692 20.9427C5.72347 20.9484 5.54137 20.9502 5.35791 20.9495L5.18329 20.9495C4.99268 20.9495 4.80206 20.949 4.61145 20.9485L4.60895 20.9485C4.4766 20.9484 4.34425 20.9483 4.2119 20.9483C3.8628 20.948 3.5137 20.9475 3.1646 20.9468C2.83435 20.9462 2.50411 20.946 2.17387 20.9457L2.09681 20.9456C1.39787 20.945 0.698937 20.944 0 20.9427C0.0835427 20.7271 0.175848 20.5452 0.305088 20.353L0.42356 20.176L0.555638 19.9806C0.602832 19.9103 0.650004 19.8401 0.697155 19.7698C0.832054 19.5689 0.967345 19.3683 1.10271 19.1677C1.19708 19.0278 1.29135 18.8879 1.3856 18.7479C1.78416 18.1561 2.18314 17.5646 2.58237 16.9733C2.94886 16.4304 3.3151 15.8874 3.6813 15.3443L4.22136 14.5435L4.43765 14.2228L10.0612 5.88454L10.1693 5.72421L10.3857 5.40328L10.9241 4.605C11.2578 4.11009 11.5916 3.6152 11.9256 3.12041L12.3917 2.42958L12.611 2.10459C12.7134 1.95305 12.8156 1.80147 12.9179 1.6499L13.0047 1.52134C13.3458 1.01564 13.6831 0.507545 14.0215 0Z" fill="#4E4E4E"/>
<path d="M19.8691 4.17578C30.6253 4.17578 30.6253 4.17578 32.9434 6.42071C34.2359 7.72532 34.6896 9.48903 34.6851 11.2809C34.6849 11.4351 34.6863 11.5892 34.6878 11.7434C34.6949 13.5899 34.2015 15.3157 32.9248 16.687C31.758 17.809 30.1696 18.1622 28.5976 18.1492C28.5269 18.1491 28.4562 18.149 28.3833 18.1489C28.1233 18.1483 27.8633 18.1466 27.6033 18.145C27.02 18.1426 26.4367 18.1401 25.8357 18.1376C25.8357 16.6018 25.8357 15.066 25.8357 13.4837C26.7513 13.4541 26.7513 13.4541 27.6854 13.424C28.3554 13.1803 28.7622 13.0178 29.1022 12.4045C29.4367 11.6271 29.4135 10.8791 29.177 10.0827C28.9612 9.57292 28.6167 9.21711 28.11 8.99193C27.0652 8.60187 26.4049 8.74487 25.0601 8.71039C25.0601 14.0266 25.0601 19.3428 25.0601 24.8202C23.3471 24.8202 21.6341 24.8202 19.8691 24.8202C19.8691 18.0075 19.8691 11.1949 19.8691 4.17578Z" fill="#4E4E4E"/>
<path d="M131.828 11.3204C132.207 11.6358 132.547 12.0512 132.695 12.5298C132.668 12.6584 132.668 12.6584 132.635 12.7685C132.369 12.8184 132.103 12.868 131.837 12.9177C131.761 12.9319 131.685 12.9461 131.607 12.9608C131.499 12.981 131.499 12.981 131.388 13.0016C131.321 13.0141 131.254 13.0266 131.185 13.0394C131.024 13.0668 131.024 13.0668 130.905 13.0668C130.892 13.0351 130.878 13.0034 130.865 12.9708C130.73 12.6691 130.609 12.511 130.308 12.3508C129.766 12.17 129.033 12.2411 128.518 12.4702C128.49 12.741 128.49 12.741 128.586 12.9827C129.106 13.3762 129.995 13.474 130.612 13.6232C131.414 13.8224 132.26 14.0893 132.745 14.8013C132.954 15.151 132.947 15.4754 132.933 15.8711C133.006 15.8582 133.079 15.8453 133.154 15.832C133.25 15.8152 133.347 15.7984 133.444 15.7816C133.492 15.7731 133.54 15.7645 133.589 15.7557C133.872 15.7072 134.137 15.6829 134.425 15.6921C134.443 15.7324 134.461 15.7727 134.48 15.8142C134.674 16.2276 134.833 16.4626 135.268 16.6319C135.789 16.7892 136.313 16.741 136.812 16.5274C136.975 16.439 136.975 16.439 137.05 16.2888C137.084 16.1119 137.074 15.9962 137.05 15.8115C136.852 15.6005 136.58 15.5597 136.308 15.4945C136.206 15.4687 136.104 15.4428 136.002 15.4169C135.949 15.4034 135.896 15.39 135.842 15.3762C133.464 14.7654 133.464 14.7654 132.944 13.9147C132.686 13.4332 132.686 12.8629 132.818 12.3396C133.005 11.7981 133.386 11.4184 133.888 11.1575C134.92 10.7099 136.268 10.6953 137.34 11.023C137.993 11.2833 138.469 11.7651 138.751 12.4079C138.785 12.5502 138.76 12.6296 138.721 12.7685C138.455 12.8184 138.189 12.868 137.923 12.9177C137.847 12.9319 137.771 12.9461 137.693 12.9608C137.621 12.9742 137.548 12.9877 137.474 13.0016C137.407 13.0141 137.34 13.0266 137.271 13.0394C137.11 13.0668 137.11 13.0668 136.991 13.0668C136.971 13.0193 136.971 13.0193 136.951 12.9708C136.815 12.6691 136.695 12.511 136.394 12.3508C136.161 12.2733 135.939 12.2778 135.697 12.2763C135.65 12.275 135.604 12.2738 135.556 12.2725C135.219 12.2703 134.97 12.3285 134.664 12.4702C134.583 12.6318 134.6 12.7691 134.604 12.9475C134.997 13.1655 135.389 13.2808 135.823 13.3913C135.962 13.4278 136.101 13.4644 136.24 13.501C136.423 13.5491 136.607 13.5972 136.791 13.6451C137.559 13.8477 138.394 14.0849 138.84 14.7971C139.099 15.2705 139.1 15.8879 138.978 16.4025C138.745 17.0341 138.311 17.4955 137.719 17.8089C136.597 18.3153 135.191 18.2636 134.045 17.855C133.505 17.6185 133.125 17.2118 132.754 16.7661C132.729 16.8007 132.704 16.8353 132.678 16.871C132.126 17.6054 131.532 17.9459 130.62 18.1084C129.442 18.2676 128.271 18.1259 127.285 17.4294C126.786 17.0174 126.551 16.5552 126.43 15.9308C126.658 15.8904 126.887 15.8508 127.116 15.8115C127.18 15.8001 127.244 15.7887 127.311 15.777C127.659 15.7175 127.986 15.6784 128.339 15.6921C128.366 15.7526 128.366 15.7526 128.394 15.8142C128.588 16.2276 128.747 16.4626 129.182 16.6319C129.703 16.7892 130.227 16.741 130.726 16.5274C130.889 16.439 130.889 16.439 130.964 16.2888C130.998 16.1119 130.988 15.9962 130.964 15.8115C130.766 15.6005 130.494 15.5597 130.222 15.4945C130.12 15.4687 130.018 15.4428 129.916 15.4169C129.863 15.4034 129.81 15.39 129.756 15.3762C127.378 14.7651 127.378 14.7651 126.859 13.9189C126.628 13.4766 126.596 12.9636 126.707 12.4802C126.901 11.8868 127.221 11.4712 127.769 11.1703C128.876 10.644 130.797 10.5739 131.828 11.3204Z" fill="#4E4E4E"/>
<path d="M41.9454 8.35156C42.6345 8.35156 43.3237 8.35156 44.0337 8.35156C44.1884 8.66105 44.3317 8.96074 44.4575 9.2809C44.4747 9.32409 44.4919 9.36728 44.5096 9.41179C44.5471 9.50608 44.5845 9.60042 44.6219 9.69479C44.7271 9.96086 44.8331 10.2266 44.939 10.4925C44.9618 10.5499 44.9847 10.6074 45.0082 10.6666C45.268 11.3194 45.5304 11.9711 45.7928 12.6229C45.9058 12.9035 46.0187 13.1842 46.1316 13.4648C46.3343 13.9686 46.537 14.4725 46.7399 14.9762C46.8839 15.3337 47.0277 15.6912 47.1715 16.0487C47.2256 16.1834 47.2798 16.3179 47.334 16.4525C47.409 16.6386 47.4839 16.8248 47.5587 17.0109C47.5918 17.0929 47.5918 17.0929 47.6256 17.1766C47.6459 17.2273 47.6663 17.2781 47.6873 17.3304C47.7137 17.3959 47.7137 17.3959 47.7405 17.4627C47.8026 17.6259 47.8567 17.7921 47.912 17.9578C47.1834 17.9578 46.4549 17.9578 45.7043 17.9578C45.5447 17.5602 45.3855 17.1624 45.227 16.7644C45.2099 16.7216 45.1928 16.6788 45.1751 16.6347C45.1324 16.5277 45.0902 16.4204 45.048 16.3132C45.0246 16.2541 45.0012 16.1949 44.9771 16.134C44.9287 15.9888 44.9287 15.9888 44.9287 15.8098C43.6685 15.8098 42.4084 15.8098 41.1101 15.8098C41.051 16.0067 40.9919 16.2036 40.9311 16.4065C40.843 16.6677 40.7489 16.9266 40.6551 17.1858C40.6308 17.2538 40.6065 17.3217 40.5815 17.3918C40.5582 17.4562 40.535 17.5206 40.5111 17.5869C40.49 17.6453 40.469 17.7037 40.4473 17.7639C40.3941 17.8981 40.3941 17.8981 40.3344 17.9578C40.1796 17.963 40.0265 17.9646 39.8718 17.9636C39.8255 17.9635 39.7792 17.9634 39.7315 17.9633C39.5832 17.963 39.4349 17.9622 39.2865 17.9615C39.1862 17.9612 39.0858 17.9609 38.9855 17.9607C38.739 17.96 38.4926 17.959 38.2461 17.9578C38.2902 17.653 38.4078 17.3783 38.5197 17.0935C38.5417 17.0371 38.5637 16.9806 38.5863 16.9224C38.6591 16.7354 38.7323 16.5485 38.8055 16.3617C38.8568 16.23 38.9082 16.0982 38.9595 15.9665C39.0663 15.6924 39.1732 15.4184 39.2801 15.1443C39.4304 14.7592 39.5799 14.3739 39.7291 13.9884C39.7524 13.9281 39.7758 13.8679 39.7998 13.8058C39.8466 13.685 39.8933 13.5641 39.9401 13.4432C40.3225 12.4556 40.7064 11.4685 41.0919 10.4821C41.1381 10.3638 41.1843 10.2454 41.2305 10.1271C41.2945 9.96308 41.3587 9.79907 41.4228 9.63508C41.4412 9.58803 41.4595 9.54098 41.4784 9.4925C41.6285 9.10957 41.7871 8.73151 41.9454 8.35156ZM42.9597 10.7382C42.7797 11.2152 42.6009 11.6926 42.4227 12.1702C42.408 12.2094 42.3934 12.2487 42.3783 12.2891C42.287 12.5337 42.196 12.7785 42.1054 13.0234C42.0758 13.1034 42.0461 13.1833 42.0163 13.2632C41.9743 13.3759 41.9327 13.4887 41.8911 13.6015C41.867 13.6664 41.8429 13.7313 41.8181 13.7982C41.7573 13.9602 41.7573 13.9602 41.7664 14.1391C42.5737 14.1391 43.3809 14.1391 44.2127 14.1391C44.17 13.8834 44.1306 13.6965 44.0422 13.4612C44.0195 13.4003 43.9968 13.3394 43.9734 13.2766C43.9367 13.1796 43.9367 13.1796 43.8992 13.0805C43.8741 13.0135 43.849 12.9465 43.8232 12.8774C43.7433 12.6639 43.6629 12.4506 43.5825 12.2373C43.5281 12.0923 43.4737 11.9474 43.4194 11.8024C43.2864 11.4475 43.153 11.0928 43.0194 10.7382C42.9997 10.7382 42.98 10.7382 42.9597 10.7382Z" fill="#4E4E4E"/>
<path d="M107.518 8.35156C113.342 8.35156 113.342 8.35156 114.2 9.18688C114.895 9.98753 114.976 10.9163 114.916 11.9315C114.881 12.1637 114.824 12.3702 114.737 12.5878C114.714 12.6493 114.714 12.6493 114.691 12.7121C114.447 13.2797 113.959 13.7279 113.424 14.0198C113.383 14.043 113.342 14.0663 113.3 14.0902C112.244 14.5979 110.666 14.3864 109.546 14.3778C109.546 15.5592 109.546 16.7406 109.546 17.9578C108.877 17.9578 108.207 17.9578 107.518 17.9578C107.518 14.7877 107.518 11.6177 107.518 8.35156ZM109.546 10.0222C109.546 10.9082 109.546 11.7943 109.546 12.7072C111.155 12.8217 111.155 12.8217 112.56 12.203C112.792 11.9499 112.875 11.7085 112.906 11.3721C112.869 10.9462 112.723 10.6194 112.41 10.3205C111.801 9.94943 111.096 10.0143 110.408 10.0185C110.123 10.0197 109.839 10.0209 109.546 10.0222Z" fill="#4E4E4E"/>
<path d="M100.834 8.35156C101.464 8.35156 102.095 8.35156 102.744 8.35156C102.744 11.5216 102.744 14.6917 102.744 17.9578C102.153 17.9578 101.562 17.9578 100.954 17.9578C100.934 17.7018 100.914 17.4458 100.894 17.1821C100.807 17.2762 100.807 17.2762 100.719 17.3723C100.234 17.8558 99.5441 18.1417 98.8617 18.1517C98.0616 18.1427 97.4168 17.8423 96.8296 17.3038C96.0091 16.4133 95.8422 15.2203 95.8877 14.0566C95.955 13.0555 96.2425 12.1627 96.9822 11.4567C97.7007 10.884 98.5176 10.7833 99.4024 10.8575C99.9217 10.9547 100.402 11.2608 100.775 11.6332C100.794 10.5502 100.814 9.46731 100.834 8.35156ZM98.3553 12.6603C97.7868 13.3606 97.8036 14.181 97.8511 15.0341C97.9353 15.6417 98.1508 16.0443 98.6228 16.4372C98.9323 16.6595 99.247 16.6693 99.612 16.6211C99.9801 16.5327 100.286 16.2948 100.517 15.9988C100.953 15.2833 100.938 14.301 100.767 13.5015C100.619 13.0121 100.38 12.6587 99.9352 12.4014C99.4055 12.1612 98.7864 12.2741 98.3553 12.6603Z" fill="#4E4E4E"/>
<path d="M81.6571 10.8442C81.775 10.8436 81.893 10.8418 82.0109 10.8399C82.8367 10.8366 83.5504 10.9563 84.1935 11.4997C84.7218 12.0303 84.6931 12.7924 84.6932 13.495C84.6939 13.5806 84.6947 13.6661 84.6956 13.7517C84.6977 13.9751 84.6989 14.1984 84.6998 14.4218C84.7013 14.7791 84.7037 15.1364 84.7071 15.4937C84.7081 15.617 84.7083 15.7403 84.7085 15.8637C84.7137 16.5212 84.7681 17.1171 85.0365 17.7225C85.0845 17.8395 85.0845 17.8395 85.0845 17.9588C84.4544 17.9588 83.8244 17.9588 83.1752 17.9588C83.1161 17.7619 83.0571 17.565 82.9962 17.3621C82.8419 17.454 82.6887 17.547 82.5373 17.6437C81.7565 18.1281 80.9585 18.2638 80.0539 18.0707C79.4767 17.9056 78.9931 17.5383 78.6965 17.0107C78.4484 16.4618 78.4388 15.8028 78.635 15.2368C78.9 14.6603 79.3294 14.3498 79.9085 14.1243C80.6232 13.8851 81.3642 13.7394 82.1003 13.5821C82.3395 13.5308 82.5784 13.4776 82.8172 13.4242C82.7987 13.3086 82.7801 13.193 82.7613 13.0774C82.7457 12.9808 82.7457 12.9808 82.7298 12.8823C82.7015 12.7053 82.7015 12.7053 82.6382 12.5292C82.1714 12.2914 81.5583 12.2627 81.0608 12.4136C80.7235 12.5609 80.5878 12.8712 80.4306 13.1855C79.5741 13.0379 79.5741 13.0379 78.7003 12.8872C78.9126 12.1795 79.1456 11.6362 79.7743 11.2166C80.4031 10.9134 80.9669 10.8462 81.6571 10.8442ZM81.9948 14.8425C81.8789 14.8707 81.7628 14.8981 81.6467 14.9254C81.5362 14.9525 81.5362 14.9525 81.4235 14.9802C81.3561 14.9964 81.2887 15.0127 81.2193 15.0294C80.8862 15.1429 80.611 15.3264 80.4306 15.6318C80.3899 15.9471 80.4146 16.1672 80.5909 16.4347C80.7768 16.6533 80.9632 16.7454 81.2389 16.7902C81.7122 16.8156 82.0971 16.6833 82.4525 16.3669C82.787 16.0024 82.8352 15.6407 82.8247 15.162C82.8241 15.1152 82.8236 15.0684 82.823 15.0202C82.8216 14.9059 82.8195 14.7915 82.8172 14.6772C82.5406 14.6772 82.2622 14.7769 81.9948 14.8425Z" fill="#4E4E4E"/>
<path d="M67.0653 11.4547C67.8689 12.0425 68.2966 12.8906 68.4672 13.8558C68.621 15.0024 68.3276 16.0141 67.662 16.9439C67.1192 17.6162 66.2471 18.0444 65.3947 18.1373C64.3184 18.2094 63.2788 18.007 62.4046 17.339C61.7066 16.7052 61.324 15.8442 61.2705 14.9082C61.2248 13.8163 61.3971 12.8175 62.1354 11.9656C63.4364 10.6272 65.5008 10.4545 67.0653 11.4547ZM63.6718 12.924C63.2492 13.4562 63.1554 14.1098 63.2022 14.7715C63.272 15.3609 63.4176 15.8022 63.8434 16.228C64.2687 16.51 64.6445 16.6412 65.156 16.5859C65.6124 16.4752 65.9509 16.2477 66.23 15.87C66.5763 15.2015 66.6573 14.3589 66.4612 13.6288C66.2619 13.0926 65.9594 12.7384 65.4543 12.469C64.7913 12.248 64.1493 12.4323 63.6718 12.924Z" fill="#4E4E4E"/>
<path d="M124.999 11.3947C125.792 12.013 126.13 12.909 126.275 13.8771C126.322 14.2658 126.312 14.6392 126.312 15.0343C124.796 15.0343 123.279 15.0343 121.717 15.0343C121.875 15.8319 121.875 15.8319 122.362 16.4306C122.706 16.6382 123.053 16.6913 123.448 16.6453C123.799 16.5373 123.987 16.3749 124.164 16.0486C124.223 15.9305 124.282 15.8123 124.343 15.6906C124.953 15.7891 125.563 15.8875 126.192 15.9889C126.078 16.6773 125.668 17.2033 125.126 17.6272C124.334 18.1701 123.312 18.2218 122.386 18.1094C121.587 17.9584 120.916 17.6211 120.427 16.966C119.738 15.9379 119.631 14.7137 119.823 13.5158C119.954 12.8938 120.177 12.3623 120.584 11.872C120.615 11.8342 120.646 11.7963 120.678 11.7573C121.739 10.5902 123.739 10.5273 124.999 11.3947ZM122.044 12.774C121.776 13.116 121.766 13.4039 121.717 13.841C122.603 13.841 123.489 13.841 124.402 13.841C124.346 13.2827 124.308 12.9367 123.903 12.5656C123.291 12.0877 122.546 12.2274 122.044 12.774Z" fill="#4E4E4E"/>
<path d="M94.081 11.2852C94.8166 11.7947 95.2189 12.4831 95.4272 13.3399C95.4422 13.3983 95.4422 13.3983 95.4576 13.4578C95.5722 13.9881 95.5241 14.4769 95.5241 15.0367C93.2795 15.0662 93.2795 15.0662 90.9895 15.0963C91.0926 15.663 91.155 15.9845 91.5489 16.3679C91.9156 16.6037 92.2291 16.7027 92.6602 16.6476C93.0029 16.5448 93.1733 16.4037 93.3762 16.1106C93.4352 15.9728 93.4943 15.835 93.5552 15.693C94.1852 15.7914 94.8153 15.8899 95.4645 15.9913C95.194 16.8028 94.813 17.4089 94.0511 17.8298C93.127 18.2506 92.01 18.2626 91.0492 17.9603C90.2428 17.6516 89.68 17.134 89.3189 16.3493C88.8844 15.1929 88.8459 13.7815 89.3495 12.6396C89.7281 11.8434 90.3047 11.3161 91.1275 10.9943C92.076 10.6728 93.2184 10.7826 94.081 11.2852ZM91.258 12.8216C91.0342 13.1579 90.9895 13.4393 90.9895 13.8433C91.8756 13.8433 92.7616 13.8433 93.6745 13.8433C93.6104 13.2668 93.5339 12.9039 93.0778 12.5307C92.4528 12.1126 91.7349 12.2252 91.258 12.8216Z" fill="#4E4E4E"/>
<path d="M59.6926 11.3196C59.833 11.4371 59.96 11.5585 60.0825 11.6946C60.1231 11.7389 60.1637 11.7832 60.2056 11.8289C60.3582 12.0455 60.4854 12.2745 60.5598 12.5299C60.5426 12.6101 60.523 12.6898 60.5002 12.7686C60.2342 12.8185 59.9682 12.8681 59.7021 12.9178C59.6263 12.932 59.5505 12.9462 59.4723 12.9609C59.3639 12.9811 59.3639 12.9811 59.2532 13.0017C59.1864 13.0142 59.1195 13.0267 59.0506 13.0395C58.8892 13.0669 58.8892 13.0669 58.7699 13.0669C58.7568 13.0352 58.7437 13.0035 58.7302 12.9709C58.5948 12.6692 58.4743 12.5111 58.1732 12.3509C57.6308 12.1701 56.8986 12.2412 56.3832 12.4703C56.3551 12.7411 56.3551 12.7411 56.451 12.9828C56.971 13.3763 57.86 13.4741 58.4777 13.6233C59.2882 13.8246 60.0986 14.0931 60.6081 14.7898C60.8852 15.2841 60.8674 15.9177 60.7659 16.4646C60.5661 17.0508 60.0986 17.4931 59.5642 17.7805C58.5139 18.2519 57.1222 18.3292 56.0341 17.9177C55.3268 17.6237 54.7228 17.1891 54.4143 16.4679C54.3681 16.29 54.3299 16.1112 54.2949 15.9309C54.5347 15.8906 54.7747 15.851 55.0146 15.8116C55.0823 15.8002 55.1499 15.7888 55.2196 15.7771C55.5517 15.7228 55.8676 15.6766 56.2042 15.6922C56.2313 15.7527 56.2313 15.7527 56.259 15.8143C56.4532 16.2277 56.6126 16.4627 57.047 16.632C57.5859 16.7946 58.071 16.7147 58.5909 16.5275C58.6499 16.5079 58.709 16.4882 58.7699 16.4679C58.8212 16.3137 58.8424 16.2093 58.8482 16.0502C58.8504 16.0096 58.8526 15.969 58.8549 15.9272C58.8383 15.8047 58.8383 15.8047 58.7405 15.7158C58.5331 15.6005 58.3163 15.5496 58.0874 15.4946C57.9855 15.4688 57.8835 15.4429 57.7816 15.417C57.7286 15.4035 57.6755 15.3901 57.6208 15.3763C55.2436 14.7655 55.2436 14.7655 54.7238 13.9193C54.4793 13.4487 54.4677 12.9146 54.6007 12.4069C54.7973 11.8243 55.1423 11.4395 55.6768 11.1467C56.7633 10.6236 58.6844 10.595 59.6926 11.3196Z" fill="#4E4E4E"/>
<path d="M52.8687 11.2629C53.324 11.6107 53.6484 12.0385 53.8196 12.5905C53.7901 12.6791 53.7901 12.6791 53.7599 12.7695C52.9034 12.9172 52.9034 12.9172 52.0296 13.0678C51.9312 12.8906 51.8327 12.7134 51.7313 12.5308C51.3003 12.1945 50.6997 12.2575 50.18 12.2922C49.9759 12.3255 49.8823 12.3612 49.7027 12.4712C49.6072 12.6526 49.6072 12.6526 49.5833 12.8292C49.8038 13.0825 49.9989 13.191 50.318 13.2729C50.3612 13.2849 50.4044 13.2969 50.4489 13.3093C50.7152 13.382 50.9832 13.4473 51.2516 13.5116C53.3514 14.0156 53.3514 14.0156 53.797 14.7103C54.0841 15.2642 54.1535 15.8223 53.9837 16.4315C53.9013 16.6716 53.7974 16.8638 53.6406 17.0654C53.6176 17.0984 53.5946 17.1313 53.5709 17.1652C53.1203 17.7625 52.4001 18.0068 51.6865 18.1131C50.6226 18.2386 49.405 18.1846 48.5168 17.5241C47.9875 17.0754 47.6401 16.6294 47.5547 15.9318C47.7833 15.8914 48.0121 15.8518 48.2408 15.8125C48.3051 15.8011 48.3694 15.7897 48.4357 15.778C48.7839 15.7185 49.1108 15.6794 49.464 15.6931C49.4991 15.802 49.4991 15.802 49.5348 15.9131C49.6544 16.2295 49.8279 16.4026 50.1203 16.5732C50.6194 16.7812 51.1511 16.758 51.6593 16.5867C51.8545 16.5003 51.9674 16.4048 52.0893 16.2301C52.134 16.0485 52.134 16.0485 52.0893 15.8721C51.8889 15.5979 51.6311 15.5535 51.3174 15.4771C51.2651 15.4635 51.2128 15.45 51.159 15.4361C50.992 15.393 50.8247 15.3509 50.6573 15.309C48.5064 14.7667 48.5064 14.7667 48.0038 14.0094C47.7407 13.504 47.7126 12.9114 47.8299 12.3584C48.0214 11.8218 48.4025 11.4118 48.9091 11.1581C50.0518 10.6653 51.7781 10.601 52.8687 11.2629Z" fill="#4E4E4E"/>
<path d="M74.2837 11.3968C74.7853 11.8011 75.1055 12.3384 75.2981 12.9481C75.2981 13.0072 75.2981 13.0663 75.2981 13.1271C75.0646 13.1713 74.8311 13.2149 74.5974 13.2579C74.518 13.2726 74.4386 13.2874 74.3592 13.3025C74.2449 13.3241 74.1306 13.3451 74.0162 13.366C73.9474 13.3788 73.8787 13.3916 73.8079 13.4048C73.6423 13.4238 73.5414 13.4298 73.3887 13.3658C73.3237 13.2378 73.3237 13.2378 73.2731 13.0787C73.1775 12.8167 73.0997 12.6756 72.8518 12.5305C72.4713 12.3544 72.0705 12.3419 71.6687 12.4612C71.3085 12.6214 71.094 12.8217 70.9424 13.1868C70.7991 13.5731 70.8002 13.9486 70.8007 14.3577C70.8008 14.4269 70.8009 14.4961 70.801 14.5674C70.81 15.1961 70.8644 15.7437 71.3004 16.2298C71.6693 16.5048 72.045 16.5698 72.4938 16.5281C72.8759 16.4071 73.1075 16.2249 73.3104 15.8792C73.3945 15.679 73.4535 15.4851 73.5081 15.2751C74.1358 15.3039 74.7448 15.4438 75.3577 15.5734C75.2804 16.3034 74.9408 16.8703 74.4627 17.4231C73.5865 18.1163 72.5127 18.2357 71.434 18.1137C70.6375 17.9683 69.9469 17.5934 69.4508 16.9457C68.7678 15.8871 68.6275 14.6138 68.8653 13.3882C69.0918 12.5097 69.4689 11.8442 70.2258 11.3227C71.4192 10.6261 73.1315 10.6138 74.2837 11.3968Z" fill="#4E4E4E"/>
<path d="M87.77 8.5332C87.77 9.34048 87.77 10.1478 87.77 10.9795C88.1835 10.9795 88.597 10.9795 89.023 10.9795C89.023 11.4914 89.023 12.0034 89.023 12.5308C88.6095 12.5308 88.196 12.5308 87.77 12.5308C87.7765 13.0178 87.7832 13.5048 87.7903 13.9919C87.7936 14.218 87.7967 14.4441 87.7997 14.6703C87.8025 14.8885 87.8057 15.1066 87.809 15.3248C87.8102 15.4081 87.8113 15.4914 87.8123 15.5747C87.8138 15.6913 87.8156 15.8078 87.8174 15.9244C87.8188 16.024 87.8188 16.024 87.8202 16.1255C87.8228 16.2951 87.8228 16.2951 87.8894 16.4688C88 16.4704 88.1106 16.4715 88.2212 16.4725C88.3137 16.4735 88.3137 16.4735 88.4079 16.4746C88.6168 16.4684 88.8168 16.4421 89.023 16.4091C89.16 17.406 89.16 17.406 89.1423 17.9007C88.3323 18.1392 87.5052 18.3148 86.696 17.9604C86.3713 17.7827 86.1159 17.5729 85.9877 17.2208C85.8491 16.705 85.8374 16.207 85.8432 15.6773C85.8436 15.586 85.8438 15.4947 85.844 15.4034C85.8447 15.1656 85.8464 14.9279 85.8484 14.6901C85.8503 14.4465 85.8511 14.2029 85.852 13.9593C85.8539 13.4831 85.857 13.007 85.8607 12.5308C85.5851 12.5308 85.3094 12.5308 85.0254 12.5308C85.0254 12.0189 85.0254 11.5069 85.0254 10.9795C85.301 10.9795 85.5767 10.9795 85.8607 10.9795C85.8503 10.8867 85.8399 10.7938 85.8292 10.6982C85.7553 9.76378 85.7553 9.76378 85.9341 9.49814C86.1364 9.32081 86.3782 9.22445 86.626 9.12622C86.8483 9.03021 87.0476 8.89744 87.2517 8.76814C87.6314 8.5332 87.6314 8.5332 87.77 8.5332Z" fill="#4E4E4E"/>
<path d="M120.051 11.0221C120.166 11.0977 120.166 11.0977 120.21 11.1999C120.232 11.3869 120.18 11.5099 120.114 11.6859C120.09 11.7525 120.066 11.819 120.04 11.8875C120.014 11.9567 119.988 12.0258 119.961 12.0971C119.935 12.1671 119.909 12.2372 119.883 12.3094C119.819 12.4825 119.754 12.6553 119.689 12.828C119.512 12.7699 119.338 12.7118 119.167 12.6378C118.838 12.5554 118.522 12.5952 118.205 12.7124C117.768 13.1107 117.7 13.7617 117.66 14.3196C117.649 14.6044 117.645 14.8891 117.642 15.1741C117.64 15.2548 117.639 15.3355 117.638 15.4163C117.634 15.6268 117.632 15.8373 117.629 16.0478C117.626 16.2634 117.622 16.479 117.619 16.6946C117.613 17.1161 117.607 17.5377 117.601 17.9592C116.971 17.9592 116.341 17.9592 115.691 17.9592C115.691 15.6555 115.691 13.3518 115.691 10.9783C116.282 10.9783 116.873 10.9783 117.481 10.9783C117.501 11.2146 117.521 11.4509 117.541 11.6943C117.591 11.6339 117.591 11.6339 117.642 11.5722C118.318 10.7821 119.077 10.6565 120.051 11.0221Z" fill="#4E4E4E"/>
<path d="M75.9551 10.9766C76.5851 10.9766 77.2152 10.9766 77.8644 10.9766C77.8644 13.2803 77.8644 15.584 77.8644 17.9575C77.2343 17.9575 76.6042 17.9575 75.9551 17.9575C75.9551 15.6538 75.9551 13.3501 75.9551 10.9766Z" fill="#4E4E4E"/>
<path d="M75.9551 8.35156C76.5851 8.35156 77.2152 8.35156 77.8644 8.35156C77.8644 8.92256 77.8644 9.49357 77.8644 10.0819C77.2343 10.0819 76.6042 10.0819 75.9551 10.0819C75.9551 9.51087 75.9551 8.93987 75.9551 8.35156Z" fill="#4E4E4E"/>
</svg>
