<svg width="117" height="23" viewBox="0 0 117 23" fill="none" xmlns="http://www.w3.org/2000/svg">
<path d="M0 0.0113808C1.45804 0.00946118 2.91608 0.00754161 4.4183 0.00556387C5.10659 0.0042929 5.10659 0.0042929 5.80878 0.00299626C6.37298 0.0025759 6.37298 0.0025759 6.63785 0.00249779C6.8212 0.00241176 7.00456 0.0020657 7.18791 0.00155482C7.42297 0.000908728 7.65802 0.000726453 7.89308 0.000857104C7.97861 0.00082985 8.06414 0.000649923 8.14967 0.000285388C8.90358 -0.00277433 9.67953 0.0156789 10.4131 0.209155C10.4525 0.219146 10.4918 0.229138 10.5324 0.239432C11.2487 0.428762 11.9049 0.736829 12.4752 1.22129C12.5193 1.25692 12.5634 1.29256 12.6089 1.32927C13.3743 1.98178 13.7736 3.03081 13.8918 4.01339C13.9049 4.23656 13.9067 4.45881 13.9061 4.68234C13.9068 4.73872 13.9075 4.79511 13.9083 4.85321C13.9088 5.79355 13.629 6.65416 13.0007 7.35101C12.6794 7.66602 12.3136 7.8884 11.9268 8.10848C12.0511 8.19285 12.1759 8.25777 12.3104 8.32314C13.3297 8.82202 14.0729 9.60698 14.4643 10.6923C14.8064 11.7162 14.8398 12.8775 14.5772 13.9254C14.5696 13.9557 14.562 13.9861 14.5542 14.0174C14.3634 14.7568 14.057 15.4333 13.5719 16.0194C13.5385 16.0605 13.505 16.1016 13.4705 16.144C12.8001 16.936 11.9095 17.3839 10.9215 17.6133C10.8912 17.6203 10.861 17.6273 10.8298 17.6346C10.1531 17.7796 9.48684 17.801 8.7984 17.7983C8.7004 17.7983 8.6024 17.7983 8.5044 17.7984C8.24408 17.7984 7.98376 17.7979 7.72344 17.7972C7.47836 17.7967 7.23328 17.7966 6.9882 17.7966C6.27342 17.7961 5.55863 17.7948 4.84385 17.7936C3.24538 17.7917 1.64691 17.7897 0 17.7878C0 11.9216 0 6.05535 0 0.0113808ZM4.75246 3.92032C4.75246 4.90314 4.75246 5.88597 4.75246 6.89857C5.32606 6.91094 5.32606 6.91094 5.89969 6.92193C6.13395 6.92611 6.3682 6.93045 6.60244 6.93575C6.79146 6.94002 6.98049 6.94356 7.16954 6.94661C7.24136 6.9479 7.31317 6.94944 7.38498 6.95125C7.94973 6.96522 8.47295 6.93386 8.91085 6.52629C9.24604 6.08336 9.32367 5.63398 9.27643 5.0837C9.20572 4.75847 9.08032 4.45659 8.81946 4.24607C8.46027 4.02984 8.17771 3.91431 7.76134 3.91504C7.72878 3.91504 7.69622 3.91503 7.66267 3.91502C7.55536 3.91505 7.44805 3.91542 7.34074 3.91578C7.26622 3.91587 7.19169 3.91593 7.11716 3.91598C6.92123 3.91616 6.72531 3.91661 6.52939 3.91713C6.29418 3.91769 6.05898 3.9179 5.82378 3.91817C5.46667 3.91863 5.10956 3.91952 4.75246 3.92032ZM4.79815 10.2956C4.79815 11.4781 4.79815 12.6605 4.79815 13.8788C5.32595 13.8817 5.85375 13.8846 6.39754 13.8876C6.56265 13.8888 6.72776 13.8901 6.89788 13.8914C7.04914 13.8919 7.04914 13.8919 7.20041 13.8922C7.26649 13.8924 7.33256 13.8928 7.39864 13.8936C8.11227 13.9009 8.8949 13.8722 9.45065 13.3582C9.82153 12.9485 9.94035 12.441 9.93046 11.8985C9.88346 11.3708 9.69192 10.9489 9.29356 10.6097C8.78796 10.2629 8.25684 10.2702 7.67205 10.2774C7.58882 10.2778 7.50559 10.2781 7.42236 10.2782C7.2051 10.279 6.98786 10.2808 6.7706 10.2828C6.50897 10.2851 6.24734 10.2859 5.9857 10.287C5.58984 10.2888 5.19402 10.2924 4.79815 10.2956Z" fill="#4E4E4E"/>
<path d="M58.514 5.49779C58.938 5.87122 59.2339 6.30299 59.4964 6.80368C59.4964 6.83439 59.4964 6.8651 59.4964 6.89675C59.5266 6.89675 59.5568 6.89675 59.5878 6.89675C59.5994 6.86297 59.611 6.8292 59.623 6.7944C59.7216 6.56596 59.8885 6.38875 60.0448 6.19872C60.0839 6.14932 60.0839 6.14932 60.1239 6.09892C60.7688 5.30803 61.7084 4.88284 62.6952 4.75613C62.9333 4.74125 63.1708 4.73801 63.4092 4.73868C63.4577 4.7387 63.4577 4.7387 63.5071 4.73871C64.0044 4.74022 64.4611 4.77355 64.9343 4.94227C64.9839 4.95967 65.0335 4.97707 65.0846 4.99499C66.0274 5.36201 66.6715 6.06637 67.0919 6.98327C67.4278 7.75406 67.5937 8.62306 67.5902 9.46462C67.5903 9.51846 67.5903 9.51846 67.5904 9.57339C67.5904 9.69235 67.5902 9.8113 67.5899 9.93026C67.5899 10.0161 67.5899 10.1019 67.59 10.1876C67.59 10.4196 67.5897 10.6516 67.5894 10.8836C67.5891 11.1263 67.5891 11.3691 67.589 11.6119C67.5889 12.0712 67.5885 12.5305 67.588 12.9898C67.5874 13.6108 67.5872 14.2317 67.5869 14.8527C67.5865 15.8304 67.5856 16.8082 67.5848 17.7859C66.1371 17.7859 64.6894 17.7859 63.1979 17.7859C63.1956 17.2521 63.1934 16.7183 63.1911 16.1683C63.1895 15.8296 63.1878 15.4909 63.1861 15.1523C63.1833 14.615 63.1807 14.0777 63.1786 13.5404C63.1771 13.1491 63.1753 12.7577 63.1731 12.3664C63.1719 12.1593 63.1709 11.9523 63.1703 11.7453C63.1697 11.55 63.1687 11.3547 63.1674 11.1594C63.167 11.0881 63.1667 11.0169 63.1666 10.9456C63.1654 10.2104 63.1502 9.40407 62.6186 8.84576C62.3221 8.60112 61.9721 8.53937 61.598 8.55419C61.1757 8.60927 60.8409 8.78028 60.5751 9.11843C60.1462 9.75446 60.1227 10.56 60.1216 11.3038C60.1212 11.375 60.1207 11.4461 60.1202 11.5173C60.119 11.7085 60.1183 11.8997 60.1177 12.0909C60.117 12.2914 60.1158 12.4919 60.1146 12.6925C60.1125 13.0713 60.1108 13.4502 60.1093 13.8291C60.1072 14.3417 60.1044 14.8543 60.1017 15.3669C60.0974 16.1732 60.094 16.9796 60.0905 17.7859C58.6428 17.7859 57.1952 17.7859 55.7036 17.7859C55.7014 17.2449 55.6991 16.7038 55.6968 16.1463C55.6952 15.8032 55.6936 15.46 55.6918 15.1169C55.6891 14.5725 55.6864 14.028 55.6843 13.4836C55.6828 13.0871 55.681 12.6905 55.6788 12.2939C55.6777 12.0841 55.6767 11.8743 55.676 11.6645C55.6755 11.4667 55.6744 11.2688 55.6731 11.071C55.6727 10.9987 55.6724 10.9265 55.6723 10.8542C55.6715 10.3363 55.6618 9.81885 55.4551 9.33693C55.4363 9.29176 55.4176 9.24659 55.3982 9.20005C55.3419 9.09127 55.2868 9.02818 55.2009 8.94429C55.2009 8.97593 55.2009 8.91358 55.2009 8.94429C54.8125 8.63043 54.3351 8.48389 53.832 8.60436C53.4058 8.74568 53.1776 8.93967 52.9732 9.34565C52.6565 10.0125 52.6355 10.6871 52.6326 11.4148C52.6321 11.4845 52.6317 11.5543 52.6312 11.624C52.63 11.8121 52.629 12.0001 52.6281 12.1881C52.6271 12.3851 52.6258 12.5821 52.6246 12.7791C52.6223 13.1516 52.6203 13.524 52.6183 13.8965C52.6156 14.4002 52.6126 14.9039 52.6096 15.4076C52.6049 16.2004 52.6006 16.9932 52.5962 17.7859C51.1033 17.7859 49.6104 17.7859 48.0723 17.7859C48.0723 13.609 48.0723 9.43198 48.0723 5.12841C49.4596 5.12841 50.847 5.12841 52.2764 5.12841C52.2764 5.74268 52.2764 6.35694 52.2764 6.98982C52.3065 6.98982 52.3367 6.98982 52.3678 6.98982C52.3841 6.94177 52.3841 6.94177 52.4008 6.89275C52.762 6.05356 53.5319 5.39988 54.3413 5.04116C55.6915 4.5095 57.341 4.58412 58.514 5.49779Z" fill="#4E4E4E"/>
<path d="M110.861 4.89795C110.91 4.91427 110.958 4.93059 111.008 4.9474C111.742 5.22521 112.273 5.76021 112.735 6.38707C112.75 5.95709 112.765 5.52711 112.78 5.08409C114.168 5.08409 115.555 5.08409 116.984 5.08409C116.987 6.58076 116.99 8.07742 116.991 9.57409C116.992 9.7512 116.992 9.92831 116.992 10.1054C116.992 10.1407 116.992 10.1759 116.992 10.2123C116.993 10.7814 116.994 11.3506 116.995 11.9198C116.996 12.5049 116.997 13.0899 116.997 13.6749C116.997 14.0352 116.998 14.3956 116.999 14.7559C117 15.0332 117 15.3106 117 15.5879C117 15.7009 117 15.814 117.001 15.927C117.007 17.424 116.766 19.0005 115.751 20.1615C115.729 20.1859 115.708 20.2103 115.686 20.2355C114.724 21.3171 113.368 21.842 111.958 21.9763C111.907 21.9814 111.856 21.9865 111.804 21.9918C109.873 22.1533 107.742 21.9587 106.201 20.6539C106.155 20.6142 106.11 20.5746 106.063 20.5337C106.031 20.5061 105.999 20.4784 105.966 20.4499C105.248 19.7727 104.857 18.7572 104.738 17.7882C106.155 17.7882 107.573 17.7882 109.033 17.7882C109.124 17.9724 109.124 17.9724 109.216 18.1604C109.427 18.5071 109.831 18.6985 110.21 18.7899C110.815 18.8798 111.453 18.8578 111.978 18.5036C112.362 18.1762 112.527 17.6724 112.597 17.1832C112.604 17.0724 112.609 16.9615 112.612 16.8506C112.613 16.8047 112.613 16.8047 112.615 16.7579C112.618 16.6612 112.62 16.5644 112.623 16.4677C112.625 16.4017 112.627 16.3358 112.629 16.2698C112.634 16.1089 112.639 15.948 112.643 15.7872C112.613 15.7872 112.583 15.7872 112.552 15.7872C112.539 15.8148 112.527 15.8425 112.514 15.871C112.178 16.5116 111.274 16.9066 110.632 17.1076C109.423 17.4201 108.105 17.1388 107.035 16.5324C105.785 15.748 105.039 14.4954 104.703 13.0649C104.249 10.9782 104.522 8.61218 105.655 6.78885C105.852 6.48516 106.086 6.22659 106.337 5.96826C106.367 5.93449 106.397 5.90071 106.428 5.86592C107.489 4.69315 109.42 4.3966 110.861 4.89795ZM109.527 8.76618C108.871 9.56757 108.833 10.6019 108.896 11.599C108.918 11.8237 108.965 12.0354 109.033 12.2505C109.049 12.3017 109.064 12.353 109.08 12.4057C109.259 12.9347 109.555 13.4069 110.038 13.6931C110.484 13.9044 110.927 13.9609 111.398 13.8036C112.033 13.5378 112.386 13.0159 112.643 12.3901C112.963 11.3782 112.936 10.1803 112.46 9.22571C112.182 8.71841 111.835 8.39726 111.307 8.19031C110.608 8.04801 110.016 8.24457 109.527 8.76618Z" fill="#4E4E4E"/>
<path d="M68.8184 0.0117188C70.266 0.0117188 71.7137 0.0117188 73.2052 0.0117188C73.2052 2.11557 73.2052 4.21942 73.2052 6.38702C73.3227 6.26743 73.4399 6.1476 73.5535 6.02419C74.2542 5.26925 75.1996 4.76071 76.233 4.70352C77.6527 4.6783 77.6527 4.6783 78.2776 4.8979C78.3069 4.90787 78.3363 4.91785 78.3666 4.92812C78.9947 5.14506 79.4909 5.50354 79.9684 5.96821C80.0147 6.01014 80.0147 6.01014 80.0619 6.05291C81.3166 7.23358 81.7352 9.27614 81.8032 10.9308C81.8558 12.9694 81.5707 15.1372 80.1968 16.7178C80.1631 16.7569 80.1293 16.7959 80.0946 16.8361C79.2903 17.706 78.0933 18.1807 76.932 18.2226C75.6713 18.2399 74.6131 17.9929 73.6708 17.0755C73.4184 16.8218 73.2758 16.5696 73.0682 16.2525C73.0531 16.7592 73.038 17.266 73.0225 17.7881C71.6351 17.7881 70.2478 17.7881 68.8184 17.7881C68.8184 11.9219 68.8184 6.05569 68.8184 0.0117188ZM73.7127 8.81502C73.0275 9.75105 72.9767 11.1205 73.1224 12.233C73.238 13.032 73.5244 13.8791 74.1824 14.3811C74.6266 14.6697 75.0856 14.791 75.609 14.695C76.1201 14.5596 76.4929 14.2384 76.7626 13.7832C77.3992 12.572 77.4238 10.956 77.0463 9.65647C77.0304 9.60644 77.0145 9.55642 76.9981 9.50487C76.985 9.46252 76.9719 9.42017 76.9584 9.37654C76.777 8.85492 76.4287 8.41694 75.9494 8.15281C75.0969 7.75736 74.2825 8.14688 73.7127 8.81502Z" fill="#4E4E4E"/>
<path d="M88.5947 4.74239C88.6492 4.74252 88.6492 4.74252 88.7047 4.74265C89.2321 4.74473 89.7378 4.76366 90.2512 4.89654C90.2823 4.90403 90.3133 4.91152 90.3452 4.91924C91.397 5.17663 92.2652 5.72015 93.0387 6.47873C93.0682 6.50579 93.0976 6.53284 93.128 6.56071C94.3301 7.69625 94.7635 9.4964 94.958 11.0857C94.9641 11.134 94.9701 11.1823 94.9764 11.232C95.0254 11.7096 95.0037 12.1873 95.0037 12.6679C92.2441 12.6679 89.4845 12.6679 86.6412 12.6679C86.9283 13.8778 86.9283 13.8778 87.7524 14.7343C88.2533 15.009 88.8146 15.0781 89.3687 14.9394C89.7759 14.8105 90.1049 14.6199 90.3426 14.2501C90.403 14.1119 90.4633 13.9737 90.5254 13.8313C91.9429 13.8313 93.3604 13.8313 94.8209 13.8313C94.5898 14.7729 94.2376 15.622 93.5871 16.3442C93.5672 16.3667 93.5472 16.3892 93.5267 16.4124C92.5186 17.5404 91.0383 18.0947 89.5658 18.2056C87.6946 18.2827 85.8696 18.0013 84.4021 16.7164C84.3615 16.6821 84.3209 16.6477 84.2791 16.6123C83.0606 15.5458 82.4231 13.9245 82.2626 12.3244C82.1253 10.3009 82.5088 8.34442 83.8223 6.76958C84.6057 5.86261 85.6071 5.28337 86.7412 4.9518C86.772 4.94272 86.8029 4.93364 86.8347 4.92428C87.4149 4.7655 87.998 4.7395 88.5947 4.74239ZM87.2704 8.3594C86.9051 8.84377 86.6412 9.48679 86.6412 10.1085C87.9381 10.1085 89.2349 10.1085 90.5711 10.1085C90.5711 9.80267 90.5644 9.59724 90.474 9.32028C90.4637 9.28813 90.4534 9.25597 90.4427 9.22285C90.2631 8.68733 89.9708 8.26862 89.4715 7.99694C88.7541 7.6738 87.8232 7.75019 87.2704 8.3594Z" fill="#4E4E4E"/>
<path d="M26.8853 4.79261C26.9206 4.79216 26.9559 4.79171 26.9923 4.79124C27.7598 4.78341 28.5 4.78607 29.2469 4.98984C29.2798 4.99855 29.3128 5.00727 29.3468 5.01624C30.7817 5.40504 31.9997 6.2769 32.8112 7.54927C32.8432 7.59942 32.8752 7.64957 32.9081 7.70124C33.5924 8.84767 33.8372 10.1647 33.8308 11.4902C33.8307 11.527 33.8306 11.5637 33.8305 11.6016C33.8281 12.1683 33.808 12.7193 33.6794 13.2731C33.6658 13.3321 33.6658 13.3321 33.6519 13.3922C33.2599 15.0277 32.3665 16.4305 30.9488 17.3258C29.404 18.2729 27.3155 18.4637 25.5771 18.0511C24.5893 17.7988 23.6548 17.3713 22.895 16.6701C22.8696 16.6468 22.8442 16.6234 22.818 16.5993C21.4894 15.356 20.92 13.6171 20.8335 11.8153C20.771 9.97178 21.2528 8.09528 22.5053 6.722C23.6443 5.50526 25.2283 4.81036 26.8853 4.79261ZM26.0195 8.50906C25.3516 9.32866 25.2982 10.4728 25.3027 11.4902C25.3027 11.5293 25.3028 11.5683 25.3029 11.6085C25.3067 12.6506 25.3797 13.8223 26.0999 14.6402C26.4486 14.9762 26.8375 15.1513 27.3201 15.1412C27.7977 15.1087 28.2061 14.8913 28.5316 14.5333C29.3622 13.4675 29.3946 11.874 29.2699 10.5804C29.1719 9.74586 28.9688 8.87541 28.3443 8.27929C27.5837 7.69833 26.6546 7.82835 26.0195 8.50906Z" fill="#4E4E4E"/>
<path d="M40.3252 4.79525C40.3609 4.79492 40.3966 4.79459 40.4333 4.79426C40.5479 4.79345 40.6624 4.79315 40.777 4.79306C40.816 4.79303 40.8551 4.793 40.8953 4.79297C41.4554 4.79369 41.9988 4.80487 42.5449 4.9443C42.5767 4.95204 42.6085 4.95978 42.6413 4.96775C44.0989 5.3311 45.3895 6.20763 46.2006 7.50373C46.7213 8.38801 47.008 9.2802 47.1602 10.2958C47.165 10.3273 47.1698 10.3588 47.1747 10.3912C47.4299 12.3485 47.0314 14.3967 45.8464 15.976C44.7916 17.266 43.304 18.0286 41.6646 18.1984C41.3663 18.2185 41.0672 18.2182 40.7684 18.2184C40.7327 18.2185 40.697 18.2185 40.6602 18.2185C40.1195 18.2178 39.5998 18.1958 39.0719 18.0672C39.0384 18.0595 39.0049 18.0517 38.9703 18.0437C37.9041 17.7923 36.9431 17.29 36.1658 16.5029C36.1077 16.4445 36.0479 16.3878 35.9879 16.3312C34.8956 15.2823 34.364 13.6111 34.2779 12.1176C34.2765 12.0693 34.2752 12.0209 34.2738 11.9711C34.2728 11.9387 34.2719 11.9062 34.2709 11.8728C34.2255 10.0321 34.6365 8.15649 35.9053 6.77753C35.9399 6.74076 35.9745 6.70399 36.0102 6.6661C36.0449 6.62789 36.0795 6.58968 36.1152 6.55031C37.1783 5.4129 38.7971 4.80462 40.3252 4.79525ZM39.4546 8.51005C39.1116 8.93096 38.9476 9.44017 38.8434 9.97009C38.8312 10.0317 38.8312 10.0317 38.8187 10.0946C38.744 10.52 38.7365 10.9393 38.7376 11.3699C38.7378 11.4902 38.7367 11.6104 38.7355 11.7307C38.7318 12.7223 38.8574 13.8716 39.5349 14.6412C39.8793 14.973 40.2712 15.1545 40.7489 15.1453C41.2943 15.0944 41.7015 14.8375 42.0492 14.4158C42.8419 13.3082 42.8448 11.6059 42.6679 10.3011C42.5455 9.51182 42.2985 8.73347 41.6718 8.21484C40.9238 7.6997 40.0559 7.86561 39.4546 8.51005Z" fill="#4E4E4E"/>
<path d="M15.4453 0.0117188C16.9382 0.0117188 18.4311 0.0117188 19.9693 0.0117188C19.9693 5.89329 19.9693 11.7749 19.9693 17.8346C18.4764 17.8346 16.9835 17.8346 15.4453 17.8346C15.4453 11.9531 15.4453 6.07151 15.4453 0.0117188Z" fill="#4E4E4E"/>
<path d="M104.325 4.94399C104.325 6.2493 104.325 7.55461 104.325 8.89947C104.144 8.88411 103.963 8.86876 103.777 8.85294C102.837 8.81251 101.958 8.86671 101.204 9.51315C100.507 10.1944 100.242 11.195 100.208 12.1525C100.205 12.3031 100.204 12.4536 100.203 12.6041C100.203 12.6609 100.202 12.7177 100.202 12.7763C100.201 12.9305 100.2 13.0848 100.199 13.2391C100.198 13.4009 100.197 13.5627 100.195 13.7245C100.193 14.0302 100.191 14.3359 100.189 14.6416C100.187 15.0241 100.184 15.4067 100.181 15.7892C100.176 16.4709 100.172 17.1525 100.167 17.8342C98.7042 17.8342 97.2415 17.8342 95.7344 17.8342C95.7344 13.6419 95.7344 9.44952 95.7344 5.13013C97.1217 5.13013 98.5091 5.13013 99.9385 5.13013C99.9385 5.83653 99.9385 6.54294 99.9385 7.27074C99.9686 7.27074 99.9988 7.27074 100.03 7.27074C100.042 7.23001 100.054 7.18928 100.066 7.14732C100.364 6.30902 101.142 5.59388 101.895 5.18248C102.6 4.84954 103.58 4.64044 104.325 4.94399Z" fill="#4E4E4E"/>
</svg>
