<svg width="16" height="16" viewBox="0 0 16 16" fill="none" xmlns="http://www.w3.org/2000/svg">
<g id="icon/Son">
<g id="Icon">
<path d="M11.1667 7.84375C11.1667 9.56964 9.67436 10.9688 7.83341 10.9688C5.99247 10.9688 4.50008 9.56964 4.50008 7.84375C4.50008 6.11786 5.99247 4.71875 7.83341 4.71875C9.67436 4.71875 11.1667 6.11786 11.1667 7.84375Z" fill="#5A618A"/>
<path d="M7.83341 3.9375C8.10806 3.93413 8.32982 3.72623 8.33341 3.46875V1.59375C8.33341 1.33487 8.10956 1.125 7.83341 1.125C7.55727 1.125 7.33341 1.33487 7.33341 1.59375V3.46875C7.337 3.72623 7.55877 3.93413 7.83341 3.9375Z" fill="#5A618A"/>
<path d="M7.83341 11.75C7.55877 11.7534 7.337 11.9613 7.33341 12.2188V14.0938C7.33341 14.3526 7.55727 14.5625 7.83341 14.5625C8.10956 14.5625 8.33341 14.3526 8.33341 14.0938V12.2188C8.32982 11.9613 8.10806 11.7534 7.83341 11.75Z" fill="#5A618A"/>
<path d="M4.18008 5.08125C4.37529 5.26403 4.69154 5.26403 4.88675 5.08125C5.08172 4.89824 5.08172 4.60176 4.88675 4.41875L3.47341 3.09375C3.34877 2.96834 3.16104 2.91672 2.98389 2.95913C2.80673 3.00155 2.6684 3.13124 2.62316 3.29732C2.57792 3.4634 2.63298 3.63939 2.76675 3.75625L4.18008 5.08125Z" fill="#5A618A"/>
<path d="M11.4867 10.6062C11.2897 10.4342 10.9827 10.4392 10.7923 10.6177C10.6019 10.7962 10.5965 11.0841 10.7801 11.2688L12.1934 12.5938C12.2867 12.6823 12.414 12.7318 12.5467 12.7313C12.6796 12.7326 12.8073 12.6829 12.9001 12.5938C13.095 12.4107 13.095 12.1143 12.9001 11.9313L11.4867 10.6062Z" fill="#5A618A"/>
<path d="M3.66675 7.84375C3.66316 7.58627 3.44139 7.37837 3.16675 7.375H1.16675C0.890606 7.375 0.666748 7.58487 0.666748 7.84375C0.666748 8.10263 0.890606 8.3125 1.16675 8.3125H3.16675C3.44139 8.30913 3.66316 8.10123 3.66675 7.84375Z" fill="#5A618A"/>
<path d="M14.5001 7.375H12.5001C12.2239 7.375 12.0001 7.58487 12.0001 7.84375C12.0001 8.10263 12.2239 8.3125 12.5001 8.3125H14.5001C14.7762 8.3125 15.0001 8.10263 15.0001 7.84375C15.0001 7.58487 14.7762 7.375 14.5001 7.375Z" fill="#5A618A"/>
<path d="M4.18008 10.6062L2.76675 11.9313C2.57178 12.1143 2.57178 12.4107 2.76675 12.5938C2.85957 12.6829 2.98722 12.7326 3.12008 12.7313C3.25279 12.7318 3.38016 12.6823 3.47341 12.5938L4.88675 11.2688C5.07032 11.0841 5.0649 10.7962 4.8745 10.6177C4.68409 10.4392 4.37709 10.4342 4.18008 10.6062Z" fill="#5A618A"/>
<path d="M11.1667 5.21875C11.2995 5.21934 11.4268 5.16977 11.5201 5.08125L12.9001 3.75625C13.0338 3.63939 13.0889 3.4634 13.0437 3.29732C12.9984 3.13124 12.8601 3.00155 12.6829 2.95913C12.5058 2.91672 12.3181 2.96834 12.1934 3.09375L10.7801 4.41875C10.5851 4.60176 10.5851 4.89824 10.7801 5.08125C10.8813 5.17796 11.0226 5.22822 11.1667 5.21875Z" fill="#5A618A"/>
</g>
</g>
</svg>
