<svg width="84" height="27" viewBox="0 0 84 27" fill="none" xmlns="http://www.w3.org/2000/svg">
<g opacity="0.8">
<path d="M0 8.33984C0 3.92157 3.58172 0.339844 8 0.339844H76C80.4183 0.339844 84 3.92157 84 8.33984V18.3398C84 22.7581 80.4183 26.3398 76 26.3398H8C3.58172 26.3398 0 22.7581 0 18.3398V8.33984Z" fill="#2400FF"/>
<path d="M32.2303 16.3398H30.0123V9.79439H32.2751C32.9249 9.79439 33.4832 9.92543 33.9498 10.1875C34.4185 10.4474 34.7786 10.8214 35.0301 11.3093C35.2815 11.7972 35.4072 12.381 35.4072 13.0607C35.4072 13.7425 35.2804 14.3285 35.0269 14.8185C34.7754 15.3086 34.4122 15.6847 33.937 15.9467C33.464 16.2088 32.8951 16.3398 32.2303 16.3398ZM31.198 15.3139H32.1728C32.6288 15.3139 33.0091 15.2308 33.3138 15.0646C33.6185 14.8963 33.8475 14.646 34.0009 14.3136C34.1543 13.979 34.231 13.5614 34.231 13.0607C34.231 12.56 34.1543 12.1445 34.0009 11.8143C33.8475 11.4819 33.6206 11.2337 33.3202 11.0696C33.0219 10.9034 32.6511 10.8203 32.208 10.8203H31.198V15.3139ZM37.0228 16.3398H35.7571L38.0615 9.79439H39.5253L41.8328 16.3398H40.5672L38.8189 11.1367H38.7678L37.0228 16.3398ZM37.0643 13.7734H40.516V14.7259H37.0643V13.7734ZM42.6949 16.3398V9.79439H45.1495C45.6523 9.79439 46.0742 9.88814 46.4151 10.0756C46.7581 10.2631 47.017 10.521 47.1917 10.8491C47.3686 11.1751 47.457 11.5458 47.457 11.9613C47.457 12.381 47.3686 12.7539 47.1917 13.0799C47.0149 13.4059 46.7539 13.6626 46.4087 13.8501C46.0635 14.0355 45.6384 14.1282 45.1335 14.1282H43.5067V13.1534H44.9737C45.2677 13.1534 45.5085 13.1023 45.696 13C45.8835 12.8977 46.022 12.7571 46.1115 12.5781C46.2031 12.3991 46.2489 12.1935 46.2489 11.9613C46.2489 11.729 46.2031 11.5245 46.1115 11.3477C46.022 11.1708 45.8824 11.0334 45.6928 10.9354C45.5053 10.8352 45.2635 10.7852 44.9673 10.7852H43.8806V16.3398H42.6949ZM48.4869 16.3398V9.79439H50.9415C51.4443 9.79439 51.8662 9.88814 52.2071 10.0756C52.5501 10.2631 52.809 10.521 52.9837 10.8491C53.1606 11.1751 53.249 11.5458 53.249 11.9613C53.249 12.381 53.1606 12.7539 52.9837 13.0799C52.8069 13.4059 52.5459 13.6626 52.2007 13.8501C51.8555 14.0355 51.4304 14.1282 50.9255 14.1282H49.2987V13.1534H50.7657C51.0597 13.1534 51.3005 13.1023 51.488 13C51.6755 12.8977 51.814 12.7571 51.9035 12.5781C51.9951 12.3991 52.0409 12.1935 52.0409 11.9613C52.0409 11.729 51.9951 11.5245 51.9035 11.3477C51.814 11.1708 51.6744 11.0334 51.4848 10.9354C51.2973 10.8352 51.0554 10.7852 50.7593 10.7852H49.6726V16.3398H48.4869Z" fill="white"/>
<path d="M29.3667 18.1296H53.6325V18.7433H29.3667V18.1296Z" fill="white"/>
<a href="https://app.airdrop-hunter.site/">
<rect fill="black" fill-opacity="0" x="12.3667" y="7.55398" width="24.2658" height="10.892"/>
</a>
</g>
</svg>
