<svg width="84" height="27" viewBox="0 0 84 27" fill="none" xmlns="http://www.w3.org/2000/svg">
<g opacity="0.8">
<path d="M0 8.33984C0 3.92157 3.58172 0.339844 8 0.339844H76C80.4183 0.339844 84 3.92157 84 8.33984V18.3398C84 22.7581 80.4183 26.3398 76 26.3398H8C3.58172 26.3398 0 22.7581 0 18.3398V8.33984Z" fill="#2400FF"/>
<path d="M49.6868 6.65073C49.5602 6.53486 49.405 6.45478 49.2372 6.41873C49.0693 6.38267 48.8949 6.39194 48.7319 6.44557L34.6635 11.0831C34.2801 11.2095 34.0201 11.5518 34.0011 11.955C33.9822 12.3582 34.2089 12.7234 34.5787 12.8852L38.0579 14.4075L39.1076 19.2761C39.1512 19.4784 39.2539 19.6585 39.4714 19.7139C39.6913 19.7699 39.8467 19.6497 40.0109 19.5268L42.5928 17.5936L45.6111 20.0635C45.7869 20.2075 46.0018 20.2825 46.2209 20.2825C46.3271 20.2824 46.4325 20.2649 46.533 20.2308C46.8507 20.123 47.0862 19.8638 47.1629 19.5372L49.9745 7.58399C50.0137 7.4169 50.0077 7.24238 49.9571 7.07837C49.9066 6.91435 49.8133 6.76675 49.6868 6.65073ZM40.2358 15.2798C40.2341 15.2838 40.2324 15.2884 40.2308 15.2939L39.6488 17.3273L38.9993 14.3149L43.4654 11.8335L40.3429 15.0985C40.2939 15.15 40.2573 15.212 40.2358 15.2798ZM40.4205 18.0462L40.6848 17.1226L40.9377 16.2392L41.8437 16.9806L40.4205 18.0462ZM49.0597 7.3688L46.2482 19.322C46.2468 19.328 46.2449 19.3362 46.2312 19.3408C46.2176 19.3454 46.2109 19.3402 46.2063 19.3363L42.9034 16.6335L41.3729 15.381L46.2892 10.2405C46.3669 10.1592 46.4129 10.0528 46.4188 9.94054C46.4248 9.82828 46.3903 9.71761 46.3216 9.62861C46.2529 9.53961 46.1545 9.4782 46.0444 9.45552C45.9343 9.43285 45.8197 9.45041 45.7214 9.50502L38.4417 13.5497L34.9554 12.0243C34.9448 12.0197 34.9389 12.0171 34.9398 11.9991C34.9406 11.9812 34.9467 11.9792 34.9577 11.9755L49.0261 7.33802C49.033 7.3358 49.0406 7.33323 49.052 7.34355C49.0633 7.35392 49.0614 7.3618 49.0597 7.3688Z" fill="white"/>
</g>
</svg>
