<svg width="84" height="27" viewBox="0 0 84 27" fill="none" xmlns="http://www.w3.org/2000/svg">
<g opacity="0.8">
<path d="M0 8.33984C0 3.92157 3.58172 0.339844 8 0.339844H76C80.4183 0.339844 84 3.92157 84 8.33984V18.3398C84 22.7581 80.4183 26.3398 76 26.3398H8C3.58172 26.3398 0 22.7581 0 18.3398V8.33984Z" fill="#2400FF"/>
<path d="M23.4401 16.3398L21.5928 9.79439H22.868L24.0473 14.6044H24.108L25.3673 9.79439H26.5274L27.7899 14.6076H27.8474L29.0267 9.79439H30.3019L28.4546 16.3398H27.2849L25.9745 11.7472H25.9234L24.6098 16.3398H23.4401ZM31.1241 16.3398V9.79439H35.3812V10.7884H32.3098V12.5653H35.1607V13.5593H32.3098V15.3459H35.4068V16.3398H31.1241ZM36.5909 16.3398V9.79439H39.0966C39.5696 9.79439 39.9627 9.86896 40.2759 10.0181C40.5913 10.1651 40.8267 10.3665 40.9822 10.6222C41.1399 10.8778 41.2188 11.1676 41.2188 11.4915C41.2188 11.7578 41.1676 11.9858 41.0653 12.1754C40.9631 12.3629 40.8256 12.5153 40.6531 12.6325C40.4805 12.7496 40.2876 12.8338 40.0746 12.8849V12.9489C40.3068 12.9616 40.5295 13.033 40.7425 13.163C40.9577 13.2908 41.1335 13.4719 41.2699 13.7063C41.4063 13.9407 41.4744 14.2241 41.4744 14.5565C41.4744 14.8952 41.3924 15.1999 41.2283 15.4705C41.0643 15.739 40.8171 15.951 40.4869 16.1065C40.1566 16.2621 39.7411 16.3398 39.2404 16.3398H36.5909ZM37.7766 15.3491H39.0518C39.4822 15.3491 39.7923 15.267 39.9819 15.103C40.1737 14.9368 40.2695 14.7237 40.2695 14.4638C40.2695 14.2699 40.2216 14.0952 40.1257 13.9396C40.0298 13.782 39.8935 13.6584 39.7166 13.5689C39.5398 13.4773 39.3288 13.4315 39.0838 13.4315H37.7766V15.3491ZM37.7766 12.5781H38.9496C39.1541 12.5781 39.3384 12.5408 39.5025 12.4663C39.6665 12.3896 39.7955 12.282 39.8892 12.1435C39.9851 12.0028 40.033 11.8366 40.033 11.6449C40.033 11.3913 39.9435 11.1825 39.7646 11.0185C39.5877 10.8544 39.3246 10.7724 38.9751 10.7724H37.7766V12.5781ZM46.0631 11.5938C46.0333 11.3146 45.9076 11.0973 45.686 10.9418C45.4665 10.7862 45.181 10.7085 44.8295 10.7085C44.5823 10.7085 44.3703 10.7457 44.1934 10.8203C44.0166 10.8949 43.8813 10.9961 43.7876 11.1239C43.6938 11.2518 43.6459 11.3977 43.6437 11.5618C43.6437 11.6982 43.6746 11.8164 43.7364 11.9165C43.8003 12.0167 43.8866 12.1019 43.9953 12.1722C44.104 12.2404 44.2243 12.2979 44.3564 12.3448C44.4885 12.3917 44.6217 12.4311 44.7559 12.4631L45.3696 12.6165C45.6167 12.674 45.8543 12.7518 46.0823 12.8498C46.3124 12.9478 46.518 13.0714 46.6991 13.2205C46.8824 13.3697 47.0273 13.5497 47.1338 13.7607C47.2403 13.9716 47.2936 14.2187 47.2936 14.5021C47.2936 14.8857 47.1956 15.2234 46.9996 15.5153C46.8035 15.805 46.5202 16.032 46.1494 16.196C45.7808 16.358 45.3344 16.4389 44.8103 16.4389C44.301 16.4389 43.8589 16.3601 43.4839 16.2024C43.1111 16.0447 42.8192 15.8146 42.6082 15.5121C42.3994 15.2095 42.2865 14.8409 42.2694 14.4062H43.436C43.453 14.6342 43.5233 14.8239 43.6469 14.9751C43.7705 15.1264 43.9314 15.2393 44.1295 15.3139C44.3298 15.3885 44.5535 15.4258 44.8007 15.4258C45.0585 15.4258 45.2844 15.3874 45.4782 15.3107C45.6743 15.2319 45.8277 15.1232 45.9385 14.9847C46.0493 14.8441 46.1057 14.68 46.1079 14.4925C46.1057 14.3221 46.0557 14.1815 45.9577 14.0707C45.8596 13.9577 45.7222 13.864 45.5454 13.7894C45.3706 13.7127 45.1661 13.6445 44.9317 13.5849L44.1871 13.3931C43.648 13.2546 43.2219 13.0447 42.9086 12.7635C42.5976 12.4801 42.442 12.104 42.442 11.6353C42.442 11.2496 42.5464 10.9119 42.7552 10.6222C42.9662 10.3324 43.2528 10.1076 43.615 9.9478C43.9772 9.78587 44.3873 9.7049 44.8454 9.7049C45.3099 9.7049 45.7169 9.78587 46.0663 9.9478C46.4179 10.1076 46.6938 10.3303 46.8941 10.6158C47.0944 10.8991 47.1977 11.2251 47.2041 11.5938H46.0631ZM49.5364 9.79439V16.3398H48.3507V9.79439H49.5364ZM50.5328 10.7884V9.79439H55.7551V10.7884H53.732V16.3398H52.5558V10.7884H50.5328ZM56.7618 16.3398V9.79439H61.0189V10.7884H57.9475V12.5653H60.7984V13.5593H57.9475V15.3459H61.0445V16.3398H56.7618Z" fill="white"/>
<path d="M21.417 18.1296H61.5846V18.7433H21.417V18.1296Z" fill="white"/>
<a href="https://airdrop-hunter.site/">
<rect fill="black" fill-opacity="0" x="4.41699" y="7.55398" width="40.1676" height="10.892"/>
</a>
</g>
</svg>
