<svg width="84" height="27" viewBox="0 0 84 27" fill="none" xmlns="http://www.w3.org/2000/svg">
<g opacity="0.8">
<path d="M0 8.33984C0 3.92157 3.58172 0.339844 8 0.339844H76C80.4183 0.339844 84 3.92157 84 8.33984V18.3398C84 22.7581 80.4183 26.3398 76 26.3398H8C3.58172 26.3398 0 22.7581 0 18.3398V8.33984Z" fill="#2400FF"/>
<path d="M46.2178 6.60913H48.4668L43.5535 12.2248L49.3337 19.8664H44.8078L41.263 15.2318L37.207 19.8664H34.9566L40.2119 13.8599L34.667 6.60913H39.3077L42.5119 10.8454L46.2178 6.60913ZM45.4285 18.5203H46.6747L38.6306 7.88455H37.2933L45.4285 18.5203Z" fill="white"/>
</g>
</svg>
