<?xml version="1.0" encoding="UTF-8"?> <svg xmlns="http://www.w3.org/2000/svg" width="20" height="21" viewBox="0 0 20 21" fill="none"> <g clip-path="url(#clip0_91_59)"> <path d="M10 20.2266C15.5227 20.2266 20 15.7488 20 10.2266C20 4.7043 15.523 0.226562 10 0.226562C4.47695 0.226562 0 4.7043 0 10.2266C0 15.7488 4.47734 20.2266 10 20.2266Z" fill="#F0F0F0"></path> <path d="M10 0.226563C8.11912 0.225939 6.27619 0.755785 4.68283 1.75526C3.08948 2.75473 1.8103 4.18331 0.992188 5.87695H19.0074C18.1893 4.18337 16.9102 2.75483 15.3169 1.75536C13.7237 0.755893 11.8808 0.226012 10 0.226563V0.226563Z" fill="#FF9811"></path> <path d="M10.0001 20.2267C11.8809 20.2273 13.7238 19.6975 15.3172 18.6981C16.9105 17.6987 18.1897 16.2702 19.0079 14.5767H0.992676C1.81081 16.2702 3.08995 17.6986 4.68323 18.698C6.2765 19.6974 8.11932 20.2273 10.0001 20.2267V20.2267Z" fill="#6DA544"></path> <path d="M10 13.7031C10.6876 13.7031 11.3598 13.4992 11.9315 13.1172C12.5032 12.7352 12.9488 12.1922 13.2119 11.557C13.4751 10.9217 13.5439 10.2227 13.4098 9.54832C13.2756 8.87393 12.9445 8.25447 12.4583 7.76826C11.9721 7.28206 11.3526 6.95095 10.6782 6.8168C10.0039 6.68266 9.30484 6.75151 8.66958 7.01464C8.03432 7.27777 7.49135 7.72337 7.10934 8.29509C6.72733 8.86681 6.52344 9.53896 6.52344 10.2266C6.52344 11.1486 6.88972 12.0329 7.5417 12.6849C8.19368 13.3368 9.07796 13.7031 10 13.7031V13.7031Z" fill="#0052B4"></path> <path d="M10 12.3992C10.4296 12.3989 10.8494 12.2713 11.2064 12.0324C11.5634 11.7935 11.8416 11.4542 12.0058 11.0573C12.17 10.6603 12.2128 10.2236 12.1288 9.80236C12.0448 9.38109 11.8379 8.99417 11.5341 8.69052C11.2302 8.38686 10.8432 8.1801 10.4219 8.09636C10.0006 8.01263 9.56391 8.05568 9.16706 8.22008C8.77021 8.38448 8.43102 8.66284 8.19235 9.01999C7.95368 9.37713 7.82625 9.79702 7.82617 10.2266C7.82617 10.512 7.88241 10.7946 7.99167 11.0583C8.10093 11.322 8.26107 11.5615 8.46294 11.7633C8.66482 11.965 8.90447 12.1251 9.1682 12.2342C9.43194 12.3433 9.71459 12.3994 10 12.3992V12.3992Z" fill="#F0F0F0"></path> <path d="M10 7.54395L10.6708 9.06738L12.3235 8.88418L11.3415 10.2268L12.3231 11.5658L10.6704 11.3877L10.0004 12.9111L9.32974 11.3877L7.677 11.5658L8.65903 10.2268L7.67739 8.8877L9.33013 9.06582L10 7.54395Z" fill="#0052B4"></path> </g> <defs> <clipPath id="clip0_91_59"> <rect width="20" height="20" fill="white" transform="translate(0 0.226562)"></rect> </clipPath> </defs> </svg> 