<?xml version="1.0" encoding="UTF-8"?> <svg xmlns="http://www.w3.org/2000/svg" width="88" height="88" viewBox="0 0 88 88" fill="none"> <g clip-path="url(#clip0_91_120)"> <path d="M44 88C68.3005 88 88 68.3005 88 44C88 19.6995 68.3005 0 44 0C19.6995 0 0 19.6995 0 44C0 68.3005 19.6995 88 44 88Z" fill="#E30A17"></path> <path d="M67.9243 38.773L64.1256 44.0002L67.9243 49.2274L61.779 47.2269L57.9832 52.4541V46.0008L51.8379 44.0002L57.9832 42.0026V35.5493L61.779 40.7736L67.9243 38.773Z" fill="white"></path> <path d="M27.8461 44.2289C27.8459 41.3217 28.7398 38.4848 30.4066 36.1029C32.0734 33.721 34.4325 31.9094 37.1638 30.9137C39.8952 29.9181 42.8667 29.7866 45.6754 30.5371C48.484 31.2876 50.9938 32.8838 52.8645 35.1091C50.9518 31.8411 48.0361 29.2771 44.5503 27.7979C41.0646 26.3187 37.1947 26.0031 33.5154 26.898C29.836 27.793 26.5434 29.8507 24.1265 32.7656C21.7095 35.6806 20.2971 39.2973 20.0991 43.0787C19.901 46.8602 20.9277 50.6047 23.0269 53.7562C25.1261 56.9077 28.1857 59.2982 31.7514 60.5726C35.3171 61.8471 39.1987 61.9376 42.8199 60.8306C46.4412 59.7237 49.6088 57.4784 51.8525 54.4281C49.8513 56.3593 47.326 57.6588 44.5914 58.1647C41.8568 58.6706 39.0337 58.3605 36.4741 57.273C33.9144 56.1855 31.7315 54.3688 30.1972 52.0493C28.663 49.7297 27.8453 47.0099 27.8461 44.2289Z" fill="white"></path> </g> <defs> <clipPath id="clip0_91_120"> <rect width="88" height="88" fill="white"></rect> </clipPath> </defs> </svg> 