<?xml version="1.0" encoding="UTF-8"?> <svg xmlns="http://www.w3.org/2000/svg" width="88" height="88" viewBox="0 0 88 88" fill="none"> <g clip-path="url(#clip0_96_183)"> <path d="M44 88C68.3005 88 88 68.3005 88 44C88 19.6995 68.3005 0 44 0C19.6995 0 0 19.6995 0 44C0 68.3005 19.6995 88 44 88Z" fill="#F0F0F0"></path> <path d="M59.3043 44.0001C59.3043 47.8262 52.4524 57.3914 44.0001 57.3914C35.5478 57.3914 28.6958 47.8262 28.6958 44.0001C28.6958 35.5476 35.5478 28.6958 44.0001 28.6958C52.4524 28.6958 59.3043 35.5476 59.3043 44.0001Z" fill="#D80027"></path> <path d="M59.3043 44C59.3043 52.4525 52.4524 59.3043 44.0001 59.3043C35.5478 59.3043 28.6958 52.4525 28.6958 44" fill="#0052B4"></path> <path d="M60.2206 57.5281L64.2781 53.4705L66.9832 56.1756L62.9256 60.233L60.2206 57.5281ZM53.456 64.2908L57.5136 60.2334L60.2186 62.9384L56.1611 66.996L53.456 64.2908ZM68.3362 65.6426L72.3938 61.5852L75.0988 64.2903L71.0414 68.3478L68.3362 65.6426ZM61.5719 72.4066L65.6294 68.3492L68.3345 71.0541L64.277 75.1117L61.5719 72.4066ZM64.2782 61.5857L68.3357 57.5282L71.0408 60.2332L66.9832 64.2908L64.2782 61.5857ZM57.5155 68.3485L61.5731 64.291L64.2781 66.996L60.2206 71.0534L57.5155 68.3485ZM68.3543 30.4796L57.534 19.6595L60.2392 16.9544L71.0592 27.7746L68.3543 30.4796ZM57.532 27.7757L53.4745 23.7182L56.1795 21.0132L60.2369 25.0707L57.532 27.7757ZM64.2946 34.54L60.2371 30.4823L62.9421 27.7775L66.9995 31.835L64.2946 34.54ZM65.6464 19.6592L61.5887 15.6016L64.2939 12.8966L68.3512 16.9539L65.6464 19.6592ZM72.4126 26.4242L68.3551 22.3667L71.0601 19.6616L75.1177 23.7192L72.4126 26.4242ZM15.5983 61.5781L26.4185 72.3982L23.7133 75.1033L12.8933 64.2831L15.5983 61.5781ZM26.418 64.281L30.4754 68.3385L27.7704 71.0435L23.713 66.986L26.418 64.281ZM19.6547 57.5198L23.7123 61.5773L21.0072 64.2822L16.9497 60.2248L19.6547 57.5198ZM23.7128 53.461L34.5329 64.2814L31.8277 66.9864L21.0077 56.1663L23.7128 53.461ZM26.4173 15.5933L15.5972 26.4134L12.8921 23.7082L23.7123 12.8882L26.4173 15.5933ZM30.4749 19.6503L19.6547 30.4705L16.9497 27.7653L27.7698 16.9453L30.4749 19.6503ZM34.5363 23.7103L23.7161 34.5305L21.0111 31.8255L31.8313 21.0053L34.5363 23.7103Z" fill="black"></path> </g> <defs> <clipPath id="clip0_96_183"> <rect width="88" height="88" fill="white"></rect> </clipPath> </defs> </svg> 