<?xml version="1.0" encoding="UTF-8"?> <svg xmlns="http://www.w3.org/2000/svg" width="20" height="20" viewBox="0 0 20 20" fill="none"> <g clip-path="url(#clip0_91_75)"> <path d="M9.9998 19.9996C15.5224 19.9996 19.9996 15.522 19.9996 9.99981C19.9996 4.47765 15.5227 0 9.9998 0C4.47687 0 0 4.47804 0 9.99981C0 15.5216 4.47726 19.9996 9.9998 19.9996Z" fill="#F0F0F0"></path> <path fill-rule="evenodd" clip-rule="evenodd" d="M18.5219 4.77827H9.55016V2.16699H16.2164C17.1318 2.89577 17.9121 3.77962 18.5219 4.77827V4.77827ZM19.9996 9.99966H9.55563V7.38916H19.6554C19.8846 8.24038 20.0003 9.11814 19.9996 9.99966V9.99966ZM9.99976 19.9995C12.2605 20.0047 14.4554 19.2385 16.2219 17.8276H3.77801C5.54421 19.2388 7.73907 20.0049 9.99976 19.9995V19.9995ZM18.5328 15.2222H1.46673C0.968964 14.4105 0.590985 13.5311 0.344482 12.6113H19.655C19.4086 13.5311 19.0306 14.4105 18.5328 15.2222V15.2222Z" fill="#D80027"></path> <path fill-rule="evenodd" clip-rule="evenodd" d="M4.64249 1.55623H4.63351V1.56248L4.64249 1.55623ZM4.64249 1.55623H5.54677L4.69483 2.16754L5.01709 3.16753L4.16711 2.55621L3.32259 3.16753L3.60032 2.30465C2.85389 2.92939 2.20263 3.65973 1.66716 4.47258H1.96168L1.42263 4.8632L1.1781 5.29288L1.43357 6.08739L0.950373 5.73584L0.617176 6.5116L0.894905 7.38268H1.94957L1.11131 8.00024L1.43357 9.00023L0.583583 8.38891L0.0835926 8.75531C0.0277977 9.16779 -0.000129651 9.58357 4.52473e-07 9.99982H9.99981V8.42268e-06C8.10221 -0.00245955 6.24344 0.537486 4.64249 1.55623V1.55623ZM5.01514 8.99515L5.02256 9.00101H5.01709L5.01514 8.99515ZM4.69444 8.00064L5.01514 8.99515L4.16672 8.38969L3.31673 9.00101L3.63899 8.00103L2.78901 7.38971H3.84368L4.16594 6.38973L4.4882 7.38971H5.54286L4.69444 8.00064ZM4.7003 5.08975L5.02256 6.08973L4.17258 5.47842L3.32259 6.08973L3.64485 5.08975L2.79487 4.47844H3.84954L4.1718 3.47846L4.49405 4.47844H5.54872L4.7003 5.08975ZM7.76118 8.38969L8.61116 9.00101L8.2889 8.00103L9.14045 7.38971H8.08578L7.76352 6.38973L7.44126 7.38971H6.3866L7.23658 8.00103L6.91432 9.00101L7.76118 8.38969ZM8.2889 5.08975L8.61116 6.08973L7.76118 5.47842L6.9112 6.08973L7.23345 5.08975L6.38347 4.47844H7.43814L7.7604 3.47846L8.08266 4.47844H9.13732L8.2889 5.08975ZM8.61116 3.17846L8.2889 2.17848L9.14045 1.56717H8.08578L7.76352 0.567185L7.44126 1.56717H6.3866L7.23658 2.17848L6.91432 3.17846L7.7643 2.56715L8.61116 3.17846Z" fill="#0052B4"></path> </g> <defs> <clipPath id="clip0_91_75"> <rect width="20" height="20" fill="white"></rect> </clipPath> </defs> </svg> 