<?xml version="1.0" encoding="UTF-8"?> <svg xmlns="http://www.w3.org/2000/svg" width="20" height="21" viewBox="0 0 20 21" fill="none"> <g clip-path="url(#clip0_91_54)"> <path d="M10 20.7559C15.5223 20.7559 20 16.2781 20 10.7559C20 5.23359 15.5223 0.755859 10 0.755859C4.47773 0.755859 0 5.23359 0 10.7559C0 16.2781 4.47773 20.7559 10 20.7559Z" fill="#F0F0F0"></path> <path d="M19.3778 14.2323C20.2074 11.9881 20.2074 9.52112 19.3778 7.27686H0.62227C-0.207423 9.52112 -0.207423 11.9881 0.62227 14.2323L10 15.1062L19.3778 14.2323Z" fill="#0052B4"></path> <path d="M10.0001 20.7559C14.3001 20.7559 17.9665 18.0449 19.3778 14.2324H0.622314C2.03521 18.0449 5.70005 20.7559 10.0001 20.7559Z" fill="#D80027"></path> </g> <defs> <clipPath id="clip0_91_54"> <rect width="20" height="20" fill="white" transform="translate(0 0.755859)"></rect> </clipPath> </defs> </svg> 