<?xml version="1.0" encoding="UTF-8"?> <svg xmlns="http://www.w3.org/2000/svg" width="20" height="21" viewBox="0 0 20 21" fill="none"> <g clip-path="url(#clip0_91_107)"> <path d="M4.9558e-06 10.9826C-0.00117829 12.1698 0.209533 13.3477 0.622228 14.4609L10 15.3303L19.3778 14.4609C19.7905 13.3477 20.0012 12.1698 20 10.9826C20.0012 9.79533 19.7905 8.61738 19.3778 7.50421L10 6.63477L0.622228 7.50477C0.209598 8.61777 -0.00111218 9.79549 4.9558e-06 10.9826V10.9826Z" fill="#FFDA44"></path> <path fill-rule="evenodd" clip-rule="evenodd" d="M10.0001 0.982422C14.3001 0.982422 17.9651 3.69631 19.3779 7.50464H0.622314C2.03509 3.69631 5.70009 0.982422 10.0001 0.982422V0.982422ZM10.0001 20.9824C5.70009 20.9824 2.03509 18.2685 0.622314 14.4602H19.3779C17.9651 18.2685 14.3001 20.9824 10.0001 20.9824V20.9824Z" fill="#D80027"></path> </g> <defs> <clipPath id="clip0_91_107"> <rect width="20" height="20" fill="white" transform="translate(0 0.982422)"></rect> </clipPath> </defs> </svg> 