<?xml version="1.0" encoding="UTF-8"?> <svg xmlns="http://www.w3.org/2000/svg" width="20" height="21" viewBox="0 0 20 21" fill="none"> <g clip-path="url(#clip0_91_99)"> <path d="M10 20.2676C15.5227 20.2676 20 15.7898 20 10.2676C20 4.74531 15.5227 0.267578 10 0.267578C4.47734 0.267578 0 4.74531 0 10.2676C0 15.7898 4.47734 20.2676 10 20.2676Z" fill="#D80027"></path> <path fill-rule="evenodd" clip-rule="evenodd" d="M11.8054 5.80137L11.8835 4.75684V4.75098L11.2081 5.55098L10.2343 5.16231L10.7886 6.05137L10.1132 6.85137L11.1327 6.60137L11.6835 7.49043L11.7577 6.43965L12.7772 6.18965L11.8054 5.80137ZM5.47295 6.35684L6.33584 9.01309H9.12841L6.8706 10.6584L7.73388 13.3147L5.47295 11.6701L3.21201 13.3147L4.07881 10.6584L1.81787 9.01387H4.60928L5.47295 6.35684ZM13.98 10.7514L14.3198 11.7459L15.3663 11.735L14.5265 12.3568L14.8624 13.3514L14.0069 12.7404L13.1671 13.3682L13.4796 12.3682L12.6241 11.7572L13.6718 11.7404L13.98 10.7404V10.7514ZM11.7065 13.017L11.1366 13.8955L10.1257 13.6272L10.7858 14.4475L10.219 15.3252L11.1956 14.9475L11.8558 15.7584L11.7968 14.7119L12.7772 14.3342L11.7616 14.0607L11.7069 13.017H11.7065ZM13.2612 7.3666L14.0112 8.09434L14.9366 7.60567L14.4757 8.5502L15.2257 9.27793L14.1905 9.12793L13.7296 10.0654L13.5503 9.0377L12.5112 8.8877L13.4405 8.39903L13.2612 7.3666Z" fill="#FFDA44"></path> </g> <defs> <clipPath id="clip0_91_99"> <rect width="20" height="20" fill="white" transform="translate(0 0.267578)"></rect> </clipPath> </defs> </svg> 