<svg width="46" height="46" viewBox="0 0 46 46" fill="none" xmlns="http://www.w3.org/2000/svg">
<rect width="46" height="46" rx="23" fill="white"/>
<path d="M14.9289 24.4824L15.7413 18.3619L8.68457 13.4639L15.1301 15.6459L16.6544 13.3092L22.2178 9.85815L34.482 16.6131L35.1165 26.9197L29.6614 34.5104L25.3438 35.1681L27.58 31.0826V27.1441L25.9551 24.0723L24.307 22.9813L21.769 25.5966V28.3667L19.7881 30.2237L17.2734 30.5255L16.1592 31.16L14.3331 30.5797L13.5748 27.8405L14.9444 25.9138V24.4824H14.9289Z" fill="white"/>
<path d="M26.2018 13.4174C24.8554 13.1389 23.3853 13.2162 23.3853 13.2162C23.3853 13.2162 22.9055 15.4524 19.9033 16.0327C19.9343 16.0327 23.865 17.3791 26.2018 13.4174Z" fill="#DCDCDC"/>
<path d="M27.4259 33.6747C29.0508 32.4058 30.2733 30.657 30.8305 28.6762C30.8537 28.5988 31.0858 28.475 31.2328 28.3744C31.4882 28.2197 31.7435 28.0959 31.7899 27.8947C31.8905 27.3144 31.9447 26.7031 31.9447 26.0918C31.9447 25.8597 31.7126 25.6353 31.4882 25.4032C31.3102 25.2484 31.1322 25.0704 31.1322 24.9466C30.8769 22.6331 29.8091 20.4743 28.1145 18.9035L27.9366 19.0815C29.5847 20.629 30.6525 22.7337 30.8846 24.9698C30.9078 25.171 31.1168 25.3722 31.3179 25.5811C31.4959 25.7359 31.6971 25.9603 31.6971 26.0609C31.6971 26.6412 31.6429 27.2292 31.5423 27.8096C31.5191 27.9102 31.287 28.0108 31.109 28.1113C30.8537 28.2351 30.6293 28.3667 30.5751 28.5679C29.9638 30.7267 28.5711 32.6069 26.714 33.8218C27.0467 33.1099 28.0836 30.8041 28.6407 29.6357L28.5401 25.8752L25.3135 22.7491L23.4874 23.0045L21.4833 26.2543C21.4833 26.2543 22.4196 27.4459 21.1042 28.8464C19.812 30.216 18.7906 30.5255 18.7906 30.5255L17.8544 30.0148C18.1329 29.6589 18.69 29.125 19.1233 28.769C19.8584 28.1578 20.5935 28.1113 20.5935 27.4459C20.6167 26.0763 19.1466 26.4555 19.1466 26.4555L18.6127 26.9662L18.3805 28.8464L17.2663 30.2392L17.1425 30.216L15.3164 29.8136C15.3164 29.8136 16.4306 29.2333 16.6086 28.5679C16.7866 27.9334 16.2527 25.8287 16.2295 25.6972C16.2527 25.7204 16.7634 26.1537 16.9877 26.8656C17.3901 25.7514 17.924 24.6836 18.0788 24.583C18.2335 24.4824 20.284 23.3914 20.284 23.3914L19.5953 25.1942L20.106 24.9157L21.3208 21.9212C21.3208 21.9212 22.5125 21.3409 23.4023 21.3409C25.004 21.3177 27.364 19.36 26.2962 15.8549C26.5979 15.9787 31.8828 18.6249 32.7958 23.8015C33.4922 27.7864 31.2328 31.5159 27.4259 33.6747Z" fill="#DCDCDC"/>
<path d="M21.3819 13.9746C21.9622 13.2859 21.7378 12.2723 21.7378 12.2723L20.0355 14.787C20.0123 14.787 20.6468 14.8102 21.3819 13.9746Z" fill="#444444"/>
<path d="M15.6719 27.7089L15.8731 26.6953C15.8731 26.6953 15.0374 28.1655 14.9601 28.3744C14.8827 28.6065 15.0142 29.0089 15.3392 28.9857C15.6719 28.9625 16.0743 28.475 16.0743 28.119C16.0743 27.6625 15.6719 27.7089 15.6719 27.7089Z" fill="#444444"/>
<path d="M30.7521 11.5604C30.7521 11.5604 32.0211 11.6146 33.3442 11.7616C30.373 9.42483 27.5564 8.74391 25.2738 8.74391C22.1246 8.74391 19.9967 10.0361 19.8652 10.1135L20.8556 8.54273C20.8556 8.54273 16.8939 8.16359 15.5011 12.3497C15.1452 11.4598 14.8125 10.1676 14.8125 10.1676C14.8125 10.1676 12.7543 11.9705 13.7215 14.965C11.3615 14.0984 7.98011 12.9068 7.8563 12.8836C7.67834 12.8604 7.62417 12.9377 7.62417 12.9377C7.62417 12.9377 7.57001 13.0151 7.72476 13.1389C8.00332 13.371 13.3346 17.3018 14.503 18.0678C14.2476 18.9809 14.2476 19.4142 14.503 19.8475C14.8589 20.4278 14.8821 20.7373 14.8357 21.1706C14.7815 21.6039 14.325 25.3335 14.2244 25.79C14.1238 26.2465 13.056 27.8715 13.1102 28.3512C13.1644 28.8309 13.8221 30.8892 14.4024 31.1213C14.8357 31.276 15.9035 31.601 16.6076 31.601C16.863 31.601 17.0874 31.5469 17.188 31.4463C17.6213 31.0671 17.7451 30.9897 18.0546 30.9897C18.0778 30.9897 18.1087 30.9897 18.1319 30.9897C18.2557 30.9897 18.4105 31.013 18.5885 31.013C18.9908 31.013 19.5247 30.9356 19.9116 30.5796C20.4687 30.0225 21.4359 29.2565 21.7377 28.9006C22.1169 28.4208 22.318 27.7554 22.2174 27.0977C22.1401 26.4864 22.4728 25.9525 22.8519 25.4186C23.3317 24.7841 24.2215 23.639 24.2215 23.639C25.9702 24.9621 27.069 26.9662 27.069 29.2023C27.069 33.164 23.618 36.3597 19.3545 36.3597C18.6968 36.3597 18.0623 36.2823 17.4278 36.1276C19.3855 36.8162 21.0336 37.0406 22.3799 37.0406C25.2506 37.0406 26.7749 35.996 26.7749 35.996C26.7749 35.996 26.241 36.6847 25.3822 37.4662C25.4054 37.4662 25.4054 37.4662 25.4054 37.4662C30.1563 36.8085 32.4621 32.8932 32.4621 32.8932C32.4621 32.8932 32.2842 34.1622 32.0598 35.0288C38.3815 30.2779 37.3137 24.3431 37.2904 24.1342C37.3446 24.2115 37.9791 24.9698 38.3041 25.3799C39.3022 14.9418 30.7521 11.5604 30.7521 11.5604ZM21.0258 28.2661C20.9253 28.3899 20.4919 28.7768 20.1902 29.0553C19.8884 29.3339 19.5557 29.6124 19.3003 29.8678C19.1997 29.9684 18.9986 30.0225 18.6891 30.0225C18.5885 30.0225 18.4879 30.0225 18.4105 30.0225C18.3563 30.0225 18.3099 30.0225 18.2557 30.0225C18.2016 30.0225 18.1784 30.0225 18.1552 30.0225C18.0778 30.0225 18.0004 30.0225 17.923 30.0225C18.3022 29.5119 19.4241 28.3435 19.8033 28.0959C20.2598 27.7941 20.4919 27.4846 20.2056 26.9507C19.9271 26.4168 19.192 26.5406 19.192 26.5406C19.192 26.5406 19.6253 26.3626 20.0045 26.3626C19.5247 26.2388 18.9135 26.3626 18.6349 26.6412C18.3331 26.9197 18.3796 27.9102 18.2557 28.5446C18.1319 29.2023 17.6986 29.5351 17.0332 30.1463C16.6773 30.4791 16.4219 30.5796 16.2207 30.5796C15.7874 30.5023 15.2845 30.3785 14.9285 30.2469C14.6732 29.9142 14.2941 28.8232 14.1935 28.3667C14.2708 28.1113 14.5726 27.5774 14.7274 27.2757C15.0291 26.6953 15.2071 26.3626 15.2613 26.0531C15.3619 25.6198 15.6946 22.958 15.8184 21.8361C16.1511 22.2694 16.6076 22.9812 16.507 23.4378C17.2421 22.3932 16.7082 21.3795 16.4529 20.9772C16.2207 20.5748 15.919 19.7546 16.1743 18.8958C16.4297 18.0291 17.3427 15.6459 17.3427 15.6459C17.3427 15.6459 17.6445 16.1798 18.0778 16.0792C18.5111 15.9786 21.9853 10.748 21.9853 10.748C21.9853 10.748 22.9216 12.8062 21.9311 14.2996C20.9175 15.8007 19.9271 16.0792 19.9271 16.0792C19.9271 16.0792 21.3199 16.3346 22.6198 15.3906C23.1537 16.6363 23.6644 17.9285 23.6876 18.1065C23.6102 18.2845 22.5966 20.7218 22.496 20.8766C22.4418 20.9308 22.0936 21.0314 21.8383 21.0778C21.405 21.2016 21.1496 21.279 21.0491 21.3563C20.8711 21.5111 20.0586 23.7395 19.6795 24.8383C19.223 24.9621 18.7664 25.2174 18.4337 25.7281C18.6117 25.6043 19.1688 25.5269 19.5789 25.4728C19.9348 25.4496 21.0258 26.0299 21.3044 27.1209C21.3044 27.1441 21.3044 27.1441 21.3044 27.1751C21.3586 27.5852 21.227 27.9643 21.0258 28.2661ZM18.6426 28.5756C18.8748 28.2429 18.8438 27.6858 18.8748 27.5078C18.9057 27.3298 18.9521 26.9971 19.1533 26.9507C19.3545 26.8965 19.842 26.9739 19.842 27.3298C19.842 27.6625 19.486 27.7322 19.2307 27.9643C19.045 28.1423 18.6891 28.5214 18.6426 28.5756ZM28.7713 23.7241C29.0266 22.4319 29.0498 21.3099 28.9724 20.3969C29.9629 21.72 30.5741 23.314 30.7521 24.9698C30.7753 25.171 30.9842 25.3722 31.1854 25.5811C31.3634 25.7359 31.5646 25.937 31.5646 26.0608C31.5646 26.6412 31.5104 27.2292 31.4098 27.8096C31.3866 27.8869 31.1545 28.0107 30.9765 28.1113C30.7212 28.2351 30.4968 28.3667 30.4426 28.5679C29.8855 30.5255 28.6939 32.251 27.0922 33.4658C29.4522 31.013 30.5974 26.9507 28.7713 23.7241ZM27.1696 33.7057C28.8177 32.4367 30.0867 30.657 30.6515 28.653C30.6747 28.5756 30.9069 28.4518 31.0539 28.3512C31.3092 28.2274 31.5646 28.0726 31.611 27.8715C31.7116 27.2911 31.7657 26.6799 31.7657 26.0686C31.7657 25.8365 31.5336 25.6121 31.3092 25.3799C31.1854 25.2252 30.9765 25.0472 30.9765 24.9234C30.7753 23.0664 30.0402 21.3176 28.8951 19.8707C28.3844 16.8221 26.3571 15.8858 26.3029 15.8626C26.3571 15.94 27.6725 17.8434 26.7595 20.0796C25.8232 22.339 23.409 21.9831 23.2079 22.0063C23.0067 22.0063 22.2174 23.0199 21.227 24.9002C21.1032 24.846 20.5693 24.7222 19.958 24.8228C20.4146 23.5538 21.1032 21.751 21.227 21.5962C21.2812 21.542 21.6603 21.4414 21.9157 21.3641C22.3954 21.2403 22.6275 21.1629 22.7049 21.0623C22.7591 20.9849 23.0067 20.4046 23.262 19.7933C23.4942 19.7933 24.0745 19.7392 24.1287 19.7159C24.1828 19.6618 24.6626 18.4238 24.6626 18.269C24.6626 18.1452 23.6721 15.6769 23.293 14.7406C23.4709 14.5394 23.6489 14.2841 23.8269 14.0055C29.0343 14.5626 33.0966 18.9809 33.0966 24.3353C33.0889 28.4441 30.6747 32.0266 27.1696 33.7057Z" fill="#444444"/>
<path d="M20.4151 19.9944C20.8949 19.4373 20.6473 18.3927 19.7574 18.2147C19.9896 17.6808 20.3145 16.613 20.3145 16.613C20.3145 16.613 17.7224 20.6753 17.498 20.7527C17.2659 20.8301 17.0415 19.9402 17.0415 19.9402C16.5618 21.7973 17.854 22.0449 18.0087 21.4646C18.7128 21.2866 19.9354 20.5283 20.4151 19.9944Z" fill="#444444"/>
<path d="M18.2095 20.9848L19.5326 18.7254C19.5326 18.7254 20.2909 19.1045 19.9118 19.7158C19.4243 20.42 18.2095 20.9848 18.2095 20.9848Z" fill="#848484"/>
<path d="M34.5358 31.4461C34.1566 31.9568 33.7233 32.4907 33.2126 32.9936C36.4857 26.6951 33.3674 20.9306 33.2359 20.7062C33.468 20.9383 33.6924 21.1859 33.8936 21.418C36.4083 24.2036 36.7178 28.3974 34.5358 31.4461Z" fill="#686868"/>
<path d="M37.5771 23.3447C36.4319 20.2728 34.807 17.6575 31.2322 15.2975C27.7812 13.0149 24.0748 13.1929 23.8659 13.2161C23.8427 13.2161 23.8118 13.2161 23.8118 13.2161C23.9356 13.1619 24.0671 13.1387 24.1909 13.1155C24.9802 12.8601 25.9938 12.659 27.0074 12.5352C29.7001 12.156 32.4161 13.0691 34.2654 15.0267C34.2886 15.0499 34.2886 15.0499 34.3195 15.0809C36.4397 17.3016 37.5307 20.0949 37.5771 23.3447Z" fill="#686868"/>
<path d="M30.4191 10.7788C26.6354 10.0669 24.198 10.4228 22.4493 11.0805C22.3952 10.8793 22.2172 10.4692 22.0702 10.1443C21.5363 10.7788 20.9792 11.537 20.6232 12.0245C19.656 12.6822 19.2537 13.3167 19.2537 13.3167C19.8108 11.4132 21.4357 9.98951 23.4165 9.63357C23.9736 9.53298 24.5849 9.47882 25.2426 9.47882C26.9913 9.50977 28.7401 9.93534 30.4191 10.7788Z" fill="#686868"/>
<path d="M16.4294 15.6537C13.4581 15.5531 14.4486 12.1021 14.5027 11.8932C14.5027 11.9164 14.7039 14.6091 16.4294 15.6537Z" fill="#686868"/>
<path d="M19.3468 9.43268C17.0641 10.8022 17.5207 14.0753 17.5207 14.0753C15.3386 10.7481 19.1688 9.51006 19.3468 9.43268Z" fill="#686868"/>
<path d="M15.5942 16.5667C15.749 16.6905 15.896 16.9226 15.7181 17.2553C15.6175 17.4333 15.4627 17.4101 15.2383 17.3095C14.9365 17.1547 13.1027 16.0869 11.4546 14.9959C13.3348 15.6536 15.2383 16.3655 15.5401 16.5202C15.5401 16.5125 15.571 16.5357 15.5942 16.5667Z" fill="white"/>
</svg>
