<svg width="47" height="46" viewBox="0 0 47 46" fill="none" xmlns="http://www.w3.org/2000/svg">
<g clip-path="url(#clip0_1968_8618)">
<rect x="0.5" width="46" height="46" rx="23" fill="white"/>
<g clip-path="url(#clip1_1968_8618)">
<path d="M23.5 46C36.2025 46 46.5 35.7025 46.5 23C46.5 10.2975 36.2025 0 23.5 0C10.7975 0 0.5 10.2975 0.5 23C0.5 35.7025 10.7975 46 23.5 46Z" fill="white"/>
<path d="M18.1328 28.2828H19.5367L20.772 31.9328C20.7994 32.0126 20.8219 32.0925 20.8394 32.1724C20.8569 32.2497 20.8743 32.3321 20.8917 32.4194H20.9255C20.9404 32.3321 20.9579 32.2485 20.9779 32.1686C20.9978 32.0887 21.0203 32.0101 21.0452 31.9328L22.2993 28.2828H23.4598L21.5207 33.7446H20.0795L18.1328 28.2828Z" fill="#989898"/>
<path d="M24.0844 33.7334V32.9772L26.1471 30.8546C26.3518 30.64 26.504 30.4429 26.6038 30.2631C26.7036 30.081 26.7535 29.8963 26.7535 29.7092C26.7535 29.5195 26.6974 29.3722 26.5851 29.2674C26.4753 29.1601 26.3193 29.1064 26.1172 29.1064C25.91 29.104 25.744 29.1738 25.6193 29.3161C25.497 29.4583 25.4271 29.6767 25.4096 29.9712V30.0498H24.0732V29.9599C24.0732 29.4184 24.2616 28.9854 24.6385 28.661C25.0179 28.3341 25.512 28.1705 26.1209 28.1705C26.7598 28.1705 27.2477 28.3103 27.5846 28.5898C27.924 28.8694 28.0937 29.2287 28.0937 29.668C28.0937 30.0098 28.0076 30.318 27.8354 30.5926C27.6657 30.8646 27.4336 31.1491 27.1391 31.4461L25.8401 32.7601H28.2135V33.7334H24.0844Z" fill="#989898"/>
<path d="M19.151 16.7845C20.0003 15.9766 21.5238 14.8229 23.5002 14.8229C25.4766 14.8229 27.0001 15.9766 27.8494 16.7845C27.9759 16.9049 28.1721 16.9051 28.2948 16.7806L29.628 15.4297C29.7539 15.302 29.7551 15.093 29.626 14.9687C28.6101 13.9903 26.4681 12.2667 23.5002 12.2667C20.5323 12.2667 18.3903 13.9903 17.3745 14.9687C17.2454 15.093 17.2465 15.302 17.3725 15.4297L18.7056 16.7806C18.8285 16.9051 19.0245 16.9049 19.151 16.7845Z" fill="#989898"/>
<path d="M13.6181 18.9308C13.4976 19.064 13.5064 19.2733 13.6377 19.3951L19.0788 24.4496C19.198 24.5604 19.3788 24.5613 19.499 24.4516L23.2908 20.9933C23.4103 20.8844 23.5895 20.8844 23.7089 20.9933L27.5007 24.4516C27.6209 24.5613 27.8017 24.5604 27.9209 24.4496L33.362 19.3951C33.4933 19.2733 33.5021 19.064 33.3817 18.9308L32.108 17.5228C31.9906 17.3929 31.794 17.3841 31.6661 17.503L27.9054 20.9964C27.7862 21.1072 27.6054 21.1081 27.4852 20.9984L23.7089 17.5543C23.5895 17.4454 23.4103 17.4454 23.2908 17.5543L19.5146 20.9984C19.3944 21.1081 19.2136 21.1072 19.0944 20.9964L15.3336 17.503C15.2058 17.3841 15.0092 17.3929 14.8917 17.5228L13.6181 18.9308Z" fill="#989898"/>
</g>
</g>
<defs>
<clipPath id="clip0_1968_8618">
<rect x="0.5" width="46" height="46" rx="23" fill="white"/>
</clipPath>
<clipPath id="clip1_1968_8618">
<rect width="46" height="46" fill="white" transform="translate(0.5)"/>
</clipPath>
</defs>
</svg>
