<svg width="60" height="46" viewBox="0 0 60 46" fill="none" xmlns="http://www.w3.org/2000/svg">
<path d="M6.624 17.5845L7.272 20.9684H9.14402L5.928 4.16846H3.216L0 20.9684H1.728L2.376 17.5845H6.624ZM4.464 6.28046L6.36 15.9764H2.616L4.464 6.28046Z" fill="black"/>
<path d="M10.6055 4.16846V20.9684H12.4775V4.16846H10.6055Z" fill="black"/>
<path d="M14.4023 4.16846V20.9684H16.2744V13.7924H17.5944C19.1543 13.7924 20.0424 14.3924 20.0424 16.2884V18.9284C20.0424 20.0565 20.1384 20.4885 20.3544 20.9684H22.2504C21.9384 20.3924 21.9144 19.6965 21.9144 18.9525V16.3364C21.9144 14.5364 21.3384 13.2884 19.8024 12.8324C21.2424 12.3764 21.8904 11.2244 21.8904 9.37641V8.0084C21.8904 5.51242 20.7864 4.16846 18.1464 4.16846H14.4023ZM16.2744 12.0885V5.87244H18.0983C19.4904 5.87244 20.0424 6.66444 20.0424 8.17647V9.78443C20.0424 11.6085 19.1543 12.0885 17.6664 12.0885H16.2744Z" fill="black"/>
<path d="M23.8477 4.16846V20.9684H27.7837C30.3996 20.9684 31.5997 19.3844 31.5997 16.8164V8.34445C31.5997 5.75246 30.3996 4.16846 27.7837 4.16846H23.8477ZM25.7197 19.2645V5.87244H27.7357C29.1037 5.87244 29.7517 6.71244 29.7517 8.24844V16.8885C29.7517 18.4245 29.1037 19.2645 27.7596 19.2645H25.7197Z" fill="black"/>
<path d="M33.3633 4.16846V20.9684H35.2353V13.7924H36.5553C38.1153 13.7924 39.0033 14.3924 39.0033 16.2884V18.9284C39.0033 20.0565 39.0993 20.4885 39.3153 20.9684H41.2113C40.8993 20.3924 40.8753 19.6965 40.8753 18.9525V16.3364C40.8753 14.5364 40.2993 13.2884 38.7633 12.8324C40.2033 12.3764 40.8513 11.2244 40.8513 9.37641V8.0084C40.8513 5.51242 39.7473 4.16846 37.1073 4.16846H33.3633ZM35.2353 12.0885V5.87244H37.0593C38.4513 5.87244 39.0033 6.66444 39.0033 8.17647V9.78443C39.0033 11.6085 38.1153 12.0885 36.6273 12.0885H35.2353Z" fill="black"/>
<path d="M42.6641 16.912C42.6641 19.456 43.9361 21.136 46.504 21.136C49.096 21.136 50.3681 19.456 50.3681 16.912V8.224C50.3681 5.65605 49.096 4 46.504 4C43.9361 4 42.6641 5.65605 42.6641 8.224V16.912ZM44.5121 8.12806C44.5121 6.61604 45.16 5.70406 46.504 5.70406C47.872 5.70406 48.496 6.61604 48.496 8.12806V17.008C48.496 18.544 47.872 19.4321 46.504 19.4321C45.16 19.4321 44.5121 18.544 44.5121 17.008V8.12806Z" fill="black"/>
<path d="M52.1367 4.16846V20.9684H54.0087V14.3444H55.6647C58.3287 14.3444 59.5767 12.9524 59.5767 10.2885V8.2724C59.5767 5.72841 58.4487 4.16846 55.8087 4.16846H52.1367ZM54.0087 12.6645V5.87244H55.8087C57.1767 5.87244 57.7287 6.64039 57.7287 8.17647V10.4084C57.7287 12.0164 57.0567 12.6645 55.6647 12.6645H54.0087Z" fill="black"/>
<path d="M3.12047 34.0175H6.12047V41.2175H8.80851V24.4175H6.12047V31.6175H3.12047V24.4175H0.480469V41.2175H3.12047V34.0175Z" fill="black"/>
<path d="M11.2012 24.4175V37.2095C11.2012 39.8975 12.5451 41.4335 15.1372 41.4335C17.7292 41.4335 19.0732 39.8975 19.0732 37.2095V24.4175H16.5772V37.3774C16.5772 38.5775 16.0492 39.0094 15.2092 39.0094C14.3692 39.0094 13.8412 38.5775 13.8412 37.3774V24.4175H11.2012Z" fill="black"/>
<path d="M27.1249 41.2175H29.8369V24.4175H27.4849V34.4734L24.7729 24.4175H21.4609V41.2175H23.8369V29.0494L27.1249 41.2175Z" fill="black"/>
<path d="M31.5586 26.8174H34.3186V41.2175H36.9586V26.8174H39.7186V24.4175H31.5586V26.8174Z" fill="black"/>
<path d="M44.1205 26.8174H48.6804V24.4175H41.4805V41.2175H48.6804V38.8174H44.1205V33.8974H47.7445V31.4975H44.1205V26.8174Z" fill="black"/>
<path d="M59.1259 41.2175C58.8619 40.5935 58.838 39.9935 58.838 39.1774V36.5854C58.838 34.8335 58.4059 33.5615 57.0859 33.0094C58.262 32.4575 58.8139 31.3295 58.8139 29.6015V28.2815C58.8139 25.6895 57.6379 24.4175 54.9019 24.4175H50.918V41.2175H53.558V34.3774H54.4699C55.67 34.3774 56.198 34.9534 56.198 36.5135V39.1535C56.198 40.5215 56.2939 40.7855 56.4379 41.2175H59.1259ZM54.83 26.8174C55.7659 26.8174 56.1739 27.3454 56.1739 28.5455V30.2014C56.1739 31.5455 55.574 31.9775 54.5899 31.9775H53.558V26.8174H54.83Z" fill="black"/>
</svg>
