<svg width="46" height="46" viewBox="0 0 46 46" fill="none" xmlns="http://www.w3.org/2000/svg">
<rect width="46" height="46" rx="23" fill="white"/>
<path d="M15.7505 17.9448H6.15119C6.09199 17.9448 6.03521 17.9683 5.99337 18.0102C5.95148 18.0521 5.92798 18.1088 5.92798 18.1681V27.7674C5.92798 27.8266 5.95148 27.8834 5.99337 27.9252C6.03521 27.9671 6.09199 27.9906 6.15119 27.9906H15.7505C15.8098 27.9906 15.8665 27.9671 15.9084 27.9252C15.9503 27.8834 15.9738 27.8266 15.9738 27.7674V18.1681C15.9738 18.1088 15.9503 18.0521 15.9084 18.0102C15.8665 17.9683 15.8098 17.9448 15.7505 17.9448ZM12.6252 24.4188C12.6252 24.478 12.6017 24.5348 12.5598 24.5767C12.5179 24.6185 12.4612 24.642 12.402 24.642H9.49981C9.44061 24.642 9.38383 24.6185 9.34194 24.5767C9.3001 24.5348 9.27659 24.478 9.27659 24.4188V21.5166C9.27659 21.4574 9.3001 21.4007 9.34194 21.3588C9.38383 21.3169 9.44061 21.2934 9.49981 21.2934H12.402C12.4612 21.2934 12.5179 21.3169 12.5598 21.3588C12.6017 21.4007 12.6252 21.4574 12.6252 21.5166V24.4188Z" fill="black"/>
<path d="M27.4708 24.6422H24.5687C24.4454 24.6422 24.3455 24.7421 24.3455 24.8654V27.7676C24.3455 27.8909 24.4454 27.9908 24.5687 27.9908H27.4708C27.5941 27.9908 27.6941 27.8909 27.6941 27.7676V24.8654C27.6941 24.7421 27.5941 24.6422 27.4708 24.6422Z" fill="black"/>
<path d="M35.8478 21.2938H32.9457C32.8224 21.2938 32.7224 21.3937 32.7224 21.517V24.4191C32.7224 24.5424 32.8224 24.6424 32.9457 24.6424H35.8478C35.9711 24.6424 36.071 24.5424 36.071 24.4191V21.517C36.071 21.3937 35.9711 21.2938 35.8478 21.2938Z" fill="black"/>
<path d="M32.4977 17.9451H29.5956C29.4723 17.9451 29.3723 18.0451 29.3723 18.1684V21.0705C29.3723 21.1938 29.4723 21.2937 29.5956 21.2937H32.4977C32.621 21.2937 32.7209 21.1938 32.7209 21.0705V18.1684C32.7209 18.0451 32.621 17.9451 32.4977 17.9451Z" fill="black"/>
<path d="M39.195 17.9451H36.2928C36.1695 17.9451 36.0696 18.0451 36.0696 18.1684V21.0705C36.0696 21.1938 36.1695 21.2937 36.2928 21.2937H39.195C39.3183 21.2937 39.4182 21.1938 39.4182 21.0705V18.1684C39.4182 18.0451 39.3183 17.9451 39.195 17.9451Z" fill="black"/>
<path d="M32.4977 24.6422H29.5956C29.4723 24.6422 29.3723 24.7421 29.3723 24.8654V27.7676C29.3723 27.8909 29.4723 27.9908 29.5956 27.9908H32.4977C32.621 27.9908 32.7209 27.8909 32.7209 27.7676V24.8654C32.7209 24.7421 32.621 24.6422 32.4977 24.6422Z" fill="black"/>
<path d="M39.195 24.6422H36.2928C36.1695 24.6422 36.0696 24.7421 36.0696 24.8654V27.7676C36.0696 27.8909 36.1695 27.9908 36.2928 27.9908H39.195C39.3183 27.9908 39.4182 27.8909 39.4182 27.7676V24.8654C39.4182 24.7421 39.3183 24.6422 39.195 24.6422Z" fill="black"/>
<path d="M27.5016 17.9448H24.5995C24.4762 17.9448 24.3762 18.0447 24.3762 18.1681V21.0702C24.3762 21.1935 24.4762 21.2934 24.5995 21.2934H27.5016C27.6249 21.2934 27.7248 21.1935 27.7248 21.0702V18.1681C27.7248 18.0447 27.6249 17.9448 27.5016 17.9448Z" fill="black"/>
<path d="M23.5388 21.5141C23.5388 21.4549 23.5152 21.3982 23.4734 21.3563C23.4315 21.3144 23.3747 21.2909 23.3155 21.2909H20.1902V18.1681C20.1902 18.1088 20.1666 18.0521 20.1248 18.0102C20.0829 17.9683 20.0261 17.9448 19.9669 17.9448H17.0648C17.0056 17.9448 16.9488 17.9683 16.9069 18.0102C16.8651 18.0521 16.8416 18.1088 16.8416 18.1681V27.7624C16.8416 27.8216 16.8651 27.8784 16.9069 27.9202C16.9488 27.9621 17.0056 27.9856 17.0648 27.9856H19.9669C20.0261 27.9856 20.0829 27.9621 20.1248 27.9202C20.1666 27.8784 20.1902 27.8216 20.1902 27.7624V24.6395H23.3155C23.3747 24.6395 23.4315 24.616 23.4734 24.5742C23.5152 24.5323 23.5388 24.4755 23.5388 24.4163V21.5141Z" fill="black"/>
</svg>
