<svg width="46" height="46" viewBox="0 0 46 46" fill="none" xmlns="http://www.w3.org/2000/svg">
<g clip-path="url(#clip0_1968_8670)">
<rect width="46" height="46" rx="23" fill="white"/>
<g clip-path="url(#clip1_1968_8670)">
<path d="M23 46C35.7025 46 46 35.7025 46 23C46 10.2975 35.7025 0 23 0C10.2975 0 0 10.2975 0 23C0 35.7025 10.2975 46 23 46Z" fill="#D9ECFF"/>
<path d="M17.6328 28.2828H19.0367L20.272 31.9328C20.2994 32.0126 20.3219 32.0925 20.3394 32.1724C20.3569 32.2497 20.3743 32.3321 20.3917 32.4194H20.4255C20.4404 32.3321 20.4579 32.2485 20.4779 32.1686C20.4978 32.0887 20.5203 32.0101 20.5452 31.9328L21.7993 28.2828H22.9598L21.0207 33.7446H19.5795L17.6328 28.2828Z" fill="#278FFC"/>
<path d="M23.5844 33.7334V32.9772L25.6471 30.8546C25.8518 30.64 26.004 30.4429 26.1038 30.2631C26.2036 30.081 26.2535 29.8963 26.2535 29.7092C26.2535 29.5195 26.1974 29.3722 26.0851 29.2674C25.9753 29.1601 25.8193 29.1064 25.6172 29.1064C25.41 29.104 25.244 29.1738 25.1193 29.3161C24.997 29.4583 24.9271 29.6767 24.9096 29.9712V30.0498H23.5732V29.9599C23.5732 29.4184 23.7616 28.9854 24.1385 28.661C24.5179 28.3341 25.012 28.1705 25.6209 28.1705C26.2598 28.1705 26.7477 28.3103 27.0846 28.5898C27.424 28.8694 27.5937 29.2287 27.5937 29.668C27.5937 30.0098 27.5076 30.318 27.3354 30.5926C27.1657 30.8646 26.9336 31.1491 26.6391 31.4461L25.3401 32.7601H27.7135V33.7334H23.5844Z" fill="#278FFC"/>
<path d="M18.651 16.7845C19.5003 15.9766 21.0238 14.8229 23.0002 14.8229C24.9766 14.8229 26.5001 15.9766 27.3494 16.7845C27.4759 16.9049 27.6721 16.9051 27.7948 16.7806L29.128 15.4297C29.2539 15.302 29.2551 15.093 29.126 14.9687C28.1101 13.9903 25.9681 12.2667 23.0002 12.2667C20.0323 12.2667 17.8903 13.9903 16.8745 14.9687C16.7454 15.093 16.7465 15.302 16.8725 15.4297L18.2056 16.7806C18.3285 16.9051 18.5245 16.9049 18.651 16.7845Z" fill="#278FFC"/>
<path d="M13.1181 18.9308C12.9976 19.064 13.0064 19.2733 13.1377 19.3951L18.5788 24.4496C18.698 24.5604 18.8788 24.5613 18.999 24.4516L22.7908 20.9933C22.9103 20.8844 23.0895 20.8844 23.2089 20.9933L27.0007 24.4516C27.1209 24.5613 27.3017 24.5604 27.4209 24.4496L32.862 19.3951C32.9933 19.2733 33.0021 19.064 32.8817 18.9308L31.608 17.5228C31.4906 17.3929 31.294 17.3841 31.1661 17.503L27.4054 20.9964C27.2862 21.1072 27.1054 21.1081 26.9852 20.9984L23.2089 17.5543C23.0895 17.4454 22.9103 17.4454 22.7908 17.5543L19.0146 20.9984C18.8944 21.1081 18.7136 21.1072 18.5944 20.9964L14.8336 17.503C14.7058 17.3841 14.5092 17.3929 14.3917 17.5228L13.1181 18.9308Z" fill="#278FFC"/>
</g>
</g>
<defs>
<clipPath id="clip0_1968_8670">
<rect width="46" height="46" rx="23" fill="white"/>
</clipPath>
<clipPath id="clip1_1968_8670">
<rect width="46" height="46" fill="white"/>
</clipPath>
</defs>
</svg>
