<svg width="46" height="46" viewBox="0 0 46 46" fill="none" xmlns="http://www.w3.org/2000/svg">
<rect width="46" height="46" rx="23" fill="white"/>
<path d="M34.0204 11L24.1462 18.3255L25.9801 14.0036L34.0204 11Z" fill="#E17726" stroke="#E17726" stroke-width="0.0976476" stroke-linecap="round" stroke-linejoin="round"/>
<path d="M11.2488 11L21.0331 18.3949L19.2891 14.0036L11.2488 11Z" fill="#E27625" stroke="#E27625" stroke-width="0.0976476" stroke-linecap="round" stroke-linejoin="round"/>
<path d="M30.4707 27.9818L27.844 32.0068L33.4646 33.5526L35.0709 28.0707L30.4707 27.9818Z" fill="#E27625" stroke="#E27625" stroke-width="0.0976476" stroke-linecap="round" stroke-linejoin="round"/>
<path d="M10.208 28.0707L11.8045 33.5526L17.4251 32.0068L14.8082 27.9818L10.208 28.0707Z" fill="#E27625" stroke="#E27625" stroke-width="0.0976476" stroke-linecap="round" stroke-linejoin="round"/>
<path d="M17.1175 21.1807L15.5513 23.5506L21.123 23.7987L20.9346 17.8002L17.1175 21.1807Z" fill="#E27625" stroke="#E27625" stroke-width="0.0976476" stroke-linecap="round" stroke-linejoin="round"/>
<path d="M28.1517 21.1807L24.2751 17.7308L24.1462 23.7987L29.718 23.5506L28.1517 21.1807Z" fill="#E27625" stroke="#E27625" stroke-width="0.0976476" stroke-linecap="round" stroke-linejoin="round"/>
<path d="M17.4253 32.007L20.7863 30.3704L17.8911 28.1108L17.4253 32.007Z" fill="#E27625" stroke="#E27625" stroke-width="0.0976476" stroke-linecap="round" stroke-linejoin="round"/>
<path d="M24.4829 30.3704L27.8439 32.007L27.3782 28.1108L24.4829 30.3704Z" fill="#E27625" stroke="#E27625" stroke-width="0.0976476" stroke-linecap="round" stroke-linejoin="round"/>
<path d="M27.8439 32.0069L24.4829 30.3704L24.7505 32.5616L24.7212 33.4834L27.8439 32.0069Z" fill="#D5BFB2" stroke="#D5BFB2" stroke-width="0.0976476" stroke-linecap="round" stroke-linejoin="round"/>
<path d="M17.4253 32.0069L20.5481 33.4834L20.5285 32.5616L20.7863 30.3704L17.4253 32.0069Z" fill="#D5BFB2" stroke="#D5BFB2" stroke-width="0.0976476" stroke-linecap="round" stroke-linejoin="round"/>
<path d="M20.6074 26.6627L17.8118 25.8405L19.7842 24.9382L20.6074 26.6627Z" fill="#233447" stroke="#233447" stroke-width="0.0976476" stroke-linecap="round" stroke-linejoin="round"/>
<path d="M24.6616 26.6627L25.4848 24.9382L27.467 25.8405L24.6616 26.6627Z" fill="#233447" stroke="#233447" stroke-width="0.0976476" stroke-linecap="round" stroke-linejoin="round"/>
<path d="M17.4251 32.0068L17.9104 27.9818L14.8081 28.0707L17.4251 32.0068Z" fill="#CC6228" stroke="#CC6228" stroke-width="0.0976476" stroke-linecap="round" stroke-linejoin="round"/>
<path d="M27.3589 27.9818L27.8442 32.0068L30.4709 28.0707L27.3589 27.9818Z" fill="#CC6228" stroke="#CC6228" stroke-width="0.0976476" stroke-linecap="round" stroke-linejoin="round"/>
<path d="M29.718 23.5507L24.1462 23.7987L24.6618 26.6627L25.485 24.9382L27.4672 25.8405L29.718 23.5507Z" fill="#CC6228" stroke="#CC6228" stroke-width="0.0976476" stroke-linecap="round" stroke-linejoin="round"/>
<path d="M17.8118 25.8405L19.7843 24.9382L20.6075 26.6627L21.123 23.7987L15.5513 23.5507L17.8118 25.8405Z" fill="#CC6228" stroke="#CC6228" stroke-width="0.0976476" stroke-linecap="round" stroke-linejoin="round"/>
<path d="M15.5513 23.5507L17.8909 28.1108L17.8118 25.8405L15.5513 23.5507Z" fill="#E27525" stroke="#E27525" stroke-width="0.0976476" stroke-linecap="round" stroke-linejoin="round"/>
<path d="M27.467 25.8405L27.3782 28.1108L29.7178 23.5507L27.467 25.8405Z" fill="#E27525" stroke="#E27525" stroke-width="0.0976476" stroke-linecap="round" stroke-linejoin="round"/>
<path d="M21.1232 23.7987L20.6077 26.6627L21.2619 30.0433L21.4006 25.5925L21.1232 23.7987Z" fill="#E27525" stroke="#E27525" stroke-width="0.0976476" stroke-linecap="round" stroke-linejoin="round"/>
<path d="M24.1462 23.7987L23.8787 25.5827L24.0076 30.0433L24.6618 26.6627L24.1462 23.7987Z" fill="#E27525" stroke="#E27525" stroke-width="0.0976476" stroke-linecap="round" stroke-linejoin="round"/>
<path d="M24.6621 26.6626L24.0078 30.0432L24.4834 30.3703L27.3786 28.1108L27.4675 25.8405L24.6621 26.6626Z" fill="#F5841F" stroke="#F5841F" stroke-width="0.0976476" stroke-linecap="round" stroke-linejoin="round"/>
<path d="M17.8118 25.8405L17.8909 28.1108L20.7861 30.3703L21.2617 30.0432L20.6074 26.6626L17.8118 25.8405Z" fill="#F5841F" stroke="#F5841F" stroke-width="0.0976476" stroke-linecap="round" stroke-linejoin="round"/>
<path d="M24.7215 33.4834L24.7508 32.5616L24.5038 32.3438H20.7658L20.5285 32.5616L20.5481 33.4834L17.4253 32.007L18.516 32.8985L20.7365 34.4355H24.5331L26.7536 32.8985L27.8443 32.007L24.7215 33.4834Z" fill="#C0AC9D" stroke="#C0AC9D" stroke-width="0.0976476" stroke-linecap="round" stroke-linejoin="round"/>
<path d="M24.4833 30.3703L24.0078 30.0432H21.2619L20.7864 30.3703L20.5286 32.5615L20.7659 32.3438H24.5038L24.7509 32.5615L24.4833 30.3703Z" fill="#161616" stroke="#161616" stroke-width="0.0976476" stroke-linecap="round" stroke-linejoin="round"/>
<path d="M34.4361 18.802L35.2691 14.7575L34.0202 11L24.4829 18.0785L28.1515 21.1807L33.3356 22.6982L34.4762 21.3594L33.9801 21.003L34.773 20.2785L34.1686 19.8029L34.9615 19.1985L34.4361 18.802Z" fill="#763E1A" stroke="#763E1A" stroke-width="0.0976476" stroke-linecap="round" stroke-linejoin="round"/>
<path d="M10 14.7575L10.8427 18.802L10.3076 19.1985L11.1005 19.8029L10.4961 20.2785L11.2889 21.003L10.7929 21.3594L11.9334 22.6982L17.1175 21.1807L20.7862 18.0785L11.2489 11L10 14.7575Z" fill="#763E1A" stroke="#763E1A" stroke-width="0.0976476" stroke-linecap="round" stroke-linejoin="round"/>
<path d="M33.3357 22.6981L28.1515 21.1807L29.7178 23.5506L27.3782 28.1107L30.4707 28.0707H35.0709L33.3357 22.6981Z" fill="#F5841F" stroke="#F5841F" stroke-width="0.0976476" stroke-linecap="round" stroke-linejoin="round"/>
<path d="M17.1176 21.1807L11.9334 22.6981L10.208 28.0707H14.8082L17.8909 28.1107L15.5513 23.5506L17.1176 21.1807Z" fill="#F5841F" stroke="#F5841F" stroke-width="0.0976476" stroke-linecap="round" stroke-linejoin="round"/>
<path d="M24.1463 23.7987L24.4832 18.0785L25.9801 14.0037H19.2893L20.7862 18.0785L21.1231 23.7987L21.252 25.6022L21.2618 30.0433H24.0076L24.0174 25.6022L24.1463 23.7987Z" fill="#F5841F" stroke="#F5841F" stroke-width="0.0976476" stroke-linecap="round" stroke-linejoin="round"/>
</svg>
