<svg width="118" height="22" viewBox="0 0 118 22" fill="none" xmlns="http://www.w3.org/2000/svg">
<g clip-path="url(#clip0_177_223)">
<path d="M0 0H8.65089C10.2987 0 11.5345 0.415967 12.45 1.10924C13.4569 1.94118 14.0062 3.14286 14.0062 4.62185C14.0062 6.33193 13.3196 7.39496 11.9465 8.04202V8.13445C13.7774 8.73529 14.8301 10.3992 14.8301 12.3866C14.8301 14.2815 14.0977 15.7605 12.9077 16.6849C11.9007 17.4244 10.6191 17.7479 8.87975 17.7479H0V0ZM7.78123 6.93277C8.69666 6.93277 9.38324 6.42437 9.38324 5.36134C9.38324 4.34454 8.69666 3.83613 7.73545 3.83613H4.76028V6.88655H7.78123V6.93277ZM8.19317 13.8193C9.24592 13.8193 10.024 13.1723 10.024 12.0168C10.024 10.7689 9.20015 10.2143 8.19317 10.2143H4.80605V13.8655H8.19317V13.8193Z" fill="#2546FF"/>
<path d="M15.6082 0H20.1396V17.7941H15.6082V0Z" fill="#2546FF"/>
<path d="M21.0552 11.4622C21.0552 7.44117 23.6184 4.7605 27.6006 4.7605C31.5827 4.7605 34.1002 7.48739 34.1002 11.4622C34.1002 15.4832 31.5827 18.1639 27.6006 18.1639C23.6184 18.1639 21.0552 15.4832 21.0552 11.4622ZM29.5688 11.4622C29.5688 9.24369 28.8822 7.85714 27.509 7.85714C26.1359 7.85714 25.4951 9.24369 25.4951 11.4622C25.4951 13.6807 26.1359 15.1134 27.509 15.1134C28.8822 15.0672 29.5688 13.6807 29.5688 11.4622Z" fill="#2546FF"/>
<path d="M34.6035 11.4622C34.6035 7.44117 37.1667 4.7605 41.1489 4.7605C45.1311 4.7605 47.6027 7.44117 47.6027 11.4622C47.6027 15.4832 45.0853 18.1639 41.1031 18.1639C37.1667 18.1639 34.6035 15.4832 34.6035 11.4622ZM43.1171 11.4622C43.1171 9.24369 42.4305 7.85714 41.0574 7.85714C39.6842 7.85714 39.0434 9.24369 39.0434 11.4622C39.0434 13.6807 39.6842 15.1134 41.0574 15.1134C42.4305 15.0672 43.1171 13.6807 43.1171 11.4622Z" fill="#2546FF"/>
<path d="M48.5183 5.0841H52.7293V6.97906H52.8209C53.6448 5.50007 54.7891 4.71436 56.6199 4.71436C58.222 4.71436 59.412 5.50007 60.0071 6.88662H60.0986C61.1056 5.22276 62.433 4.71436 63.9892 4.71436C66.9186 4.71436 68.1545 6.88662 68.1545 9.79839V17.748H63.7604V10.5841C63.7604 9.28999 63.3484 8.45805 62.2499 8.45805C61.1514 8.45805 60.6021 9.47486 60.6021 10.8614V17.748H56.208V10.5841C56.208 9.28999 55.796 8.45805 54.6975 8.45805C53.599 8.45805 53.0497 9.47486 53.0497 10.8614V17.748H48.5183V5.0841Z" fill="#2546FF"/>
<path d="M73.6928 16.084H73.647V17.7479H69.436V0H73.8301V6.37815H73.9217C74.7456 5.26891 75.8899 4.66807 77.4919 4.66807C80.6501 4.66807 82.481 7.53361 82.481 11.3697C82.481 15.6681 80.5128 18.1639 77.2173 18.1639C75.8441 18.1639 74.4252 17.5168 73.6928 16.084ZM77.9496 11.3235C77.9496 9.28992 77.2173 7.94958 75.8899 7.94958C74.5167 7.94958 73.6928 9.28992 73.6928 11.3235C73.6928 13.3571 74.5625 14.6975 75.8899 14.6975C77.2173 14.6975 77.9496 13.4034 77.9496 11.3235Z" fill="#2546FF"/>
<path d="M82.9844 11.416C82.9844 7.44125 85.5934 4.71436 89.3467 4.71436C91.2233 4.71436 92.6423 5.3152 93.7408 6.37822C95.2055 7.81099 95.8463 10.0295 95.8005 12.6177H87.3785C87.5616 14.1891 88.2939 15.0211 89.6213 15.0211C90.3994 15.0211 91.086 14.6513 91.3606 13.8194H95.6174C94.8851 16.7312 92.6423 18.1639 89.484 18.1639C85.5934 18.1177 82.9844 15.437 82.9844 11.416ZM87.3785 10.0757H91.4064C91.3149 8.55049 90.491 7.76478 89.4382 7.76478C88.2024 7.71856 87.5158 8.59671 87.3785 10.0757Z" fill="#2546FF"/>
<path d="M100.79 7.25622H100.881C101.797 5.49992 102.987 4.80664 104.497 4.80664C104.863 4.80664 105.092 4.85286 105.23 4.9453V8.82765H105.138C102.529 8.36546 101.018 9.61336 101.018 12.4789V17.794H96.5786V5.08395H100.79V7.25622Z" fill="#2546FF"/>
<path d="M105.687 17.794H109.944C110.127 18.3486 110.677 18.857 111.729 18.857C113.148 18.857 113.652 17.9789 113.652 16.6386V15.7142H113.56C112.874 16.5461 111.912 17.147 110.539 17.147C107.839 17.147 105.458 15.1133 105.458 11.1386C105.458 7.4873 107.381 4.66797 110.31 4.66797C112.004 4.66797 113.011 5.36125 113.697 6.42427H113.789V5.03772H118V16.0377C118 18.0713 117.313 19.6428 116.261 20.5671C115.162 21.5377 113.606 21.9537 111.821 21.9537C108.434 21.9999 106.099 20.6133 105.687 17.794ZM113.835 10.9537C113.835 9.38225 113.102 8.08814 111.821 8.08814C110.585 8.08814 109.807 9.19738 109.807 10.9537C109.807 12.6638 110.585 13.8654 111.821 13.8654C113.057 13.8654 113.835 12.6175 113.835 10.9537Z" fill="#2546FF"/>
</g>
<defs>
<clipPath id="clip0_177_223">
<rect width="118" height="22" fill="white"/>
</clipPath>
</defs>
</svg>
