<svg width="111" height="16" viewBox="0 0 111 16" fill="none" xmlns="http://www.w3.org/2000/svg">
<g clip-path="url(#clip0_98_442)">
<path d="M15.9854 15.3945H27.0408V12.5273H19.3265V9.0107H25.7266V6.15074H19.3265V2.9114H27.0928V0.0441465H15.9854V15.3945Z" fill="#2546FF"/>
<path d="M40.272 9.66002L33.0255 0.000371933H28.0435L29.5952 1.94106V15.3945H32.9364V5.31902L40.4131 15.3435H43.6132V0.000371933H40.272V9.66002Z" fill="#2546FF"/>
<path d="M9.16957 12.5273H4.84094V9.0107H9.16957C10.4392 9.0107 11.1445 9.79865 11.1445 10.769C11.1445 11.878 10.3946 12.5273 9.16957 12.5273ZM4.84094 2.9114H9.02849C10.1571 2.9114 10.8624 3.56073 10.8624 4.53107C10.8624 5.50141 10.1571 6.15074 9.02849 6.15074H4.84094V2.9114ZM11.5232 7.48587C12.9785 7.20863 14.2035 5.8662 14.2035 3.97659C14.2035 1.94106 12.6963 0.0514421 9.6893 0.0514421H0L1.50722 1.94835V15.3945H10.0234C13.0379 15.3945 14.5896 13.5487 14.5896 11.2359C14.5377 9.33901 13.2161 7.71934 11.5232 7.48587Z" fill="#2546FF"/>
<path d="M89.2604 9.7038H90.9977V11.5059C90.3889 12.0603 89.1193 12.6586 87.7977 12.6586C85.0208 12.6586 83.0458 10.5793 83.0458 7.76311C83.0458 4.93964 85.0208 2.86033 87.7977 2.86033C89.394 2.86033 90.6711 3.73583 91.3764 4.80101L94.0122 3.37104C92.8836 1.61275 90.9087 0.0441465 87.7531 0.0441465C83.328 0.0441465 79.6602 3.05002 79.6602 7.71934C79.6602 12.3887 83.2834 15.3945 87.7531 15.3945C90.478 15.3945 92.646 14.2856 94.1533 12.6221V6.93139H87.0032L89.2604 9.7038Z" fill="#2546FF"/>
<path d="M74.9156 9.66002L67.669 0.000371933H62.687L64.2388 1.94106V15.3945H67.5799V5.31902L75.0566 15.3435H78.2567V0.000371933H74.9156V9.66002Z" fill="#2546FF"/>
<path d="M100.368 9.89349L102.811 3.28349L105.253 9.89349H100.368ZM104.934 0.000371933H98.4893L100.041 1.94106L99.759 2.67793L94.7695 15.3945H98.5339L99.5214 12.8045H102.848H106.248L107.236 15.3945H111L104.934 0.000371933Z" fill="#2546FF"/>
<path d="M58.3364 0.000371933H61.6776V15.3945H58.3364V0.000371933Z" fill="#2546FF"/>
<path d="M56.9108 2.67793V0.0441465H45.0312V2.9114H52.4114L45.0312 12.7607V15.3945H56.9257V12.5273H49.3525L56.9108 2.67793Z" fill="#2546FF"/>
</g>
<defs>
<clipPath id="clip0_98_442">
<rect width="111" height="15.3942" fill="white"/>
</clipPath>
</defs>
</svg>
