<svg width="134" height="24" viewBox="0 0 134 24" fill="none" xmlns="http://www.w3.org/2000/svg">
<path fill-rule="evenodd" clip-rule="evenodd" d="M18.4382 2.09808e-05V20.3748H13.4519V7.74361L10.3113 12.8583H12.6357V17.4936H7.31282L5.68257 20.2058H0L13.6077 2.09808e-05H18.4382Z" fill="#2546FF"/>
<path fill-rule="evenodd" clip-rule="evenodd" d="M19.2297 4.06953L19.2061 24H24.1937V8.39205H26.0882C26.0882 8.39205 28.4147 8.3446 28.4147 10.7708C28.4147 13.194 26.3279 13.0762 26.3279 13.0762H24.9855V17.4936H28.1269C28.1269 17.4936 33.7133 17.7804 33.4735 10.6263C33.2438 3.81002 25.8247 4.06953 25.8247 4.06953H19.2297Z" fill="#2546FF"/>
<path fill-rule="evenodd" clip-rule="evenodd" d="M127.747 15.4469L129.524 15.1759C129.6 15.5202 129.752 15.7833 129.984 15.9623C130.215 16.1413 130.538 16.2319 130.955 16.2319C131.414 16.2319 131.757 16.1478 131.989 15.9774C132.145 15.861 132.223 15.7014 132.223 15.5058C132.223 15.37 132.18 15.2578 132.096 15.1694C132.007 15.0853 131.809 15.0077 131.503 14.9365C130.075 14.6216 129.169 14.3334 128.786 14.0724C128.256 13.7101 127.992 13.2062 127.992 12.5614C127.992 11.982 128.22 11.4924 128.679 11.0985C129.137 10.7017 129.847 10.5033 130.808 10.5033C131.725 10.5033 132.408 10.6542 132.854 10.9519C133.299 11.2516 133.605 11.693 133.772 12.2796L132.102 12.5873C132.031 12.327 131.895 12.1265 131.696 11.9884C131.495 11.8483 131.211 11.7793 130.841 11.7793C130.374 11.7793 130.04 11.8439 129.838 11.9755C129.704 12.0682 129.638 12.189 129.638 12.3349C129.638 12.4629 129.697 12.5678 129.814 12.657C129.974 12.7749 130.524 12.9409 131.469 13.1566C132.411 13.3701 133.07 13.6332 133.444 13.9452C133.815 14.2622 134 14.7021 134 15.2636C134 15.8782 133.745 16.408 133.23 16.8501C132.717 17.2922 131.96 17.5115 130.955 17.5115C130.043 17.5115 129.322 17.326 128.788 16.9558C128.257 16.5877 127.91 16.0831 127.747 15.4469ZM45.9239 17.3605H43.8923L43.0848 15.2578H39.3899L38.6283 17.3605H36.6484L40.2485 8.10516H42.2219L45.9239 17.3605ZM42.4868 13.6993L41.2126 10.2646L39.9642 13.6993H42.4868ZM45.6324 15.4469L47.4091 15.1759C47.4852 15.5202 47.6374 15.7833 47.87 15.9623C48.1004 16.1413 48.4235 16.2319 48.8413 16.2319C49.2993 16.2319 49.6438 16.1478 49.8743 15.9774C50.0308 15.861 50.1083 15.7014 50.1083 15.5058C50.1083 15.37 50.0652 15.2578 49.9812 15.1694C49.8929 15.0853 49.6948 15.0077 49.389 14.9365C47.9605 14.6216 47.0545 14.3334 46.6712 14.0724C46.1421 13.7101 45.8772 13.2062 45.8772 12.5614C45.8772 11.982 46.1055 11.4924 46.5642 11.0985C47.0222 10.7017 47.7322 10.5033 48.6941 10.5033C49.6108 10.5033 50.2935 10.6542 50.7393 10.9519C51.1844 11.2516 51.4902 11.693 51.6574 12.2796L49.9877 12.5873C49.9166 12.327 49.781 12.1265 49.5814 11.9884C49.3811 11.8483 49.0968 11.7793 48.7264 11.7793C48.2598 11.7793 47.926 11.8439 47.7236 11.9755C47.59 12.0682 47.524 12.189 47.524 12.3349C47.524 12.4629 47.5822 12.5678 47.6999 12.657C47.8592 12.7749 48.4106 12.9409 49.3553 13.1566C50.2971 13.3701 50.9561 13.6332 51.3308 13.9452C51.7012 14.2622 51.8857 14.7021 51.8857 15.2636C51.8857 15.8782 51.6294 16.408 51.1154 16.8501C50.6029 17.2922 49.8463 17.5115 48.8413 17.5115C47.9282 17.5115 47.2074 17.326 46.6733 16.9558C46.1421 16.5877 45.7961 16.0831 45.6324 15.4469ZM52.1693 15.4469L53.9467 15.1759C54.0221 15.5202 54.1742 15.7833 54.4068 15.9623C54.638 16.1413 54.9603 16.2319 55.3781 16.2319C55.8361 16.2319 56.1806 16.1478 56.4111 15.9774C56.5683 15.861 56.6451 15.7014 56.6451 15.5058C56.6451 15.37 56.602 15.2578 56.518 15.1694C56.4298 15.0853 56.2323 15.0077 55.9265 14.9365C54.498 14.6216 53.592 14.3334 53.2087 14.0724C52.6789 13.7101 52.4148 13.2062 52.4148 12.5614C52.4148 11.982 52.6423 11.4924 53.101 11.0985C53.559 10.7017 54.2697 10.5033 55.2317 10.5033C56.1476 10.5033 56.8303 10.6542 57.2761 10.9519C57.7212 11.2516 58.027 11.693 58.195 12.2796L56.5245 12.5873C56.4534 12.327 56.3185 12.1265 56.1182 11.9884C55.9179 11.8483 55.6336 11.7793 55.2632 11.7793C54.7966 11.7793 54.4635 11.8439 54.2611 11.9755C54.1276 12.0682 54.0608 12.189 54.0608 12.3349C54.0608 12.4629 54.119 12.5678 54.2367 12.657C54.3961 12.7749 54.9474 12.9409 55.8921 13.1566C56.8346 13.3701 57.4929 13.6332 57.8676 13.9452C58.238 14.2622 58.4232 14.7021 58.4232 15.2636C58.4232 15.8782 58.167 16.408 57.6523 16.8501C57.1397 17.2922 56.3831 17.5115 55.3781 17.5115C54.4657 17.5115 53.7442 17.326 53.2109 16.9558C52.6789 16.5877 52.3329 16.0831 52.1693 15.4469ZM58.9193 13.9128C58.9193 13.3248 59.0657 12.754 59.3536 12.2019C59.645 11.652 60.0549 11.23 60.5869 10.9411C61.1188 10.6499 61.7125 10.5033 62.3686 10.5033C63.38 10.5033 64.2106 10.8332 64.8588 11.4924C65.5063 12.1523 65.8287 12.9841 65.8287 13.9905C65.8287 15.0034 65.5028 15.8437 64.8502 16.5115C64.1955 17.1801 63.3736 17.5115 62.3815 17.5115C61.7663 17.5115 61.1827 17.3735 60.6256 17.096C60.0678 16.8178 59.645 16.4102 59.3536 15.8739C59.0657 15.3376 58.9193 14.6842 58.9193 13.9128ZM60.7355 14.0077C60.7355 14.6741 60.8927 15.1824 61.2093 15.5353C61.523 15.889 61.9127 16.0658 62.375 16.0658C62.8381 16.0658 63.225 15.889 63.5373 15.5353C63.8517 15.1824 64.0082 14.6691 64.0082 13.9948C64.0082 13.3399 63.8517 12.8331 63.5373 12.4802C63.225 12.1265 62.8381 11.9504 62.375 11.9504C61.9127 11.9504 61.523 12.1265 61.2093 12.4802C60.8927 12.8331 60.7355 13.3442 60.7355 14.0077ZM72.4114 12.639L70.6642 12.9539C70.606 12.6045 70.4725 12.3421 70.2636 12.1653C70.0547 11.9884 69.7862 11.9 69.4546 11.9C69.0117 11.9 68.6606 12.0531 68.3979 12.3572C68.1352 12.6627 68.0038 13.1739 68.0038 13.8891C68.0038 14.6842 68.1373 15.2471 68.4043 15.5749C68.6714 15.9019 69.0282 16.0658 69.4782 16.0658C69.8164 16.0658 70.0899 15.9709 70.3045 15.779C70.5199 15.5871 70.6706 15.2578 70.7589 14.792L72.4997 15.0875C72.3188 15.8868 71.97 16.4921 71.4581 16.8997C70.9456 17.3095 70.2593 17.5115 69.3964 17.5115C68.4173 17.5115 67.6362 17.2038 67.0548 16.5849C66.4719 15.9666 66.1811 15.109 66.1811 14.0142C66.1811 12.9086 66.474 12.0467 67.0569 11.4299C67.6427 10.8117 68.4323 10.5033 69.4287 10.5033C70.2449 10.5033 70.8924 10.6808 71.3741 11.0316C71.8537 11.3824 72.2004 11.9194 72.4114 12.639ZM73.1099 9.74704V8.10516H74.8816V9.74704H73.1099ZM73.1099 17.3605V10.6564H74.8816V17.3605H73.1099ZM77.3769 12.7016L75.7688 12.4111C75.9497 11.7627 76.2599 11.284 76.7006 10.972C77.1443 10.6607 77.799 10.5033 78.6676 10.5033C79.4601 10.5033 80.0473 10.5982 80.4342 10.7858C80.8204 10.9734 81.0932 11.2106 81.2497 11.4989C81.4076 11.7879 81.4873 12.3163 81.4873 13.0876L81.4679 15.1586C81.4679 15.7474 81.4959 16.1823 81.5541 16.4619C81.6094 16.7409 81.7177 17.0421 81.8728 17.3605H80.1184C80.0731 17.2426 80.015 17.0679 79.9482 16.8372C79.9202 16.7322 79.8987 16.6625 79.8858 16.628C79.5821 16.9234 79.2598 17.1427 78.9152 17.2922C78.5707 17.4389 78.2031 17.5115 77.8111 17.5115C77.1227 17.5115 76.5786 17.3239 76.1823 16.9515C75.7839 16.5762 75.5858 16.1025 75.5858 15.5289C75.5858 15.1522 75.6763 14.8136 75.8572 14.516C76.038 14.2191 76.2922 13.9926 76.6174 13.8359C76.9418 13.6778 77.4135 13.5405 78.0265 13.4211C78.8528 13.2666 79.4278 13.1199 79.7465 12.9862V12.8094C79.7465 12.4672 79.6625 12.2257 79.4945 12.079C79.3265 11.9345 79.01 11.8612 78.5427 11.8612C78.2268 11.8612 77.982 11.9238 77.8047 12.0488C77.6288 12.171 77.486 12.3889 77.3769 12.7016ZM79.7465 14.1414C79.5197 14.2169 79.1607 14.3068 78.6676 14.4125C78.1773 14.5188 77.8564 14.6216 77.7042 14.7216C77.4738 14.8869 77.3575 15.0939 77.3575 15.3463C77.3575 15.5964 77.4501 15.8092 77.6353 15.9904C77.8205 16.1715 78.0545 16.2621 78.3409 16.2621C78.6611 16.2621 78.9648 16.1564 79.2555 15.9472C79.4709 15.7876 79.6101 15.5914 79.6776 15.3592C79.7242 15.2082 79.7465 14.9193 79.7465 14.4944V14.1414ZM85.6595 10.6564V12.0704H84.4492V14.7726C84.4492 15.3197 84.4607 15.6388 84.4837 15.7294C84.5073 15.82 84.5597 15.8933 84.6416 15.9537C84.7227 16.0119 84.8239 16.0421 84.9402 16.0421C85.106 16.0421 85.3422 15.9839 85.6545 15.8717L85.8052 17.2469C85.3917 17.4238 84.9273 17.5115 84.4047 17.5115C84.0859 17.5115 83.7974 17.4575 83.5418 17.3519C83.2855 17.2448 83.0982 17.1046 82.9776 16.9349C82.857 16.7639 82.7751 16.5331 82.7278 16.2427C82.6911 16.0378 82.6718 15.6194 82.6718 14.9926V12.0704H81.8584V10.6564H82.6718V9.32219L84.4492 8.28846V10.6564H85.6595ZM90.1217 15.2276L91.8884 15.5224C91.6601 16.1715 91.3033 16.6647 90.8123 17.0032C90.3234 17.3433 89.7104 17.5115 88.9746 17.5115C87.8102 17.5115 86.9495 17.1326 86.3896 16.3699C85.9488 15.7596 85.727 14.9883 85.727 14.0595C85.727 12.9474 86.017 12.0769 86.5984 11.4479C87.177 10.8189 87.9107 10.5033 88.7973 10.5033C89.7944 10.5033 90.5797 10.8332 91.1569 11.4924C91.7311 12.1523 92.0061 13.1609 91.9824 14.521H87.5432C87.5568 15.0465 87.6982 15.4555 87.9717 15.7474C88.2452 16.04 88.5869 16.1866 88.9939 16.1866C89.2718 16.1866 89.5036 16.1111 89.6931 15.9602C89.8827 15.807 90.027 15.5634 90.1217 15.2276ZM90.2229 13.4341C90.2093 12.9194 90.0779 12.529 89.8267 12.2623C89.5747 11.9949 89.2667 11.8612 88.9057 11.8612C88.518 11.8612 88.2 12.0035 87.948 12.2861C87.6961 12.5664 87.5712 12.9496 87.5755 13.4341H90.2229ZM98.9219 17.3605H97.278V16.3764C97.0045 16.7595 96.6822 17.0442 96.3096 17.2318C95.9371 17.4195 95.5631 17.5115 95.184 17.5115C94.4138 17.5115 93.7555 17.2016 93.2063 16.5813C92.6601 15.9602 92.3844 15.0939 92.3844 13.984C92.3844 12.846 92.6514 11.982 93.1848 11.3918C93.7189 10.8009 94.3944 10.5033 95.2099 10.5033C95.9572 10.5033 96.6047 10.816 97.151 11.4392V8.10516H98.9219V17.3605ZM94.1941 13.8632C94.1941 14.5785 94.2932 15.0961 94.4913 15.4167C94.7749 15.8782 95.1754 16.1111 95.688 16.1111C96.0964 16.1111 96.4432 15.9364 96.7296 15.5892C97.0131 15.2427 97.1574 14.723 97.1574 14.0336C97.1574 13.2644 97.0175 12.708 96.7425 12.3702C96.4647 12.0316 96.1094 11.8612 95.6751 11.8612C95.2551 11.8612 94.9048 12.0294 94.6205 12.3637C94.337 12.698 94.1941 13.1976 94.1941 13.8632ZM103.625 17.3605V8.10516H106.618C107.752 8.10516 108.492 8.15259 108.836 8.24533C109.366 8.38335 109.812 8.68455 110.169 9.15038C110.525 9.61548 110.705 10.2172 110.705 10.9519C110.705 11.5205 110.601 11.9992 110.395 12.3853C110.188 12.7727 109.928 13.0768 109.609 13.2989C109.293 13.5189 108.97 13.6648 108.642 13.736C108.198 13.8244 107.552 13.8697 106.706 13.8697H105.49V17.3605H103.625ZM105.49 9.67156V12.2968H106.51C107.246 12.2968 107.739 12.2494 107.986 12.1523C108.234 12.0553 108.427 11.9043 108.57 11.6973C108.71 11.491 108.78 11.2516 108.78 10.9777C108.78 10.6413 108.682 10.3638 108.484 10.1439C108.288 9.92604 108.036 9.78801 107.734 9.7341C107.511 9.69097 107.063 9.67156 106.392 9.67156H105.49ZM113.276 17.3605H111.504V10.6564H113.148V11.6096C113.431 11.1589 113.684 10.8613 113.909 10.7189C114.134 10.5773 114.387 10.5033 114.674 10.5033C115.079 10.5033 115.466 10.6161 115.84 10.8404L115.292 12.3853C114.995 12.1926 114.718 12.0963 114.461 12.0963C114.212 12.0963 114.003 12.1631 113.83 12.3011C113.656 12.4363 113.522 12.6843 113.424 13.0423C113.325 13.3996 113.276 14.1501 113.276 15.2902V17.3605ZM119.836 15.2276L121.603 15.5224C121.374 16.1715 121.018 16.6647 120.527 17.0032C120.038 17.3433 119.425 17.5115 118.689 17.5115C117.525 17.5115 116.664 17.1326 116.104 16.3699C115.663 15.7596 115.441 14.9883 115.441 14.0595C115.441 12.9474 115.732 12.0769 116.313 11.4479C116.891 10.8189 117.626 10.5033 118.512 10.5033C119.509 10.5033 120.294 10.8332 120.871 11.4924C121.445 12.1523 121.721 13.1609 121.697 14.521H117.258C117.27 15.0465 117.413 15.4555 117.686 15.7474C117.959 16.04 118.301 16.1866 118.708 16.1866C118.986 16.1866 119.218 16.1111 119.407 15.9602C119.597 15.807 119.741 15.5634 119.836 15.2276ZM119.937 13.4341C119.924 12.9194 119.792 12.529 119.541 12.2623C119.289 11.9949 118.982 11.8612 118.62 11.8612C118.232 11.8612 117.914 12.0035 117.662 12.2861C117.41 12.5664 117.286 12.9496 117.29 13.4341H119.937ZM121.873 15.4469L123.651 15.1759C123.726 15.5202 123.878 15.7833 124.111 15.9623C124.341 16.1413 124.664 16.2319 125.081 16.2319C125.54 16.2319 125.885 16.1478 126.114 15.9774C126.272 15.861 126.349 15.7014 126.349 15.5058C126.349 15.37 126.306 15.2578 126.222 15.1694C126.134 15.0853 125.936 15.0077 125.63 14.9365C124.201 14.6216 123.295 14.3334 122.913 14.0724C122.383 13.7101 122.118 13.2062 122.118 12.5614C122.118 11.982 122.346 11.4924 122.805 11.0985C123.263 10.7017 123.974 10.5033 124.936 10.5033C125.852 10.5033 126.534 10.6542 126.98 10.9519C127.425 11.2516 127.731 11.693 127.898 12.2796L126.229 12.5873C126.157 12.327 126.022 12.1265 125.822 11.9884C125.622 11.8483 125.338 11.7793 124.967 11.7793C124.501 11.7793 124.167 11.8439 123.965 11.9755C123.831 12.0682 123.765 12.189 123.765 12.3349C123.765 12.4629 123.823 12.5678 123.941 12.657C124.1 12.7749 124.651 12.9409 125.595 13.1566C126.539 13.3701 127.197 13.6332 127.572 13.9452C127.941 14.2622 128.127 14.7021 128.127 15.2636C128.127 15.8782 127.871 16.408 127.356 16.8501C126.844 17.2922 126.086 17.5115 125.081 17.5115C124.17 17.5115 123.448 17.326 122.915 16.9558C122.383 16.5877 122.037 16.0831 121.873 15.4469Z" fill="#2546FF"/>
</svg>
