<svg width="86" height="24" viewBox="0 0 86 24" fill="none" xmlns="http://www.w3.org/2000/svg">
<g clip-path="url(#clip0_98_472)">
<path d="M0 5.70923H5.11643L8.09567 13.205L11.1136 5.70923H16.0953L8.59395 23.4541H3.58069L5.63405 18.752L0 5.70923Z" fill="#2546FF"/>
<path d="M21.2847 5.41064C17.4405 5.41064 15.0103 8.80116 15.0103 12.1776C15.0103 15.977 17.6747 18.9893 21.2117 18.9893C23.8503 18.9893 24.8451 17.4084 24.8451 17.4084V18.6399H29.3076V5.70912H24.8451V6.88465C24.8451 6.88465 23.7352 5.41064 21.2847 5.41064ZM22.2339 9.56609C24.0076 9.56609 24.923 10.9463 24.923 12.1918C24.923 13.5329 23.9423 14.849 22.2339 14.849C20.8179 14.849 19.5384 13.711 19.5384 12.2489C19.5384 10.766 20.5676 9.56609 22.2339 9.56609Z" fill="#2546FF"/>
<path d="M30.8447 18.6398V-0.000732422H35.5122V6.92934C35.5122 6.92934 36.6209 5.41217 38.9428 5.41217C41.783 5.41217 43.447 7.49326 43.447 10.467V18.6398H38.8137V11.5866C38.8137 10.5802 38.3262 9.60799 37.222 9.60799C36.098 9.60799 35.5122 10.5949 35.5122 11.5866V18.6398H30.8447Z" fill="#2546FF"/>
<path d="M51.4051 5.4126C47.0027 5.4126 44.3813 8.70466 44.3813 12.2318C44.3813 16.2457 47.5553 18.9897 51.4218 18.9897C55.1693 18.9897 58.4486 16.3702 58.4486 12.2991C58.4486 7.84459 55.0151 5.4126 51.4051 5.4126ZM51.4471 9.60457C53.0022 9.60457 54.0782 10.8783 54.0782 12.2366C54.0782 13.3951 53.0755 14.824 51.4471 14.824C49.955 14.824 48.8352 13.647 48.8352 12.2239C48.8352 10.8531 49.7662 9.60457 51.4471 9.60457Z" fill="#2546FF"/>
<path d="M66.2244 5.4126C61.8221 5.4126 59.2007 8.70466 59.2007 12.2318C59.2007 16.2457 62.3746 18.9897 66.2411 18.9897C69.9887 18.9897 73.2679 16.3702 73.2679 12.2991C73.2679 7.84459 69.8345 5.4126 66.2244 5.4126ZM66.2665 9.60457C67.8215 9.60457 68.8975 10.8783 68.8975 12.2366C68.8975 13.3951 67.8949 14.824 66.2665 14.824C64.7743 14.824 63.6545 13.647 63.6545 12.2239C63.6545 10.8531 64.5855 9.60457 66.2665 9.60457Z" fill="#2546FF"/>
<path d="M76.951 18.9139C78.6627 18.9139 80.0504 17.5493 80.0504 15.8659C80.0504 14.1825 78.6627 12.8179 76.951 12.8179C75.2392 12.8179 73.8516 14.1825 73.8516 15.8659C73.8516 17.5493 75.2392 18.9139 76.951 18.9139Z" fill="#2546FF"/>
<path d="M81.0685 11.6986H75.4888L80.4409 -0.000732422H85.9998L81.0685 11.6986Z" fill="#2546FF"/>
</g>
<defs>
<clipPath id="clip0_98_472">
<rect width="86" height="23.4545" fill="white"/>
</clipPath>
</defs>
</svg>
