<svg width="170" height="50" viewBox="0 0 170 50" fill="none" xmlns="http://www.w3.org/2000/svg">
<g filter="url(#filter0_b_558_10004)">
<path d="M60.0191 20.8604H55.6768V18.3011H67.5015V20.8604H63.1592V31.8713H60.0191V20.8604ZM70.4765 22.8182C70.8381 22.3141 71.323 21.9328 71.9302 21.6742C72.5504 21.416 73.2612 21.2866 74.0624 21.2866V24.0784C73.7267 24.0524 73.5004 24.0394 73.3839 24.0394C72.5182 24.0394 71.8397 24.285 71.3485 24.7761C70.8574 25.2543 70.6118 25.978 70.6118 26.9473V31.8713H67.5878V21.4416H70.4765V22.8182ZM85.2804 21.4416V31.8713H82.411V30.6305C82.0104 31.0826 81.5322 31.4317 80.9766 31.6773C80.4209 31.9099 79.8199 32.0264 79.1737 32.0264C77.8038 32.0264 76.7184 31.632 75.9172 30.8438C75.1159 30.0555 74.7153 28.8859 74.7153 27.3349V21.4416H77.7393V26.889C77.7393 28.5691 78.4437 29.4093 79.8522 29.4093C80.5759 29.4093 81.1576 29.1767 81.5972 28.7111C82.0364 28.233 82.256 27.529 82.256 26.5982V21.4416H85.2804ZM90.4277 32.0264C89.5615 32.0264 88.715 31.9229 87.8882 31.7163C87.061 31.4962 86.4018 31.2251 85.9106 30.902L86.9189 28.7308C87.3841 29.028 87.946 29.2735 88.6052 29.4671C89.2644 29.6482 89.9106 29.7387 90.5438 29.7387C91.8232 29.7387 92.4632 29.4223 92.4632 28.7887C92.4632 28.4915 92.2884 28.2782 91.9397 28.1492C91.5907 28.0201 91.0543 27.9099 90.3305 27.8194C89.4777 27.6903 88.7733 27.5415 88.2176 27.3739C87.6619 27.2059 87.1775 26.9083 86.7639 26.4821C86.3632 26.0555 86.1629 25.4483 86.1629 24.6596C86.1629 24.0008 86.3502 23.4192 86.7249 22.915C87.1125 22.3979 87.6682 21.9973 88.3919 21.7132C89.1286 21.429 89.9944 21.2866 90.9897 21.2866C91.7264 21.2866 92.4564 21.3708 93.1802 21.5388C93.9169 21.6939 94.5245 21.9135 95.0027 22.1976L93.9944 24.3495C93.0771 23.8328 92.0755 23.5742 90.9897 23.5742C90.3435 23.5742 89.8591 23.6647 89.536 23.8454C89.2129 24.0264 89.0511 24.259 89.0511 24.5435C89.0511 24.8666 89.2259 25.0925 89.5745 25.222C89.9236 25.3511 90.4793 25.4739 91.2416 25.5904C92.0948 25.7324 92.7925 25.8875 93.3352 26.0555C93.8783 26.2106 94.3498 26.5014 94.7504 26.928C95.151 27.3542 95.3513 27.9489 95.3513 28.7111C95.3513 29.3573 95.1577 29.9327 94.7701 30.4364C94.3821 30.9406 93.8134 31.3349 93.0641 31.619C92.3274 31.8906 91.4486 32.0264 90.4277 32.0264ZM102.781 31.3672C102.484 31.5868 102.115 31.7548 101.676 31.8713C101.25 31.9744 100.797 32.0264 100.319 32.0264C99.0785 32.0264 98.1155 31.7095 97.4308 31.0763C96.7586 30.4431 96.4225 29.5124 96.4225 28.2849V24.0008H94.8137V21.6742H96.4225V19.1351H99.4465V21.6742H102.044V24.0008H99.4465V28.246C99.4465 28.6856 99.5567 29.0279 99.7763 29.2735C100.009 29.5061 100.332 29.6226 100.746 29.6226C101.224 29.6226 101.631 29.4931 101.967 29.2345L102.781 31.3672ZM128.365 18.3011L123.926 31.8713H120.553L117.568 22.6825L114.485 31.8713H111.132L106.673 18.3011H109.93L112.993 27.8391L116.191 18.3011H119.099L122.201 27.9166L125.361 18.3011H128.365ZM132.173 21.2866C133.788 21.2866 135.029 21.6742 135.895 22.4499C136.76 23.2122 137.193 24.3688 137.193 25.9197V31.8713H134.363V30.5722C133.795 31.5415 132.735 32.0264 131.184 32.0264C130.383 32.0264 129.685 31.8906 129.09 31.619C128.509 31.3479 128.063 30.9728 127.753 30.4947C127.443 30.0165 127.287 29.4738 127.287 28.8662C127.287 27.8973 127.65 27.1346 128.373 26.5789C129.11 26.0232 130.241 25.7454 131.766 25.7454H134.169C134.169 25.0862 133.969 24.5821 133.568 24.2334C133.168 23.8713 132.567 23.6903 131.766 23.6903C131.21 23.6903 130.661 23.7808 130.118 23.9619C129.588 24.1299 129.136 24.3625 128.761 24.6596L127.675 22.5467C128.244 22.1461 128.922 21.8359 129.711 21.6164C130.512 21.3963 131.333 21.2866 132.173 21.2866ZM131.94 29.9905C132.457 29.9905 132.916 29.8745 133.317 29.6419C133.717 29.3963 134.001 29.0409 134.169 28.5758V27.5093H132.095C130.855 27.5093 130.234 27.9166 130.234 28.7308C130.234 29.1185 130.383 29.4286 130.68 29.6612C130.99 29.8807 131.41 29.9905 131.94 29.9905ZM138.767 17.4873H141.791V31.8713H138.767V17.4873ZM143.435 17.4873H146.459V31.8713H143.435V17.4873ZM158.319 26.695C158.319 26.734 158.3 27.0055 158.261 27.5093H150.371C150.513 28.1555 150.849 28.6659 151.379 29.0409C151.909 29.4156 152.568 29.6029 153.356 29.6029C153.899 29.6029 154.377 29.5254 154.791 29.3703C155.217 29.2023 155.611 28.9441 155.973 28.5951L157.582 30.3396C156.6 31.464 155.165 32.0264 153.279 32.0264C152.102 32.0264 151.062 31.8001 150.158 31.3479C149.253 30.8823 148.555 30.2428 148.064 29.4286C147.573 28.6143 147.327 27.6903 147.327 26.6565C147.327 25.6356 147.566 24.7179 148.045 23.9036C148.536 23.0768 149.201 22.4369 150.041 21.9847C150.894 21.5191 151.844 21.2866 152.891 21.2866C153.912 21.2866 154.836 21.5066 155.663 21.9457C156.49 22.3853 157.136 23.0186 157.601 23.8454C158.08 24.6596 158.319 25.6096 158.319 26.695ZM152.91 23.5742C152.225 23.5742 151.65 23.7678 151.185 24.1559C150.72 24.5435 150.435 25.0732 150.332 25.7454H155.469C155.366 25.0862 155.082 24.5628 154.616 24.1752C154.151 23.7745 153.582 23.5742 152.91 23.5742ZM165.896 31.3672C165.598 31.5868 165.23 31.7548 164.791 31.8713C164.364 31.9744 163.912 32.0264 163.434 32.0264C162.193 32.0264 161.231 31.7095 160.545 31.0763C159.873 30.4431 159.537 29.5124 159.537 28.2849V24.0008H157.928V21.6742H159.537V19.1351H162.561V21.6742H165.159V24.0008H162.561V28.246C162.561 28.6856 162.671 29.0279 162.891 29.2735C163.123 29.5061 163.447 29.6226 163.86 29.6226C164.338 29.6226 164.746 29.4931 165.082 29.2345L165.896 31.3672Z" fill="#979797"/>
<path d="M33.5696 5H20.4304C13.013 5 7 11.013 7 18.4304V31.5696C7 38.987 13.013 45 20.4304 45H33.5696C40.987 45 47 38.987 47 31.5696V18.4304C47 11.013 40.987 5 33.5696 5Z" fill="white" stroke="#979797" stroke-width="0.832461"/>
<path d="M27.125 14.1807C30.8756 17.3132 35.1769 17.12 36.4056 17.12C36.137 34.9345 34.0886 31.4017 27.125 36.397C20.1615 31.4017 18.1262 34.9345 17.8574 17.12C19.0735 17.12 23.3745 17.3132 27.125 14.1807Z" stroke="#979797" stroke-width="2" stroke-miterlimit="10" stroke-linecap="round" stroke-linejoin="round"/>
<g filter="url(#filter1_b_558_10004)">
<rect width="170" height="50" fill="white" fill-opacity="0.01"/>
</g>
</g>
<defs>
<filter id="filter0_b_558_10004" x="-20" y="-20" width="210" height="90" filterUnits="userSpaceOnUse" color-interpolation-filters="sRGB">
<feFlood flood-opacity="0" result="BackgroundImageFix"/>
<feGaussianBlur in="BackgroundImageFix" stdDeviation="10"/>
<feComposite in2="SourceAlpha" operator="in" result="effect1_backgroundBlur_558_10004"/>
<feBlend mode="normal" in="SourceGraphic" in2="effect1_backgroundBlur_558_10004" result="shape"/>
</filter>
<filter id="filter1_b_558_10004" x="-6" y="-6" width="182" height="62" filterUnits="userSpaceOnUse" color-interpolation-filters="sRGB">
<feFlood flood-opacity="0" result="BackgroundImageFix"/>
<feGaussianBlur in="BackgroundImageFix" stdDeviation="3"/>
<feComposite in2="SourceAlpha" operator="in" result="effect1_backgroundBlur_558_10004"/>
<feBlend mode="normal" in="SourceGraphic" in2="effect1_backgroundBlur_558_10004" result="shape"/>
</filter>
</defs>
</svg>
