<svg width="134" height="50" viewBox="0 0 134 50" fill="none" xmlns="http://www.w3.org/2000/svg">
<path d="M85.7762 31.667H74.221C73.7301 31.667 73.332 32.0648 73.332 32.5557V44.1112C73.332 44.6021 73.7301 45.0001 74.221 45.0001H85.7762C86.2671 45.0001 86.6651 44.6021 86.6651 44.1112V32.5557C86.6651 32.0648 86.2671 31.667 85.7762 31.667Z" fill="black"/>
<path d="M39.1102 5H0.888752C0.653037 5 0.426965 5.09357 0.260357 5.26036C0.0935705 5.42697 0 5.65304 0 5.88893V44.1104C0 44.3461 0.0935705 44.5721 0.260357 44.7387C0.426965 44.9055 0.653037 44.9991 0.888752 44.9991H39.1102C39.3461 44.9991 39.5721 44.9055 39.7387 44.7387C39.9055 44.5721 39.9991 44.3461 39.9991 44.1104V5.88893C39.9991 5.65304 39.9055 5.42697 39.7387 5.26036C39.5721 5.09357 39.3461 5 39.1102 5ZM26.666 30.7773C26.666 31.013 26.5724 31.239 26.4056 31.4058C26.239 31.5724 26.013 31.6662 25.7773 31.6662H14.2218C13.9861 31.6662 13.7601 31.5724 13.5933 31.4058C13.4267 31.239 13.3331 31.013 13.3331 30.7773V19.2218C13.3331 18.9861 13.4267 18.7601 13.5933 18.5934C13.7601 18.4267 13.9861 18.3331 14.2218 18.3331H25.7773C26.013 18.3331 26.239 18.4267 26.4056 18.5934C26.5724 18.7601 26.666 18.9861 26.666 19.2218V30.7773Z" fill="black"/>
<path d="M119.131 18.334H107.575C107.085 18.334 106.687 18.7318 106.687 19.2227V30.7781C106.687 31.269 107.085 31.6671 107.575 31.6671H119.131C119.622 31.6671 120.02 31.269 120.02 30.7781V19.2227C120.02 18.7318 119.622 18.334 119.131 18.334Z" fill="black"/>
<path d="M105.792 5.00098H94.2366C93.7457 5.00098 93.3477 5.39883 93.3477 5.88991V17.4451C93.3477 17.936 93.7457 18.3341 94.2366 18.3341H105.792C106.283 18.3341 106.681 17.936 106.681 17.4451V5.88991C106.681 5.39883 106.283 5.00098 105.792 5.00098Z" fill="black"/>
<path d="M132.458 5.00098H120.903C120.412 5.00098 120.014 5.39883 120.014 5.88991V17.4451C120.014 17.936 120.412 18.3341 120.903 18.3341H132.458C132.949 18.3341 133.347 17.936 133.347 17.4451V5.88991C133.347 5.39883 132.949 5.00098 132.458 5.00098Z" fill="black"/>
<path d="M105.792 31.667H94.2366C93.7457 31.667 93.3477 32.0648 93.3477 32.5557V44.1112C93.3477 44.6021 93.7457 45.0001 94.2366 45.0001H105.792C106.283 45.0001 106.681 44.6021 106.681 44.1112V32.5557C106.681 32.0648 106.283 31.667 105.792 31.667Z" fill="black"/>
<path d="M132.458 31.667H120.903C120.412 31.667 120.014 32.0648 120.014 32.5557V44.1112C120.014 44.6021 120.412 45.0001 120.903 45.0001H132.458C132.949 45.0001 133.347 44.6021 133.347 44.1112V32.5557C133.347 32.0648 132.949 31.667 132.458 31.667Z" fill="black"/>
<path d="M85.8992 5H74.344C73.8531 5 73.4551 5.39786 73.4551 5.88893V17.4442C73.4551 17.9351 73.8531 18.3331 74.344 18.3331H85.8992C86.3901 18.3331 86.7882 17.9351 86.7882 17.4442V5.88893C86.7882 5.39786 86.3901 5 85.8992 5Z" fill="black"/>
<path d="M70.1213 19.2118C70.1213 18.9761 70.0275 18.7501 69.8609 18.5834C69.6941 18.4167 69.468 18.3231 69.2323 18.3231H56.7882V5.88893C56.7882 5.65304 56.6944 5.42697 56.5278 5.26036C56.361 5.09357 56.135 5 55.8992 5H44.344C44.1081 5 43.882 5.09357 43.7154 5.26036C43.5486 5.42697 43.4551 5.65304 43.4551 5.88893V44.0904C43.4551 44.3261 43.5486 44.5521 43.7154 44.7187C43.882 44.8855 44.1081 44.9791 44.344 44.9791H55.8992C56.135 44.9791 56.361 44.8855 56.5278 44.7187C56.6944 44.5521 56.7882 44.3261 56.7882 44.0904V31.6562H69.2323C69.468 31.6562 69.6941 31.5624 69.8609 31.3958C70.0275 31.229 70.1213 31.003 70.1213 30.7673V19.2118Z" fill="black"/>
</svg>
