<svg width="168" height="50" viewBox="0 0 168 50" fill="none" xmlns="http://www.w3.org/2000/svg">
<g clip-path="url(#clip0_558_10009)" filter="url(#filter0_b_558_10009)">
<g filter="url(#filter1_b_558_10009)">
<path d="M85.8859 31.3283C85.0395 30.9682 84.2704 30.4492 83.6203 29.7994C82.9768 29.1448 82.4582 28.3788 82.0897 27.5388C81.6292 26.4567 81.4451 25.2775 81.5538 24.1069C81.6625 22.9363 82.0607 21.8109 82.7126 20.8316C83.3645 19.8524 84.2498 19.0498 85.2891 18.496C86.3283 17.9421 87.4891 17.6543 88.6673 17.6583C89.6232 17.6593 90.5696 17.8476 91.4528 18.2124C92.2923 18.5793 93.0571 19.097 93.7092 19.7396C94.3584 20.3838 94.8728 21.1503 95.2226 21.9945C95.5998 22.8712 95.7943 23.8154 95.7943 24.7695C95.7943 25.7236 95.5998 26.6678 95.2226 27.5445C94.8645 28.387 94.3498 29.1542 93.7058 29.8057C93.0504 30.4489 92.2825 30.9671 91.4402 31.3346C90.5564 31.6944 89.611 31.8797 88.6565 31.8802C87.7046 31.8819 86.7619 31.6943 85.8836 31.3283M84.8655 15.7881C82.5187 16.7734 80.6523 18.6372 79.6669 20.9798C79.1636 22.181 78.9044 23.4701 78.9044 24.7721C78.9044 26.0741 79.1636 27.3631 79.6669 28.5644C80.6545 30.908 82.5229 32.7724 84.8718 33.7578C86.0753 34.2603 87.367 34.5191 88.6716 34.5191C89.9763 34.5191 91.2679 34.2603 92.4715 33.7578C94.8211 32.7736 96.69 30.9089 97.6764 28.5644C98.1791 27.3637 98.4379 26.0753 98.4379 24.7741C98.4379 23.4728 98.1791 22.1845 97.6764 20.9837C96.6883 18.6404 94.82 16.7762 92.4715 15.7904C91.2673 15.2912 89.9762 15.0342 88.6722 15.0342C87.3682 15.0342 86.0771 15.2912 84.8729 15.7904M64.0877 15.7846C62.9277 16.2802 61.8712 16.9888 60.9733 17.8734C60.0849 18.7658 59.3755 19.8194 58.8834 20.9775C58.3764 22.1788 58.1152 23.4691 58.1152 24.7726C58.1152 26.0761 58.3764 27.3665 58.8834 28.5678C59.3756 29.7244 60.0843 30.7767 60.9716 31.6684C61.8671 32.5541 62.9219 33.2633 64.0808 33.7589C65.2859 34.2601 66.5788 34.5175 67.8844 34.5163C70.4716 34.5172 72.9537 33.4952 74.7874 31.6742C75.6785 30.7786 76.3903 29.7219 76.8848 28.5604C76.9912 28.3076 77.089 28.0468 77.176 27.7774H74.3362C73.9833 28.529 73.5054 29.2155 72.9228 29.808C72.2692 30.4523 71.5019 30.9706 70.6596 31.3369C69.775 31.6967 68.8288 31.882 67.8735 31.8825C66.9372 31.8859 66.0095 31.7038 65.1442 31.3466C64.279 30.9894 63.4935 30.4643 62.8334 29.8017C62.1897 29.1468 61.6711 28.3804 61.3028 27.54C60.5721 25.7631 60.5746 23.7701 61.3096 21.995C61.8551 20.7056 62.7707 19.606 63.9411 18.8347C65.1116 18.0634 66.4846 17.6549 67.8872 17.6605C68.8437 17.6614 69.7905 17.8509 70.6733 18.2181C71.5132 18.5861 72.2798 19.1023 72.936 19.7419C73.5211 20.3333 73.9984 21.022 74.3465 21.777H77.1805C77.0959 21.5065 76.9964 21.2411 76.8946 20.9855C75.9036 18.6441 74.0362 16.7809 71.6897 15.7921C70.4859 15.2931 69.1954 15.0357 67.8918 15.0347C66.5883 15.0337 65.2974 15.2892 64.0928 15.7864M101.385 34.518H104.023V15.0307H101.385V34.518ZM133.962 21.9014C133.956 21.2866 134.071 20.6764 134.302 20.1064C134.533 19.5363 134.875 19.0177 135.309 18.5805C135.742 18.1433 136.258 17.7962 136.827 17.5593C137.396 17.3224 138.006 17.2004 138.622 17.2004C139.238 17.2004 139.848 17.3224 140.417 17.5593C140.986 17.7962 141.502 18.1433 141.935 18.5805C142.368 19.0177 142.711 19.5363 142.942 20.1064C143.173 20.6764 143.288 21.2866 143.281 21.9014C143.268 23.1256 142.771 24.295 141.899 25.1558C141.026 26.0166 139.849 26.4994 138.622 26.4994C137.395 26.4994 136.218 26.0166 135.345 25.1558C134.473 24.295 133.976 23.1256 133.962 21.9014ZM131.591 21.9385C131.591 25.7417 134.737 28.7173 138.746 28.7173H140.338L137.218 34.6013H139.871L144.711 25.3456C145.313 24.2813 145.645 23.0862 145.679 21.8643C145.63 20.0255 144.861 18.2789 143.537 16.9989C142.213 15.7189 140.439 15.0073 138.595 15.0167C136.752 15.026 134.985 15.7555 133.674 17.0488C132.363 18.3422 131.612 20.0964 131.582 21.9357M150.228 28.747C150.246 27.682 150.682 26.6667 151.444 25.9199C152.205 25.1731 153.229 24.7545 154.297 24.7545C155.364 24.7545 156.389 25.1731 157.15 25.9199C157.911 26.6667 158.348 27.682 158.366 28.747C158.366 29.8238 157.937 30.8565 157.174 31.6179C156.411 32.3793 155.376 32.807 154.297 32.807C153.218 32.807 152.183 32.3793 151.42 31.6179C150.657 30.8565 150.228 29.8238 150.228 28.747ZM151.583 19.8309C151.584 19.1163 151.864 18.4302 152.364 17.9186C152.864 17.407 153.544 17.1103 154.26 17.0916C154.989 17.0916 155.687 17.3802 156.202 17.8939C156.717 18.4076 157.006 19.1044 157.006 19.8309C157.006 20.5575 156.717 21.2542 156.202 21.768C155.687 22.2817 154.989 22.5703 154.26 22.5703C153.544 22.5516 152.864 22.2548 152.364 21.7432C151.864 21.2316 151.584 20.5455 151.583 19.8309ZM149.392 19.8309C149.38 20.8936 149.714 21.9315 150.345 22.7877L150.887 23.5108L150.195 24.0969C149.515 24.6665 148.969 25.3783 148.595 26.1819C148.222 26.9855 148.03 27.8612 148.033 28.747C148.033 30.4044 148.693 31.9939 149.867 33.1659C151.042 34.3378 152.635 34.9962 154.296 34.9962C155.957 34.9962 157.55 34.3378 158.724 33.1659C159.899 31.9939 160.559 30.4044 160.559 28.747C160.564 27.8516 160.369 26.9663 159.989 26.1551C159.609 25.344 159.053 24.6273 158.361 24.057L157.654 23.464L158.221 22.7352C158.866 21.9048 159.211 20.8813 159.199 19.8309C159.185 18.5427 158.663 17.312 157.745 16.4059C156.827 15.4999 155.588 14.9917 154.297 14.9917C153.006 14.9917 151.766 15.4999 150.849 16.4059C149.931 17.312 149.408 18.5427 149.394 19.8309M125.253 15.0307L125.249 30.1458C125.271 30.3247 125.255 30.5062 125.202 30.6785C125.149 30.8508 125.06 31.01 124.942 31.1459C124.823 31.2817 124.677 31.3912 124.513 31.4672C124.349 31.5432 124.171 31.5839 123.991 31.5868C123.685 31.5699 123.389 31.4695 123.136 31.2964C122.883 31.1233 122.683 30.8842 122.557 30.6052L116.531 17.6605C116.217 16.8777 115.673 16.2077 114.971 15.7384C114.269 15.2691 113.442 15.0225 112.597 15.0307C111.614 15.0186 110.658 15.3483 109.892 15.9633C109.857 15.9891 109.824 16.0168 109.791 16.046C109.39 16.3756 109.067 16.7904 108.846 17.2603C108.625 17.7301 108.512 18.2431 108.515 18.762V34.5134H111.31V19.1701C111.301 18.9951 111.328 18.8201 111.389 18.6559C111.45 18.4916 111.544 18.3414 111.665 18.2145C111.786 18.0875 111.932 17.9865 112.093 17.9174C112.255 17.8484 112.429 17.8129 112.604 17.8129C112.911 17.8247 113.207 17.9263 113.457 18.105C113.706 18.2837 113.897 18.5316 114.007 18.8179L114.061 18.9458C115.478 22.0715 118.647 28.9462 120.502 32.5918C121.126 33.816 122.192 34.3667 123.962 34.3753C124.963 34.3932 125.938 34.0656 126.724 33.4479C127.158 33.1721 127.51 32.785 127.742 32.327C127.975 31.8691 128.08 31.3572 128.046 30.8449V15.0307H125.253Z" fill="#979797"/>
</g>
<g filter="url(#filter2_b_558_10009)">
<path d="M40.7776 5H15.3017C13.3642 5.00197 11.5067 5.77144 10.1376 7.1393C8.76839 8.50716 7.99954 10.3615 8 12.2947V37.7053C7.99939 39.6386 8.76819 41.493 10.1374 42.8609C11.5066 44.2288 13.3642 44.9982 15.3017 45H40.7776C42.7153 44.9982 44.5729 44.2288 45.9422 42.8609C47.3115 41.493 48.0804 39.6386 48.0799 37.7053V12.2947C48.0804 10.3614 47.3115 8.50698 45.9422 7.1391C44.5729 5.77122 42.7153 5.00182 40.7776 5ZM34.5907 14.9959C36.0115 14.9978 37.3736 15.5618 38.3783 16.5642C39.3831 17.5666 39.9485 18.9257 39.9506 20.3433C39.9519 21.2375 39.726 22.1173 39.294 22.9007C38.6249 22.3571 37.8636 21.9376 37.0461 21.6622C37.2631 21.2562 37.3772 20.8034 37.3784 20.3433C37.3837 19.9747 37.3155 19.6088 37.1778 19.2667C37.0401 18.9246 36.8356 18.6133 36.5763 18.3508C36.3169 18.0882 36.0078 17.8798 35.667 17.7375C35.3262 17.5952 34.9604 17.5219 34.591 17.5219C34.2215 17.5219 33.8557 17.5952 33.5149 17.7375C33.1741 17.8798 32.865 18.0882 32.6057 18.3508C32.3463 18.6133 32.1418 18.9246 32.0041 19.2667C31.8664 19.6088 31.7982 19.9747 31.8035 20.3433C31.8003 20.8049 31.9151 21.2596 32.137 21.6645C31.3195 21.9399 30.5582 22.3594 29.8891 22.903C29.4571 22.1196 29.2312 21.2397 29.2325 20.3456C29.2324 18.9273 29.7967 17.567 30.8015 16.5638C31.8063 15.5606 33.1692 14.9966 34.5907 14.9959ZM21.4887 35.0047C20.0679 35.0027 18.7059 34.4387 17.7012 33.4363C16.6966 32.4339 16.1313 31.0749 16.1293 29.6572H18.7032C18.7032 30.0225 18.7753 30.3842 18.9154 30.7217C19.0555 31.0592 19.2608 31.3658 19.5197 31.6241C19.7786 31.8824 20.0859 32.0873 20.4241 32.2271C20.7624 32.3669 21.1249 32.4388 21.491 32.4388C21.857 32.4388 22.2196 32.3669 22.5578 32.2271C22.896 32.0873 23.2033 31.8824 23.4622 31.6241C23.7211 31.3658 23.9264 31.0592 24.0665 30.7217C24.2066 30.3842 24.2787 30.0225 24.2787 29.6572H26.8526C26.8523 30.3598 26.7133 31.0554 26.4436 31.7043C26.1738 32.3533 25.7787 32.9429 25.2806 33.4394C24.7825 33.936 24.1913 34.3298 23.5406 34.5984C22.89 34.8669 22.1928 35.005 21.4887 35.0047ZM21.4887 27.4943C20.25 27.4932 19.0394 27.1258 18.01 26.4383C16.9807 25.7508 16.1787 24.7742 15.7056 23.6319C15.2325 22.4897 15.1095 21.2331 15.3521 20.0211C15.5947 18.8091 16.1921 17.6961 17.0686 16.8228C17.9452 15.9495 19.0616 15.3552 20.2767 15.115C21.4917 14.8748 22.7509 14.9995 23.8949 15.4734C25.039 15.9472 26.0165 16.7489 26.7039 17.777C27.3913 18.8052 27.7577 20.0137 27.7568 21.2496C27.7562 22.0703 27.5936 22.8829 27.2783 23.6409C26.963 24.3989 26.5011 25.0875 25.919 25.6673C25.3369 26.2472 24.6461 26.707 23.8859 27.0205C23.1258 27.3339 22.3112 27.4949 21.4887 27.4943ZM34.5907 35.0047C33.3515 35.0056 32.1398 34.6397 31.1091 33.9533C30.0784 33.2669 29.2748 32.2909 28.8002 31.1487C28.3255 30.0065 28.2011 28.7496 28.4426 27.5368C28.6842 26.324 29.2808 25.21 30.1571 24.3357C31.0333 23.4614 32.1498 22.866 33.3653 22.625C34.5807 22.384 35.8405 22.5082 36.9852 22.9818C38.1299 23.4554 39.1081 24.2571 39.796 25.2856C40.4839 26.3141 40.8506 27.523 40.8497 28.7595C40.8465 30.4149 40.1861 32.0015 39.013 33.172C37.8399 34.3425 36.2497 35.0015 34.5907 35.0047ZM38.2867 28.7595C38.2867 29.4889 38.07 30.2019 37.6638 30.8084C37.2577 31.4149 36.6805 31.8875 36.0051 32.1667C35.3297 32.4458 34.5866 32.5188 33.8696 32.3765C33.1527 32.2342 32.4941 31.883 31.9772 31.3672C31.4603 30.8515 31.1083 30.1944 30.9657 29.479C30.823 28.7636 30.8962 28.0221 31.176 27.3482C31.4557 26.6743 31.9295 26.0984 32.5373 25.6931C33.1451 25.2879 33.8597 25.0716 34.5907 25.0716C35.0761 25.0713 35.5569 25.1665 36.0055 25.3517C36.454 25.537 36.8616 25.8086 37.2049 26.1511C37.5481 26.4936 37.8204 26.9003 38.006 27.3479C38.1916 27.7954 38.287 28.2751 38.2867 28.7595ZM25.1847 21.2496C25.1847 21.979 24.9679 22.692 24.5618 23.2985C24.1557 23.905 23.5784 24.3777 22.9031 24.6568C22.2277 24.9359 21.4846 25.0089 20.7676 24.8666C20.0506 24.7243 19.3921 24.3731 18.8752 23.8574C18.3583 23.3416 18.0063 22.6845 17.8636 21.9691C17.721 21.2537 17.7942 20.5122 18.074 19.8383C18.3537 19.1645 18.8274 18.5885 19.4353 18.1833C20.0431 17.778 20.7577 17.5617 21.4887 17.5617C22.4685 17.5633 23.4077 17.9523 24.1005 18.6436C24.7933 19.3349 25.1832 20.272 25.1847 21.2496Z" fill="#979797"/>
</g>
</g>
<g filter="url(#filter3_b_558_10009)">
<rect width="168" height="50" fill="white" fill-opacity="0.01"/>
</g>
<defs>
<filter id="filter0_b_558_10009" x="-12" y="-15" width="192.559" height="80" filterUnits="userSpaceOnUse" color-interpolation-filters="sRGB">
<feFlood flood-opacity="0" result="BackgroundImageFix"/>
<feGaussianBlur in="BackgroundImageFix" stdDeviation="10"/>
<feComposite in2="SourceAlpha" operator="in" result="effect1_backgroundBlur_558_10009"/>
<feBlend mode="normal" in="SourceGraphic" in2="effect1_backgroundBlur_558_10009" result="shape"/>
</filter>
<filter id="filter1_b_558_10009" x="54.1152" y="10.9917" width="110.443" height="28.0044" filterUnits="userSpaceOnUse" color-interpolation-filters="sRGB">
<feFlood flood-opacity="0" result="BackgroundImageFix"/>
<feGaussianBlur in="BackgroundImageFix" stdDeviation="2"/>
<feComposite in2="SourceAlpha" operator="in" result="effect1_backgroundBlur_558_10009"/>
<feBlend mode="normal" in="SourceGraphic" in2="effect1_backgroundBlur_558_10009" result="shape"/>
</filter>
<filter id="filter2_b_558_10009" x="4" y="1" width="48.0801" height="48" filterUnits="userSpaceOnUse" color-interpolation-filters="sRGB">
<feFlood flood-opacity="0" result="BackgroundImageFix"/>
<feGaussianBlur in="BackgroundImageFix" stdDeviation="2"/>
<feComposite in2="SourceAlpha" operator="in" result="effect1_backgroundBlur_558_10009"/>
<feBlend mode="normal" in="SourceGraphic" in2="effect1_backgroundBlur_558_10009" result="shape"/>
</filter>
<filter id="filter3_b_558_10009" x="-6" y="-6" width="180" height="62" filterUnits="userSpaceOnUse" color-interpolation-filters="sRGB">
<feFlood flood-opacity="0" result="BackgroundImageFix"/>
<feGaussianBlur in="BackgroundImageFix" stdDeviation="3"/>
<feComposite in2="SourceAlpha" operator="in" result="effect1_backgroundBlur_558_10009"/>
<feBlend mode="normal" in="SourceGraphic" in2="effect1_backgroundBlur_558_10009" result="shape"/>
</filter>
<clipPath id="clip0_558_10009">
<rect width="152.558" height="40" fill="white" transform="translate(8 5)"/>
</clipPath>
</defs>
</svg>
