<svg width="114" height="50" viewBox="0 0 114 50" fill="none" xmlns="http://www.w3.org/2000/svg">
<path d="M49.2217 14.9499H53.5007V32.0661H57.7798V10.6709H53.5007C51.1472 10.6709 49.2217 12.5965 49.2217 14.9499Z" fill="#1B314F"/>
<path d="M62.0586 32.0666H66.3376V23.5085C66.3376 21.1551 64.4121 19.2295 62.0586 19.2295V32.0666Z" fill="#1B314F"/>
<path d="M70.6172 19.2295V32.0666H74.8962V23.5085H79.1753V27.7876C79.1753 30.1411 81.1008 32.0666 83.4543 32.0666V23.5085C83.4543 21.1551 81.5288 19.2295 79.1753 19.2295H70.6172Z" fill="#1B314F"/>
<path d="M109.129 19.2295H104.85V14.9504C104.85 12.597 102.924 10.6714 100.571 10.6714V27.7876H92.0124V23.5085H96.2915V19.2295H92.0124C89.659 19.2295 87.7334 21.155 87.7334 23.5085V27.7876C87.7334 30.141 89.659 32.0666 92.0124 32.0666H104.85V23.5085H109.129V27.7876C109.129 30.141 111.054 32.0666 113.408 32.0666V23.5085C113.408 21.155 111.482 19.2295 109.129 19.2295Z" fill="#1B314F"/>
<path d="M62.0586 14.9504H66.3376C66.3376 12.597 64.4121 10.6714 62.0586 10.6714V14.9504Z" fill="#1B314F"/>
<path fill-rule="evenodd" clip-rule="evenodd" d="M55.8972 36.3457V39.1485H55.5014L53.961 37.2015V39.1378H53.501V36.3457H53.8968L55.4372 38.2927V36.3457H55.8972ZM64.5944 39.1485H62.9363V36.3457H64.5516V36.8057H63.4284V37.501H64.4339V37.961H63.4284V38.6885H64.5944V39.1485ZM71.6441 36.8057H72.5534V39.1485H73.0455V36.8057H73.9548V36.3457H71.6441V36.8057ZM84.4171 36.3457H84.8878L84.0855 39.1485H83.6254L82.9515 37.1266L82.2882 39.1485H81.8283L80.9938 36.3457H81.5501L82.1171 38.3462L82.7375 36.3457H83.2296L83.8715 38.3462L84.4171 36.3457ZM92.344 36.7629C92.0766 37.041 91.9375 37.3834 91.9375 37.7899C91.9375 38.2178 92.0766 38.5708 92.3547 38.8382C92.6328 39.1057 92.9752 39.2341 93.4031 39.2341C93.8203 39.2341 94.1733 39.095 94.4514 38.8276C94.7296 38.5601 94.8686 38.2071 94.8686 37.7899C94.8686 37.362 94.7296 37.0197 94.4514 36.7415C94.1733 36.4741 93.831 36.3457 93.4031 36.3457C92.9752 36.3457 92.6221 36.4848 92.344 36.7629ZM92.7291 38.4959C92.5473 38.3141 92.4617 38.0787 92.4617 37.7899C92.4617 37.501 92.5473 37.2657 92.7291 37.0838C92.911 36.902 93.1356 36.8057 93.4031 36.8057C93.6705 36.8057 93.8845 36.902 94.0663 37.0838C94.2482 37.2657 94.3338 37.5117 94.3338 37.7899C94.3338 38.068 94.2482 38.3034 94.077 38.4959C93.9059 38.6778 93.6812 38.7741 93.3924 38.7741C93.1249 38.7741 92.9003 38.6778 92.7291 38.4959ZM102.389 38.1108V39.1592H101.897V36.3564C102.036 36.3564 102.186 36.3564 102.346 36.3564C102.507 36.3564 102.646 36.3564 102.742 36.3564C103.416 36.3564 103.758 36.6452 103.758 37.2229C103.758 37.4369 103.705 37.608 103.598 37.7471C103.491 37.8755 103.363 37.9717 103.223 38.0145L104.101 39.1592H103.502L102.731 38.1108H102.389ZM102.731 36.8057C102.721 36.8057 102.699 36.8057 102.667 36.8057C102.635 36.8057 102.592 36.8057 102.539 36.8057H102.389V37.6401H102.71C102.87 37.6401 102.999 37.5973 103.095 37.5224C103.191 37.4476 103.245 37.3406 103.245 37.2015C103.245 36.9448 103.074 36.8057 102.731 36.8057ZM111.15 39.1485H111.642V37.7043L112.787 39.1485H113.408L112.188 37.6508L113.343 36.3457H112.755L111.653 37.6722V36.3457H111.161L111.15 39.1485Z" fill="#2F7AEA"/>
<path d="M10.1115 27.0495L11.2347 18.5877L1.47852 11.8161L10.3896 14.8329L12.4971 11.6022L20.1886 6.83105L37.1444 16.1701L38.0216 30.4193L30.4797 40.9136L24.5105 41.8229L27.6021 36.1746V30.7295L25.3556 26.4826L23.077 24.9742L19.5682 28.59V32.4197L16.8296 34.9872L13.3529 35.4044L11.8124 36.2816L9.28777 35.4793L8.23941 31.6923L10.1329 29.0286V27.0495H10.1115Z" fill="white"/>
<path d="M25.6971 11.7517C23.8357 11.3666 21.8032 11.4736 21.8032 11.4736C21.8032 11.4736 21.1399 14.5652 16.9893 15.3675C17.032 15.3675 22.4664 17.2289 25.6971 11.7517Z" fill="#94A6C3"/>
<path d="M27.3892 39.7582C29.6357 38.0038 31.3259 35.5861 32.0962 32.8475C32.1283 32.7405 32.4492 32.5694 32.6524 32.4303C33.0055 32.2164 33.3585 32.0452 33.4227 31.7671C33.5617 30.9647 33.6366 30.1196 33.6366 29.2745C33.6366 28.9536 33.3157 28.6434 33.0055 28.3224C32.7594 28.1085 32.5134 27.8624 32.5134 27.6913C32.1604 24.4927 30.6841 21.5081 28.3413 19.3364L28.0953 19.5825C30.3739 21.722 31.8501 24.6318 32.1711 27.7234C32.2031 28.0015 32.492 28.2796 32.7701 28.5685C33.0162 28.7824 33.2943 29.0927 33.2943 29.2317C33.2943 30.0341 33.2194 30.8471 33.0804 31.6494C33.0483 31.7885 32.7273 31.9275 32.4813 32.0666C32.1283 32.2378 31.818 32.4196 31.7432 32.6978C30.898 35.6824 28.9725 38.2819 26.405 39.9614C26.865 38.9773 28.2985 35.7894 29.0687 34.174L28.9297 28.975L24.4688 24.6532L21.9441 25.0062L19.1735 29.4992C19.1735 29.4992 20.4679 31.1466 18.6493 33.0829C16.8628 34.9763 15.4507 35.4043 15.4507 35.4043L14.1563 34.6982C14.5414 34.2061 15.3116 33.468 15.9107 32.9759C16.927 32.1308 17.9432 32.0666 17.9432 31.1466C17.9753 29.2531 15.9428 29.7773 15.9428 29.7773L15.2046 30.4834L14.8837 33.0829L13.3433 35.0084L13.1721 34.9763L10.6475 34.4201C10.6475 34.4201 12.1879 33.6178 12.434 32.6978C12.68 31.8206 11.9419 28.9108 11.9098 28.7289C11.9419 28.761 12.6479 29.3601 12.9581 30.3443C13.5144 28.8038 14.2526 27.3276 14.4665 27.1885C14.6805 27.0494 17.5153 25.5411 17.5153 25.5411L16.5632 28.0336L17.2693 27.6485L18.9488 23.5085C18.9488 23.5085 20.5962 22.7062 21.8265 22.7062C24.0409 22.6741 27.3036 19.9676 25.8274 15.1216C26.2446 15.2927 33.551 18.9513 34.8134 26.108C35.7761 31.6173 32.6524 36.7735 27.3892 39.7582Z" fill="#94A6C3"/>
<path d="M19.0331 12.5219C19.8355 11.5698 19.5252 10.1685 19.5252 10.1685L17.1718 13.6452C17.1397 13.6452 18.0169 13.6773 19.0331 12.5219Z" fill="#1B314F"/>
<path d="M11.139 31.5103L11.4172 30.1089C11.4172 30.1089 10.2618 32.1414 10.1549 32.4303C10.0479 32.7512 10.2297 33.3075 10.679 33.2754C11.139 33.2433 11.6953 32.5693 11.6953 32.0772C11.6953 31.4461 11.139 31.5103 11.139 31.5103Z" fill="#1B314F"/>
<path d="M31.9879 9.1844C31.9879 9.1844 33.7423 9.25928 35.5716 9.46254C31.4637 6.23186 27.5697 5.29047 24.4139 5.29047C20.06 5.29047 17.1182 7.07697 16.9363 7.18394L18.3056 5.01233C18.3056 5.01233 12.8284 4.48815 10.9029 10.2756C10.4108 9.04533 9.95078 7.25883 9.95078 7.25883C9.95078 7.25883 7.10521 9.75137 8.44242 13.8913C5.17964 12.6932 0.504787 11.0458 0.333625 11.0137C0.0875797 10.9816 0.0126964 11.0886 0.0126964 11.0886C0.0126964 11.0886 -0.0621866 11.1955 0.151766 11.3667C0.53688 11.6876 7.90753 17.122 9.52287 18.1811C9.16985 19.4434 9.16985 20.0425 9.52287 20.6415C10.015 21.4439 10.0471 21.8718 9.98287 22.4708C9.90799 23.0699 9.27683 28.2261 9.13776 28.8573C8.99869 29.4885 7.52242 31.735 7.5973 32.3982C7.67219 33.0615 8.58148 35.907 9.38381 36.228C9.98287 36.4419 11.4591 36.8912 12.4326 36.8912C12.7856 36.8912 13.0959 36.8163 13.2349 36.6773C13.834 36.1531 14.0052 36.0461 14.4331 36.0461C14.4652 36.0461 14.508 36.0461 14.5401 36.0461C14.7112 36.0461 14.9252 36.0782 15.1712 36.0782C15.7275 36.0782 16.4656 35.9712 17.0005 35.4791C17.7707 34.7089 19.1079 33.6498 19.5251 33.1577C20.0493 32.4945 20.3275 31.5745 20.1884 30.6652C20.0814 29.8201 20.5414 29.082 21.0656 28.3438C21.7288 27.4666 22.9591 25.8834 22.9591 25.8834C25.3767 27.7127 26.8958 30.4833 26.8958 33.575C26.8958 39.0521 22.1247 43.4702 16.2303 43.4702C15.321 43.4702 14.4438 43.3633 13.5666 43.1493C16.2731 44.1014 18.5517 44.4116 20.413 44.4116C24.3819 44.4116 26.4893 42.9675 26.4893 42.9675C26.4893 42.9675 25.7512 43.9195 24.5637 45C24.5958 45 24.5958 45 24.5958 45C31.1641 44.0907 34.352 38.6777 34.352 38.6777C34.352 38.6777 34.106 40.4321 33.7958 41.6303C42.5357 35.0619 41.0594 26.8569 41.0273 26.568C41.1022 26.675 41.9794 27.7234 42.4287 28.2903C43.8087 13.8593 31.9879 9.1844 31.9879 9.1844ZM18.541 32.2805C18.4019 32.4517 17.8028 32.9866 17.3856 33.3717C16.9684 33.7568 16.5084 34.1419 16.1554 34.4949C16.0163 34.634 15.7382 34.7089 15.3103 34.7089C15.1712 34.7089 15.0321 34.7089 14.9252 34.7089C14.8503 34.7089 14.7861 34.7089 14.7112 34.7089C14.6363 34.7089 14.6042 34.7089 14.5721 34.7089C14.4652 34.7089 14.3582 34.7089 14.2512 34.7089C14.7754 34.0029 16.3266 32.3875 16.8507 32.0452C17.4819 31.628 17.8028 31.2001 17.407 30.4619C17.0219 29.7238 16.0056 29.895 16.0056 29.895C16.0056 29.895 16.6047 29.6489 17.1289 29.6489C16.4656 29.4778 15.6205 29.6489 15.2354 30.034C14.8182 30.4192 14.8824 31.7885 14.7112 32.6657C14.5401 33.575 13.941 34.0349 13.021 34.8801C12.5289 35.3401 12.1759 35.4791 11.8977 35.4791C11.2987 35.3722 10.6033 35.201 10.1112 35.0191C9.75822 34.5591 9.23404 33.0508 9.09497 32.4196C9.20194 32.0666 9.61915 31.3285 9.8331 30.9112C10.2503 30.1089 10.4964 29.6489 10.5712 29.221C10.7103 28.622 11.1703 24.942 11.3415 23.3908C11.8015 23.9899 12.4326 24.9741 12.2936 25.6052C13.3098 24.1611 12.5717 22.7597 12.2187 22.2034C11.8977 21.6471 11.4805 20.5132 11.8336 19.3257C12.1866 18.1276 13.4489 14.8327 13.4489 14.8327C13.4489 14.8327 13.8661 15.5709 14.4652 15.4318C15.0642 15.2927 19.8675 8.06115 19.8675 8.06115C19.8675 8.06115 21.1619 10.9067 19.7926 12.9714C18.3912 15.0467 17.0219 15.4318 17.0219 15.4318C17.0219 15.4318 18.9475 15.7848 20.7447 14.4797C21.4828 16.202 22.1888 17.9885 22.2209 18.2346C22.114 18.4806 20.7126 21.8504 20.5735 22.0643C20.4986 22.1392 20.0172 22.2783 19.6642 22.3425C19.0651 22.5136 18.7121 22.6206 18.5731 22.7276C18.327 22.9415 17.2038 26.0224 16.6796 27.5415C16.0484 27.7127 15.4173 28.0657 14.9573 28.7717C15.2033 28.6006 15.9735 28.4936 16.5405 28.4187C17.0326 28.3866 18.541 29.1889 18.9261 30.6973C18.9261 30.7294 18.9261 30.7294 18.9261 30.7722C19.001 31.3392 18.8191 31.8633 18.541 32.2805ZM15.2461 32.7084C15.567 32.2484 15.5242 31.4782 15.567 31.2322C15.6098 30.9861 15.674 30.5261 15.9521 30.4619C16.2303 30.3871 16.9042 30.494 16.9042 30.9861C16.9042 31.4461 16.4121 31.5424 16.0591 31.8633C15.8024 32.1094 15.3103 32.6336 15.2461 32.7084ZM29.2493 26.001C29.6023 24.2145 29.6344 22.6634 29.5274 21.4011C30.8967 23.2304 31.7418 25.4341 31.9879 27.7234C32.02 28.0015 32.3088 28.2796 32.5869 28.5685C32.833 28.7824 33.1111 29.0606 33.1111 29.2317C33.1111 30.034 33.0362 30.8471 32.8972 31.6494C32.8651 31.7564 32.5441 31.9275 32.2981 32.0666C31.9451 32.2378 31.6348 32.4196 31.56 32.6977C30.7897 35.4042 29.1423 37.7898 26.9279 39.4693C30.1907 36.0782 31.7739 30.4619 29.2493 26.001ZM27.0349 39.801C29.3135 38.0466 31.0679 35.5861 31.8488 32.8154C31.8809 32.7084 32.2018 32.5373 32.4051 32.3982C32.7581 32.2271 33.1111 32.0131 33.1753 31.735C33.3144 30.9326 33.3892 30.0875 33.3892 29.2424C33.3892 28.9215 33.0683 28.6113 32.7581 28.2903C32.5869 28.0764 32.2981 27.8303 32.2981 27.6592C32.02 25.0917 31.0037 22.6741 29.4204 20.6736C28.7144 16.4588 25.9116 15.1644 25.8367 15.1323C25.9116 15.2392 27.7302 17.8709 26.4679 20.9625C25.1735 24.0862 21.8358 23.5941 21.5577 23.6262C21.2795 23.6262 20.1884 25.0276 18.8191 27.6271C18.6479 27.5522 17.9098 27.381 17.0647 27.5201C17.6958 25.7657 18.6479 23.2732 18.8191 23.0592C18.894 22.9843 19.4182 22.8452 19.7712 22.7383C20.4344 22.5671 20.7554 22.4601 20.8623 22.3211C20.9372 22.2141 21.2796 21.4118 21.6326 20.5667C21.9535 20.5667 22.7558 20.4918 22.8307 20.4597C22.9056 20.3848 23.5688 18.6732 23.5688 18.4592C23.5688 18.2881 22.1995 14.8755 21.6754 13.5811C21.9214 13.303 22.1674 12.95 22.4135 12.5648C29.613 13.3351 35.2292 19.4434 35.2292 26.8462C35.2185 32.5266 31.8809 37.4796 27.0349 39.801Z" fill="#1B314F"/>
<path d="M17.6967 20.8448C18.36 20.0746 18.0177 18.6304 16.7874 18.3843C17.1084 17.6462 17.5577 16.1699 17.5577 16.1699C17.5577 16.1699 13.974 21.7862 13.6637 21.8931C13.3428 22.0001 13.0326 20.7699 13.0326 20.7699C12.3693 23.3373 14.1558 23.6796 14.3698 22.8773C15.3433 22.6313 17.0335 21.5829 17.6967 20.8448Z" fill="#1B314F"/>
<path d="M14.6475 22.214L16.4768 19.0903C16.4768 19.0903 17.5251 19.6145 17.0009 20.4596C16.327 21.4331 14.6475 22.214 14.6475 22.214Z" fill="#FFD923"/>
<path d="M37.2189 36.6769C36.6948 37.3829 36.0957 38.1211 35.3896 38.8164C39.9147 30.1086 35.6036 22.1388 35.4217 21.8286C35.7427 22.1495 36.0529 22.4919 36.331 22.8128C39.8078 26.6639 40.2357 32.462 37.2189 36.6769Z" fill="#D82122"/>
<path d="M41.4236 25.4765C39.8404 21.2296 37.5939 17.6138 32.6516 14.351C27.8805 11.1952 22.7563 11.4413 22.4675 11.4734C22.4354 11.4734 22.3926 11.4734 22.3926 11.4734C22.5637 11.3985 22.7456 11.3664 22.9168 11.3343C24.0079 10.9813 25.4093 10.7031 26.8107 10.532C30.5335 10.0078 34.2883 11.2701 36.845 13.9766C36.8771 14.0087 36.8771 14.0087 36.9199 14.0515C39.8511 17.1217 41.3594 20.9835 41.4236 25.4765Z" fill="#D82122"/>
<path d="M31.5275 8.10384C26.2963 7.11966 22.9266 7.61175 20.5089 8.52105C20.4341 8.24291 20.188 7.67594 19.9848 7.22664C19.2466 8.10384 18.4764 9.15221 17.9843 9.82616C16.6471 10.7355 16.0908 11.6127 16.0908 11.6127C16.861 8.98104 19.1075 7.01268 21.8461 6.52059C22.6164 6.38152 23.4615 6.30664 24.3708 6.30664C26.7884 6.34943 29.2061 6.9378 31.5275 8.10384Z" fill="#D82122"/>
<path d="M12.186 14.8436C8.07814 14.7045 9.44743 9.93337 9.52232 9.64453C9.52232 9.67662 9.80045 13.3994 12.186 14.8436Z" fill="#D82122"/>
<path d="M16.2196 6.24268C13.0638 8.13615 13.695 12.6612 13.695 12.6612C10.6782 8.06127 15.9736 6.34965 16.2196 6.24268Z" fill="#D82122"/>
<path d="M11.0318 16.1057C11.2458 16.2769 11.449 16.5978 11.203 17.0578C11.0639 17.3038 10.85 17.2717 10.5397 17.1327C10.1225 16.9187 7.58718 15.4424 5.30859 13.9341C7.90811 14.8434 10.5397 15.8276 10.9569 16.0415C10.9569 16.0308 10.9997 16.0629 11.0318 16.1057Z" fill="white"/>
</svg>
