<svg width="135" height="40" viewBox="0 0 135 40" fill="none" xmlns="http://www.w3.org/2000/svg">
<g filter="url(#filter0_b_558_9995)">
<path d="M66.6657 18.7716C65.2772 18.1968 63.5812 17.7176 61.578 17.3333H61.5354C59.5891 16.9795 58.129 16.6548 57.1558 16.3591C56.1828 16.0651 55.4173 15.6666 54.8589 15.1647C54.3004 14.6636 54.022 13.9702 54.022 13.0848C54.022 11.7868 54.4945 10.7986 55.4386 10.1203C56.3836 9.44193 57.6283 9.10221 59.1736 9.10221C60.8627 9.10221 62.2284 9.5446 63.2739 10.43C64.2121 11.2252 64.7868 12.2352 64.9979 13.4587C65.0396 13.7026 65.2397 13.8825 65.4798 13.8852L70.2305 13.922C70.5217 13.9246 70.7549 13.6667 70.726 13.3673C70.5668 11.7307 70.0432 10.2423 69.1561 8.90303C68.1685 7.41379 66.8088 6.25532 65.0771 5.42859C63.3453 4.60282 61.3778 4.18945 59.1736 4.18945C57.0844 4.18945 55.2028 4.58794 53.5282 5.38469C51.8543 6.18155 50.5518 7.28741 49.6211 8.70384C48.6906 10.1203 48.2257 11.7132 48.2257 13.4832C48.2257 15.4306 48.6403 16.9945 49.4704 18.1739C50.3006 19.3543 51.3878 20.2468 52.7329 20.8515C54.0781 21.4562 55.6949 21.9353 57.5841 22.2899L57.7986 22.3338C59.8011 22.7173 61.2979 23.0569 62.2854 23.3518C63.273 23.6476 64.052 24.06 64.625 24.5909C65.1972 25.122 65.4832 25.845 65.4832 26.7595C65.4832 28.0583 64.9681 29.0754 63.9379 29.8127C62.9078 30.5508 61.5763 30.9194 59.9449 30.9194C57.9978 30.9194 56.4245 30.4103 55.2224 29.3923C54.1284 28.4664 53.4848 27.2773 53.2915 25.8257C53.2582 25.5747 53.0557 25.3843 52.8104 25.3808L48.0656 25.3071C47.7771 25.3026 47.5438 25.5537 47.5659 25.8504C47.7004 27.6353 48.242 29.244 49.1904 30.6762C50.235 32.255 51.673 33.4942 53.5052 34.3937C55.3364 35.2941 57.4402 35.7435 59.8164 35.7435C62.0197 35.7435 63.995 35.331 65.7411 34.5044C67.4865 33.6785 68.8539 32.535 69.8414 31.0747C70.829 29.6143 71.3228 27.9697 71.3228 26.1399C71.3228 24.1925 70.8929 22.6217 70.0347 21.4263C69.1765 20.2319 68.0535 19.3473 66.6657 18.7716Z" fill="#979797"/>
<path d="M95.8403 30.6993H95.0987C94.6696 30.6993 94.3324 30.5817 94.0898 30.3447C93.8462 30.1096 93.7246 29.7251 93.7246 29.1942V20.7412C93.7246 18.0566 92.8944 16.0136 91.235 14.612C89.5749 13.2115 87.6201 12.4971 84.5577 12.4971C81.6664 12.4971 79.4078 13.1447 77.6335 14.4129C76.0158 15.5695 75.041 17.1536 74.7072 19.1677C74.6554 19.4809 74.8853 19.7679 75.1926 19.7679H79.5559C79.7747 19.7679 79.9705 19.6196 80.0284 19.4019C80.2276 18.6569 80.667 18.0487 81.3463 17.5775C82.133 17.0315 83.0678 16.7587 84.2989 16.7587C86.6206 16.7587 88.2715 18.2339 88.2715 20.4314V21.1185C88.2715 21.3993 88.051 21.6267 87.7785 21.6267H83.8264C80.621 21.6267 78.1877 22.2761 76.5283 23.5741C74.8682 24.8729 74.0381 26.7168 74.0381 29.1055C74.0381 31.1714 74.7966 32.7942 76.3138 33.9736C77.4521 34.8582 78.8126 35.3689 80.2131 35.5928C81.2833 35.7639 82.3825 35.8262 83.4552 35.6489C84.579 35.4638 85.4917 34.9863 86.4053 34.3053C87.2259 33.6945 87.9104 32.9117 88.5353 31.9569C88.8401 31.4172 89.6396 31.6339 89.6396 32.2579V33.0082C89.6388 34.372 90.7107 35.4778 92.0337 35.4778H95.8403C96.1126 35.4778 96.3332 35.2505 96.3332 34.9697V31.2065C96.3332 30.9257 96.1126 30.6993 95.8403 30.6993ZM88.2723 26.1411C88.2723 27.2328 88.0501 28.1841 87.6065 28.995C86.6768 30.6958 85.0132 31.5839 83.141 31.5839C82.0529 31.5839 81.1803 31.3188 80.5222 30.7879C79.8632 30.257 79.5346 29.5488 79.5346 28.6633C79.5346 27.6611 79.8999 26.8861 80.6295 26.3403C81.3591 25.7952 82.396 25.5214 83.7421 25.5214H87.7794C88.0518 25.5214 88.2723 25.7488 88.2723 26.0296V26.1411Z" fill="#979797"/>
<path d="M111.748 4.51318H106.07C103.075 4.51318 100.647 7.016 100.647 10.1034V12.5598C100.647 12.8406 100.426 13.068 100.154 13.068H96.9119C96.6394 13.068 96.4189 13.2952 96.4189 13.5761V17.3831C96.4189 17.6639 96.6394 17.8913 96.9119 17.8913H100.154C100.426 17.8913 100.647 18.1185 100.647 18.3993V34.9702C100.647 35.251 100.867 35.4782 101.14 35.4782H105.564C105.836 35.4782 106.057 35.251 106.057 34.9702V18.3993C106.057 18.1185 106.277 17.8913 106.549 17.8913H111.705C111.977 17.8913 112.198 17.6639 112.198 17.3831V13.5761C112.198 13.2952 111.977 13.068 111.705 13.068H106.549C106.277 13.068 106.057 12.8406 106.057 12.5598V10.3527C106.057 9.79106 106.498 9.33645 107.042 9.33645H111.747C112.02 9.33645 112.24 9.10909 112.24 8.82827V5.02125C112.24 4.74043 112.02 4.51318 111.748 4.51318Z" fill="#979797"/>
<path d="M133.418 17.6442C132.461 15.9926 131.15 14.7236 129.49 13.8382C127.831 12.9535 125.912 12.498 123.739 12.498C121.564 12.498 119.687 12.9904 118.028 13.9487C116.367 14.9079 115.079 16.2647 114.164 18.0199C113.248 19.776 112.79 21.833 112.79 24.1938C112.79 26.5545 113.263 28.5238 114.206 30.279C115.152 32.0342 116.504 33.384 118.264 34.3283C120.023 35.2726 122.091 35.7447 124.468 35.7447C126.299 35.7447 127.938 35.3981 129.384 34.7048C130.828 34.0124 131.995 33.0601 132.882 31.8508C133.641 30.8153 134.16 29.6813 134.437 28.4501C134.509 28.1307 134.276 27.8235 133.957 27.8235H129.513C129.301 27.8235 129.113 27.9657 129.045 28.1737C128.732 29.1277 128.179 29.8815 127.387 30.4344C126.5 31.054 125.398 31.3637 124.081 31.3637C122.994 31.3637 122.042 31.1276 121.227 30.6555C120.41 30.1842 119.767 29.5199 119.294 28.6642C119.108 28.3263 118.955 27.9692 118.835 27.6014C118.704 27.2066 118.61 26.7994 118.545 26.3869C118.524 26.2429 118.503 26.0973 118.486 25.9516C118.452 25.6514 118.683 25.3891 118.976 25.3891H134.301C134.55 25.3891 134.763 25.1995 134.791 24.9441C134.813 24.7572 134.827 24.5667 134.835 24.3711C134.849 24.0174 134.856 23.6927 134.856 23.3977C134.856 21.2152 134.376 19.2967 133.418 17.6442ZM128.814 21.5382H119.215C118.901 21.5382 118.663 21.2372 118.733 20.9203C118.887 20.2261 119.151 19.5995 119.53 19.0379C120.016 18.3157 120.646 17.7619 121.419 17.3784C122.192 16.9948 123.036 16.8026 123.951 16.8026C125.44 16.8026 126.671 17.216 127.644 18.0419C128.479 18.7509 129.03 19.7092 129.296 20.9177C129.366 21.2354 129.13 21.5382 128.814 21.5382Z" fill="#979797"/>
<path d="M36.529 19.9883H32.3214C31.0648 19.9883 30.0466 21.0379 30.0466 22.3332V28.6282C30.0466 29.9235 29.0283 30.9731 27.7717 30.9731H11.0328C9.77611 30.9731 8.75781 32.0227 8.75781 33.3181V37.6552C8.75781 38.9505 9.77611 40.0001 11.0328 40.0001H28.7406C29.9973 40.0001 31.0009 38.9505 31.0009 37.6552V34.1754C31.0009 32.8802 32.0192 31.9613 33.2759 31.9613H36.5282C37.7847 31.9613 38.803 30.9117 38.803 29.6163V22.3059C38.803 21.0107 37.7856 19.9883 36.529 19.9883Z" fill="#979797"/>
<path d="M8.75723 11.3719C8.75723 10.0766 9.77554 9.02695 11.0322 9.02695H27.7609C29.0176 9.02695 30.0357 7.97733 30.0357 6.68208V2.34493C30.0357 1.0496 29.0176 0 27.7609 0H10.0624C8.80585 0 7.78755 1.0496 7.78755 2.34493V5.68687C7.78755 6.98212 6.76937 8.03175 5.5127 8.03175H2.27488C1.01824 8.03175 0 9.08137 0 10.3767V17.695C0 18.9903 1.0225 19.9872 2.27914 19.9872H6.48662C7.74329 19.9872 8.76159 18.9377 8.76159 17.6424L8.75723 11.3719Z" fill="#979797"/>
<path d="M17.4226 15.4287H21.4641C22.7813 15.4287 23.8498 16.5309 23.8498 17.8878V22.0537C23.8498 23.4113 22.7804 24.5126 21.4641 24.5126H17.4226C16.1056 24.5126 15.0371 23.4104 15.0371 22.0537V17.8878C15.0371 16.5301 16.1064 15.4287 17.4226 15.4287Z" fill="#979797"/>
</g>
<defs>
<filter id="filter0_b_558_9995" x="-20" y="-20" width="174.856" height="80" filterUnits="userSpaceOnUse" color-interpolation-filters="sRGB">
<feFlood flood-opacity="0" result="BackgroundImageFix"/>
<feGaussianBlur in="BackgroundImageFix" stdDeviation="10"/>
<feComposite in2="SourceAlpha" operator="in" result="effect1_backgroundBlur_558_9995"/>
<feBlend mode="normal" in="SourceGraphic" in2="effect1_backgroundBlur_558_9995" result="shape"/>
</filter>
</defs>
</svg>
