<svg width="86" height="24" viewBox="0 0 86 24" fill="none" xmlns="http://www.w3.org/2000/svg">
<path d="M0 5.70898H5.11643L8.09567 13.2047L11.1136 5.70898H16.0953L8.59395 23.4538H3.58069L5.63405 18.7517L0 5.70898Z" fill="#4E4E4E"/>
<path d="M21.2842 5.41211C17.44 5.41211 15.0098 8.80262 15.0098 12.179C15.0098 15.9785 17.6742 18.9908 21.2113 18.9908C23.8498 18.9908 24.8446 17.4099 24.8446 17.4099V18.6414H29.3072V5.71059H24.8446V6.88611C24.8446 6.88611 23.7347 5.41211 21.2842 5.41211ZM22.2334 9.56756C24.0071 9.56756 24.9225 10.9478 24.9225 12.1932C24.9225 13.5343 23.9418 14.8504 22.2334 14.8504C20.8174 14.8504 19.5379 13.7125 19.5379 12.2503C19.5379 10.7675 20.5671 9.56756 22.2334 9.56756Z" fill="#4E4E4E"/>
<path d="M30.8438 18.6405V0H35.5113V6.93007C35.5113 6.93007 36.6199 5.4129 38.9418 5.4129C41.782 5.4129 43.446 7.49399 43.446 10.4678V18.6405H38.8127V11.5873C38.8127 10.5809 38.3252 9.60872 37.221 9.60872C36.097 9.60872 35.5113 10.5957 35.5113 11.5873V18.6405H30.8438Z" fill="#4E4E4E"/>
<path d="M51.4046 5.41406C47.0022 5.41406 44.3809 8.70613 44.3809 12.2333C44.3809 16.2472 47.5548 18.9912 51.4213 18.9912C55.1689 18.9912 58.4481 16.3717 58.4481 12.3006C58.4481 7.84606 55.0146 5.41406 51.4046 5.41406ZM51.4466 9.60603C53.0017 9.60603 54.0777 10.8798 54.0777 12.2381C54.0777 13.3966 53.0751 14.8255 51.4466 14.8255C49.9545 14.8255 48.8347 13.6484 48.8347 12.2254C48.8347 10.8545 49.7657 9.60603 51.4466 9.60603Z" fill="#4E4E4E"/>
<path d="M66.2249 5.41406C61.8226 5.41406 59.2012 8.70613 59.2012 12.2333C59.2012 16.2472 62.3751 18.9912 66.2416 18.9912C69.9892 18.9912 73.2684 16.3717 73.2684 12.3006C73.2684 7.84606 69.8349 5.41406 66.2249 5.41406ZM66.2669 9.60603C67.822 9.60603 68.898 10.8798 68.898 12.2381C68.898 13.3966 67.8954 14.8255 66.2669 14.8255C64.7748 14.8255 63.655 13.6484 63.655 12.2254C63.655 10.8545 64.586 9.60603 66.2669 9.60603Z" fill="#4E4E4E"/>
<path d="M76.951 18.9144C78.6627 18.9144 80.0504 17.5498 80.0504 15.8664C80.0504 14.183 78.6627 12.8184 76.951 12.8184C75.2392 12.8184 73.8516 14.183 73.8516 15.8664C73.8516 17.5498 75.2392 18.9144 76.951 18.9144Z" fill="#4E4E4E"/>
<path d="M81.068 11.6993H75.4883L80.4404 0H85.9993L81.068 11.6993Z" fill="#4E4E4E"/>
</svg>
