<svg width="30" height="30" viewBox="0 0 30 30" fill="none" xmlns="http://www.w3.org/2000/svg">
<g clip-path="url(#clip0_558_9918)">
<path fill-rule="evenodd" clip-rule="evenodd" d="M15 30C23.2842 30 30 23.2842 30 15C30 6.7158 23.2842 0 15 0C6.7158 0 0 6.7158 0 15C0 23.2842 6.7158 30 15 30ZM20.7273 10.9092C21.3411 10.8411 21.9543 10.7046 22.5 10.4319C22.0908 11.0454 21.6138 11.5908 20.9316 11.9319V12.3411C20.9316 16.4319 17.8635 21.0681 12.2046 21.0681C10.4319 21.0681 8.8635 20.5911 7.5 19.7046C7.7727 19.7727 7.977 19.7727 8.25 19.7727C9.6819 19.7727 11.0454 19.2957 12.0681 18.4773C10.7046 18.4773 9.6138 17.5908 9.2046 16.3635C9.3411 16.4316 9.5457 16.4316 9.75 16.4316C10.0221 16.4316 10.2942 16.3638 10.566 16.2957L10.5684 16.2951C9.1368 16.0224 8.1138 14.7951 8.1138 13.2951V13.227C8.51809 13.4949 8.99259 13.6373 9.4776 13.6362C8.6595 13.0905 8.1138 12.2043 8.1138 11.1132C8.1138 10.4997 8.2503 10.0224 8.523 9.5454C10.0911 11.3862 12.3411 12.6135 14.8638 12.75C14.7957 12.5454 14.7957 12.3408 14.7957 12.0681C14.794 11.6647 14.8722 11.265 15.0258 10.892C15.1794 10.519 15.4053 10.1801 15.6905 9.89482C15.9758 9.60958 16.3147 9.38365 16.6877 9.23007C17.0607 9.07649 17.4604 8.99829 17.8638 9C18.75 9 19.5681 9.3408 20.1138 9.9543C20.8638 9.8181 21.4773 9.5457 22.0908 9.2043C21.8181 9.9546 21.3408 10.5 20.7273 10.9092Z" fill="#DDDDDD"/>
</g>
<defs>
<clipPath id="clip0_558_9918">
<rect width="30" height="30" fill="white"/>
</clipPath>
</defs>
</svg>
