<svg width="512" height="512" viewBox="0 0 512 512" fill="none" xmlns="http://www.w3.org/2000/svg">
<g clip-path="url(#clip0_707_9767)">
<path d="M256 512C397.385 512 512 397.385 512 256C512 114.615 397.385 0 256 0C114.615 0 0 114.615 0 256C0 397.385 114.615 512 256 512Z" fill="#FCFCFC"/>
<path d="M105.74 237.447L77.9141 186.964L105.74 137.273L133.566 186.964L105.74 237.447Z" fill="#A2001D"/>
<path d="M50.0877 237.447L22.2617 186.964L50.0877 137.273L77.9137 186.964L50.0877 237.447Z" fill="#A2001D"/>
<path d="M105.74 374.725L77.9141 324.242L105.74 274.551L133.566 324.242L105.74 374.725Z" fill="#A2001D"/>
<path d="M50.0877 374.725L22.2617 324.242L50.0877 274.551L77.9137 324.242L50.0877 374.725Z" fill="#A2001D"/>
<path d="M133.566 49.691L125.688 35.623C111.558 43.995 98.3048 53.688 86.0938 64.532L105.74 100.173L133.566 49.691Z" fill="#A2001D"/>
<path d="M105.739 411.824L85.8848 447.28C98.0848 458.138 111.329 467.846 125.453 476.235L133.566 461.516L105.739 411.824Z" fill="#A2001D"/>
<path d="M155.826 322.783V491.646C186.595 504.743 220.448 512 256 512C366.071 512 459.906 442.528 496.077 345.043L155.826 322.783Z" fill="#6DA544"/>
<path d="M496.077 345.043C506.368 317.31 512 287.314 512 256C512 114.616 397.384 0 256 0C220.451 0 186.595 7.253 155.826 20.348V345.044H496.077V345.043Z" fill="#A2001D"/>
</g>
<defs>
<clipPath id="clip0_707_9767">
<rect width="512" height="512" fill="white"/>
</clipPath>
</defs>
</svg>
