<svg width="512" height="512" viewBox="0 0 512 512" fill="none" xmlns="http://www.w3.org/2000/svg">
<g clip-path="url(#clip0_707_10064)">
<path d="M256 512C397.385 512 512 397.385 512 256C512 114.615 397.385 0 256 0C114.615 0 0 114.615 0 256C0 397.385 114.615 512 256 512Z" fill="#D80027"/>
<path d="M140.1 155.801L162.2 223.801H233.7L175.9 265.901L198 333.901L140.1 291.901L82.2 333.901L104.4 265.901L46.5 223.801H118L140.1 155.801Z" fill="#FFDA44"/>
<path d="M303.499 396.5L286.599 375.7L261.599 385.4L276.099 362.9L259.199 342L285.099 348.9L299.699 326.4L301.099 353.2L327.099 360.1L301.999 369.7L303.499 396.5Z" fill="#FFDA44"/>
<path d="M337.099 335.5L345.099 309.9L323.199 294.4L349.999 294L357.899 268.4L366.599 293.8L393.399 293.5L371.899 309.5L380.499 334.9L358.599 319.4L337.099 335.5Z" fill="#FFDA44"/>
<path d="M382.401 187.901L370.601 212.001L389.801 230.701L363.301 226.901L351.501 250.901L346.901 224.501L320.301 220.701L344.101 208.201L339.501 181.701L358.701 200.401L382.401 187.901Z" fill="#FFDA44"/>
<path d="M304.2 114.9L302.2 141.6L327.1 151.7L301 158.1L299.1 184.9L285 162.1L258.9 168.5L276.2 148L262 125.3L286.9 135.4L304.2 114.9Z" fill="#FFDA44"/>
</g>
<defs>
<clipPath id="clip0_707_10064">
<rect width="512" height="512" fill="white"/>
</clipPath>
</defs>
</svg>
