<svg width="512" height="512" viewBox="0 0 512 512" fill="none" xmlns="http://www.w3.org/2000/svg">
<g clip-path="url(#clip0_707_11068)">
<path d="M0 256.001C0 366.071 69.472 459.906 166.955 496.077L189.217 256L166.955 15.9238C69.472 52.0958 0 145.93 0 256.001Z" fill="#6DA544"/>
<path d="M512 256C512 114.616 397.384 0 256 0C224.686 0 194.689 5.633 166.955 15.923V496.077C194.689 506.368 224.686 512 256 512C397.384 512 512 397.384 512 256Z" fill="#D80027"/>
<path d="M166.957 345.043C216.134 345.043 256 305.177 256 256C256 206.823 216.134 166.957 166.957 166.957C117.78 166.957 77.9141 206.823 77.9141 256C77.9141 305.177 117.78 345.043 166.957 345.043Z" fill="#FFDA44"/>
<path d="M116.87 211.479V267.131C116.87 294.793 139.294 317.218 166.957 317.218C194.62 317.218 217.044 294.794 217.044 267.131V211.479H116.87Z" fill="#D80027"/>
<path d="M166.957 283.825C157.751 283.825 150.261 276.335 150.261 267.129V244.869H183.652V267.13C183.652 276.335 176.162 283.825 166.957 283.825Z" fill="#F0F0F0"/>
</g>
<defs>
<clipPath id="clip0_707_11068">
<rect width="512" height="512" fill="white"/>
</clipPath>
</defs>
</svg>
