<svg width="148" height="13" viewBox="0 0 148 13" fill="none" xmlns="http://www.w3.org/2000/svg">
<path fill-rule="evenodd" clip-rule="evenodd" d="M39.447 7.65566C33.0886 8.83045 25.7474 9.99959 18.6852 10.2915C12.649 10.5407 6.81856 10.1537 2.04627 8.50706C1.37354 8.27521 0.531113 8.4346 0.167299 8.86366C-0.19707 9.29237 0.0536045 9.82923 0.726328 10.0614C5.93231 11.8572 12.2802 12.3269 18.8643 12.0548C26.0536 11.7579 33.5273 10.581 40.0133 9.3892C40.7659 10.3608 42.3243 11.2666 45.0695 11.9349C49.2861 12.9616 55.0434 12.9489 61.1084 12.3704C69.9048 11.5317 79.3673 9.53164 85.4513 8.11051C85.7008 8.05255 86.0724 7.96031 86.5272 7.83873C86.6658 8.03383 86.8211 8.22609 86.993 8.41482C88.4849 10.0597 91.1248 11.3896 93.8146 11.8646C110.874 14.8765 130.784 11.2677 146.995 8.33069C147.727 8.19745 148.154 7.70832 147.949 7.23933C147.738 6.77033 146.973 6.49784 146.235 6.63108C130.479 9.48606 111.135 13.0882 94.5521 10.1614C92.5112 9.80095 90.5258 8.77885 89.3944 7.53054C89.2669 7.39129 89.1559 7.24886 89.0506 7.10431C91.2856 6.39852 93.9144 5.41458 95.3286 4.36137C96.7816 3.28165 97.1421 2.12913 95.8776 1.04058C94.7906 0.110003 93.1435 0.0308343 91.4298 0.513262C89.583 1.02997 87.6807 2.23797 87.0651 2.80486C85.9116 3.86373 85.5455 5.01238 85.7563 6.13239C85.2128 6.27871 84.7713 6.38755 84.499 6.45117C78.5482 7.84085 69.2992 9.80238 60.698 10.6227C55.1637 11.1507 49.9067 11.221 46.0589 10.2844C44.4179 9.88472 43.3336 9.4182 42.7452 8.87675C43.9065 8.65551 45.0263 8.43779 46.0961 8.22998C48.2119 7.81894 52.617 7.1386 55.7643 5.92599C58.2672 4.96184 59.9643 3.65028 59.8656 2.00614C59.8151 1.16145 59.0481 0.59772 57.8274 0.281757C56.0033 -0.190068 52.8488 0.0382411 51.6742 0.197283C48.1115 0.67865 43.3564 2.67128 41.0038 4.9166C40.0649 5.81254 39.5064 6.74982 39.447 7.65566ZM42.3736 7.1036C43.3802 6.91063 44.353 6.72119 45.2875 6.53953C47.2624 6.15571 51.3908 5.54604 54.3296 4.41366C55.8858 3.81425 57.1564 3.0961 57.0948 2.07363C57.0898 1.99411 56.9661 1.9715 56.8569 1.93898C56.6877 1.88915 56.4942 1.85486 56.2879 1.828C54.8919 1.64634 53.0169 1.82198 52.2493 1.92589C49.26 2.32986 45.2836 4.01394 43.3098 5.89806C42.8927 6.29602 42.5605 6.7014 42.3736 7.1036ZM88.496 5.3188C89.7993 4.89151 91.1636 4.37479 92.2395 3.81249C92.8107 3.51384 93.2932 3.20672 93.5983 2.88793C93.8534 2.62428 93.9532 2.35424 93.6481 2.09341C93.5261 1.98774 93.3431 1.98563 93.1546 2.00542C92.9549 2.02663 92.7497 2.07186 92.5445 2.13017C91.1913 2.50975 89.7937 3.3965 89.3445 3.81249C88.8177 4.29491 88.557 4.80527 88.496 5.3188Z" fill="url(#paint0_linear_1486_8098)"/>
<defs>
<linearGradient id="paint0_linear_1486_8098" x1="-34.1423" y1="-7.04166" x2="98.3408" y2="21.8604" gradientUnits="userSpaceOnUse">
<stop stop-color="#FA0CFF"/>
<stop offset="0.484375" stop-color="#FF3ECA"/>
<stop offset="1" stop-color="#FFB648"/>
</linearGradient>
</defs>
</svg>
