<svg width="159" height="160" viewBox="0 0 159 160" fill="none" xmlns="http://www.w3.org/2000/svg">
<g clip-path="url(#clip0_1480_7228)">
<g filter="url(#filter0_d_1480_7228)">
<path d="M26.2601 94.0392C34.096 123.355 64.212 140.767 93.527 132.932C122.842 125.096 140.256 94.9786 132.42 65.6635C124.584 36.3481 94.4667 18.936 65.1513 26.7718C35.8363 34.6075 18.4243 64.7238 26.2601 94.0392Z" fill="#2546FF"/>
</g>
<path fill-rule="evenodd" clip-rule="evenodd" d="M56.3576 73.9524L56.5502 70.24C56.5893 69.485 56.9932 68.7976 57.6337 68.398L60.7848 66.4244C61.2212 66.1522 61.0458 65.4807 60.5336 65.4538L56.8201 65.2614C56.0664 65.2221 55.379 64.8181 54.9781 64.1779L53.0058 61.0263C52.734 60.5911 52.0621 60.7652 52.0356 61.2787L51.843 64.9912C51.8036 65.7448 51.3997 66.4322 50.7596 66.8332L47.6081 68.8055C47.172 69.0789 47.3457 69.7496 47.8593 69.7761L51.5728 69.9684C52.3265 70.0078 53.0142 70.413 53.4151 71.0532L55.3871 74.2035C55.6592 74.64 56.3311 74.466 56.3576 73.9524Z" fill="#FAFAFA"/>
<path fill-rule="evenodd" clip-rule="evenodd" d="M113.966 56.6257C112.002 55.3402 109.387 55.0199 106.987 55.2432C104.573 55.4869 102.156 56.1702 99.981 57.186C95.5681 59.2022 91.8805 62.236 88.8488 65.573C87.2564 67.2386 85.9926 69.0112 84.677 70.8242C84.0519 71.7303 83.5102 72.6621 82.935 73.5916L81.3927 76.2404C79.7474 79.2333 78.0781 82.005 76.3825 84.3857C74.676 86.7605 72.9965 88.6666 71.2369 90.1546C69.48 91.6471 67.4771 92.784 64.6949 93.6239C61.9395 94.4654 58.5145 94.8436 54.7731 94.9568C51.0137 95.0787 46.9833 94.8974 42.5601 94.9967C45.0826 98.6251 48.2133 101.591 51.882 104.086C55.5686 106.516 59.8845 108.475 64.9421 109.17C69.9453 109.926 75.7641 109.122 80.747 106.656C85.755 104.23 89.7359 100.552 92.7263 96.728C95.7188 92.8734 97.8883 88.8137 99.5466 84.7527C100.004 83.6309 100.238 83.0089 100.555 82.143L101.41 79.6729C102.047 78.1162 102.547 76.4036 103.177 74.8616C104.366 71.6666 105.529 68.4819 107.053 65.4269C107.818 63.8797 108.657 62.3709 109.717 60.8529C110.249 60.1082 110.84 59.3607 111.524 58.6465C112.211 57.8902 112.975 57.2375 113.966 56.6257Z" fill="#FF422B"/>
<path fill-rule="evenodd" clip-rule="evenodd" d="M114.075 57.0411C111.351 53.3646 107.405 50.7119 102.667 49.2425C97.9612 47.7944 92.0187 48.0019 86.7646 50.5834C84.1662 51.8472 81.7845 53.5798 79.8185 55.5648C77.8617 57.5415 76.2198 59.7304 74.8888 61.9635C74.2255 63.0826 73.6552 64.2175 73.0917 65.3562L71.7094 68.6004L69.6212 73.7863C66.9727 80.4483 64.2619 88.1507 57.4723 92.0331C50.807 95.8445 47.248 94.9981 42.6856 95.475C44.0396 97.3323 45.5686 99.0789 47.3856 100.489C49.1871 101.942 51.1983 103.221 53.5238 104.157C54.6892 104.594 55.9068 105.006 57.2107 105.284C58.5042 105.543 59.8691 105.711 61.2841 105.733C64.0922 105.753 67.1048 105.217 69.8529 104.068C72.6039 102.924 75.0886 101.289 77.1505 99.4486C79.2329 97.6141 80.9365 95.6029 82.3947 93.5715C85.2813 89.4884 87.2564 85.3016 88.7731 81.1977C89.5388 79.1438 90.1826 77.0877 90.7426 75.0534L91.3953 72.6353C91.6023 71.9241 91.8125 71.208 92.0398 70.5328C92.9603 67.8176 93.9689 65.5682 95.4232 63.6934C96.8425 61.7896 99.0677 60.0685 102.351 58.9292C105.62 57.7906 109.592 57.2181 114.075 57.0411Z" fill="#FAFAFA"/>
<path fill-rule="evenodd" clip-rule="evenodd" d="M105.578 96.1716C106.382 99.178 109.472 100.964 112.479 100.16C115.486 99.3564 117.27 96.2676 116.466 93.2613C115.663 90.2556 112.576 88.4682 109.569 89.272C106.562 90.0756 104.775 93.1659 105.578 96.1716Z" fill="#FF422A"/>
</g>
<defs>
<filter id="filter0_d_1480_7228" x="13.1126" y="23.4857" width="124.002" height="124.002" filterUnits="userSpaceOnUse" color-interpolation-filters="sRGB">
<feFlood flood-opacity="0" result="BackgroundImageFix"/>
<feColorMatrix in="SourceAlpha" type="matrix" values="0 0 0 0 0 0 0 0 0 0 0 0 0 0 0 0 0 0 127 0" result="hardAlpha"/>
<feOffset dx="-4.22635" dy="5.63513"/>
<feGaussianBlur stdDeviation="3.52195"/>
<feComposite in2="hardAlpha" operator="out"/>
<feColorMatrix type="matrix" values="0 0 0 0 0.7375 0 0 0 0 0.7375 0 0 0 0 1 0 0 0 0.58 0"/>
<feBlend mode="normal" in2="BackgroundImageFix" result="effect1_dropShadow_1480_7228"/>
<feBlend mode="normal" in="SourceGraphic" in2="effect1_dropShadow_1480_7228" result="shape"/>
</filter>
<clipPath id="clip0_1480_7228">
<rect width="129.784" height="130.168" fill="white" transform="translate(0 33.979) rotate(-14.9649)"/>
</clipPath>
</defs>
</svg>
