<svg width="512" height="513" viewBox="0 0 512 513" fill="none" xmlns="http://www.w3.org/2000/svg">
<g clip-path="url(#clip0_707_11487)">
<path d="M256 512.582C397.385 512.582 512 397.967 512 256.582C512 115.197 397.385 0.582031 256 0.582031C114.615 0.582031 0 115.197 0 256.582C0 397.967 114.615 512.582 256 512.582Z" fill="#D80027"/>
<path d="M245.517 209.768L266.522 238.713L300.539 227.683L279.501 256.603L300.503 285.547L266.498 274.475L245.461 303.395L245.483 267.634L211.477 256.562L245.495 245.532L245.517 209.768Z" fill="#F0F0F0"/>
<path d="M188.193 328.929C148.237 328.929 115.845 296.537 115.845 256.581C115.845 216.625 148.237 184.233 188.193 184.233C200.651 184.233 212.373 187.384 222.607 192.929C206.552 177.227 184.595 167.537 160.367 167.537C111.189 167.537 71.3242 207.403 71.3242 256.58C71.3242 305.757 111.19 345.623 160.367 345.623C184.597 345.623 206.553 335.932 222.607 320.231C212.373 325.778 200.651 328.929 188.193 328.929Z" fill="#F0F0F0"/>
</g>
<defs>
<clipPath id="clip0_707_11487">
<rect width="512" height="512" fill="white" transform="translate(0 0.582031)"/>
</clipPath>
</defs>
</svg>
